<?xml version="1.0" encoding="utf-8"?>
<!-- Generator: Adobe Illustrator 16.0.0, SVG Export Plug-In . SVG Version: 6.00 Build 0)  -->
<!DOCTYPE svg PUBLIC "-//W3C//DTD SVG 1.1//EN" "http://www.w3.org/Graphics/SVG/1.1/DTD/svg11.dtd">
<svg version="1.1" id="圖層_1" xmlns="http://www.w3.org/2000/svg" xmlns:xlink="http://www.w3.org/1999/xlink" x="0px" y="0px"
	 width="1513px" height="1176.72px" viewBox="0 0 1513 1176.72" enable-background="new 0 0 1513 1176.72" xml:space="preserve">
<g>
	<defs>
		<rect id="SVGID_1_" width="1513" height="1176.72"/>
	</defs>
	<clipPath id="SVGID_2_">
		<use xlink:href="#SVGID_1_"  overflow="visible"/>
	</clipPath>
	<g clip-path="url(#SVGID_2_)">
		<defs>
			<rect id="SVGID_3_" y="0.001" width="1513" height="1176.719"/>
		</defs>
		<clipPath id="SVGID_4_">
			<use xlink:href="#SVGID_3_"  overflow="visible"/>
		</clipPath>
		<path clip-path="url(#SVGID_4_)" fill="#050F64" d="M137.5,320.694v691.968c0,26.615,21.576,48.192,48.192,48.192h1141.616
			c26.616,0,48.192-21.577,48.192-48.192V320.694c0-26.616-21.576-48.192-48.192-48.192H185.692
			C159.076,272.502,137.5,294.078,137.5,320.694"/>
		<rect x="216.917" y="351.916" clip-path="url(#SVGID_4_)" fill="#FFFFFF" width="1079.168" height="589.56"/>
		<path clip-path="url(#SVGID_4_)" fill="#FFFFFF" d="M180.813,977.572h1151.369V315.82H180.813V977.572z M1296.085,941.476H216.917
			v-589.56h1079.168V941.476z"/>
		<rect x="542.696" y="1060.854" clip-path="url(#SVGID_4_)" fill="#155BCD" width="427.607" height="30.186"/>
		<polygon clip-path="url(#SVGID_4_)" fill="#155BCD" points="1033.75,1161.938 479.25,1161.938 542.696,1088.363 970.304,1088.363 
					"/>
		<path clip-path="url(#SVGID_4_)" fill="#E5E6EB" d="M1205.402,441.413H289.193c-24.684,0-44.694,10.506-44.694,23.467v393.066
			c0,12.96,20.01,23.467,44.694,23.467h916.209c24.684,0,44.693-10.507,44.693-23.467V464.88
			C1250.096,451.919,1230.086,441.413,1205.402,441.413"/>
		<path clip-path="url(#SVGID_4_)" fill="#155BCD" d="M475.422,386.267h-119.68c-12.96,0-23.467,10.506-23.467,23.467v119.68
			c0,12.96,10.507,23.466,23.467,23.466h119.68c12.96,0,23.467-10.506,23.467-23.466v-119.68
			C498.89,396.772,488.382,386.267,475.422,386.267"/>
		<path clip-path="url(#SVGID_4_)" fill="#FFBD00" d="M1189.318,552.88h-253.44c-9.72,0-17.6-7.88-17.6-17.6V486
			c0-9.72,7.88-17.6,17.6-17.6h253.44c9.72,0,17.6,7.88,17.6,17.6v49.28C1206.918,545,1199.038,552.88,1189.318,552.88"/>
		<rect x="328.132" y="593.421" clip-path="url(#SVGID_4_)" fill="#FFFFFF" width="861.2" height="11.732"/>
		<rect x="329.185" y="630.968" clip-path="url(#SVGID_4_)" fill="#FFFFFF" width="861.2" height="11.733"/>
		<rect x="330.237" y="668.515" clip-path="url(#SVGID_4_)" fill="#FFFFFF" width="861.201" height="11.733"/>
		<rect x="331.29" y="706.061" clip-path="url(#SVGID_4_)" fill="#FFFFFF" width="861.2" height="11.733"/>
		<rect x="332.343" y="743.607" clip-path="url(#SVGID_4_)" fill="#FFFFFF" width="861.2" height="11.733"/>
		<rect x="336.445" y="782.854" clip-path="url(#SVGID_4_)" fill="#FFFFFF" width="861.2" height="11.733"/>
		<rect x="337.498" y="820.399" clip-path="url(#SVGID_4_)" fill="#FFFFFF" width="861.2" height="11.733"/>
		<polygon clip-path="url(#SVGID_4_)" fill="#84A9FF" points="472.155,552.88 359.01,552.88 359.01,492.354 413.412,468.478 
			472.155,492.354 		"/>
		<path clip-path="url(#SVGID_4_)" fill="#050F64" d="M444.737,443.972c0,18.4-13.053,33.317-29.155,33.317
			s-29.155-14.917-29.155-33.317c0-18.4,13.053-33.317,29.155-33.317S444.737,425.571,444.737,443.972"/>
		<path clip-path="url(#SVGID_4_)" fill="#FFFFFF" d="M436.265,433.1v-6.402h-41.366v6.402c-1.904,0-3.447,1.543-3.447,3.447v12.804
			c0,1.904,1.543,3.447,3.447,3.447v3.447c0,4.823,1.665,9.25,4.432,12.768v14.645c0,8.975,7.276,16.251,16.251,16.251
			c8.975,0,16.251-7.276,16.251-16.251v-14.645c2.768-3.518,4.432-7.945,4.432-12.768v-3.447c1.904,0,3.447-1.543,3.447-3.447
			v-12.804C439.712,434.643,438.169,433.1,436.265,433.1"/>
		<path clip-path="url(#SVGID_4_)" fill="#050F64" d="M415.583,412.025c-4.172,0-8.053,1.187-11.302,2.901
			c-0.025,0.013-0.052,0.025-0.077,0.038c-0.05,0.026-0.099,0.053-0.149,0.08c-0.019,0.01-0.039,0.02-0.058,0.031
			c-5.174,2.732-9.494,6.119-10.011,13.93c-0.021,0.314-0.02,0.628-0.032,0.943c-0.861,0.542-1.609,1.397-2.172,2.254
			c-3.609,5.489-4.298,12.785-1.78,18.853c0.476,1.146,1.06,2.256,1.352,3.462c0.292,1.206,0.257,2.562-0.441,3.587
			c3.522-1.819,6.017-5.425,6.646-9.324c0.742,2.138,1.367,4.312,1.308,6.556c-0.081,3.108-1.49,6.063-3.405,8.511
			c-1.914,2.449-4.322,4.459-6.71,6.448c7.162-2.525,13.099-8.314,15.806-15.409c1.644-4.308,2.124-8.957,2.653-13.538
			c0.337-2.919,0.712-5.865,1.423-8.708c2.173,0.294,4.511,0.455,6.949,0.455c6.459,0,12.226-1.125,16.018-2.887
			c1.918,2.205,4.665,2.892,4.665,2.892l2.392-7.14C438.663,425.888,427.005,412.025,415.583,412.025"/>
		<path clip-path="url(#SVGID_4_)" fill="#FFFFFF" d="M986.862,507.364c0.552-0.538,0.246-1.476-0.516-1.586l-11.162-1.622
			c-0.303-0.044-0.564-0.235-0.7-0.509l-4.991-10.114c-0.341-0.691-1.327-0.691-1.668,0l-4.992,10.114
			c-0.135,0.274-0.397,0.465-0.7,0.509l-11.162,1.622c-0.762,0.11-1.066,1.048-0.515,1.586l8.077,7.873
			c0.219,0.213,0.318,0.521,0.267,0.823l-1.906,11.116c-0.131,0.76,0.667,1.34,1.35,0.981l9.982-5.249
			c0.271-0.142,0.596-0.142,0.866,0l9.983,5.249c0.682,0.359,1.479-0.221,1.35-0.981l-1.907-11.116
			c-0.052-0.302,0.048-0.61,0.268-0.823L986.862,507.364z"/>
		<path clip-path="url(#SVGID_4_)" fill="#FFFFFF" d="M1033.831,507.364c0.552-0.538,0.247-1.476-0.515-1.586l-11.162-1.622
			c-0.303-0.044-0.564-0.235-0.7-0.509l-4.991-10.114c-0.342-0.691-1.327-0.691-1.669,0l-4.991,10.114
			c-0.136,0.274-0.397,0.465-0.7,0.509l-11.161,1.622c-0.763,0.11-1.068,1.048-0.516,1.586l8.076,7.873
			c0.22,0.213,0.319,0.521,0.268,0.823l-1.906,11.116c-0.131,0.76,0.667,1.34,1.35,0.981l9.982-5.249
			c0.271-0.142,0.595-0.142,0.866,0l9.982,5.249c0.683,0.359,1.48-0.221,1.351-0.981l-1.907-11.116
			c-0.052-0.302,0.048-0.61,0.267-0.823L1033.831,507.364z"/>
		<path clip-path="url(#SVGID_4_)" fill="#FFFFFF" d="M1080.801,507.364c0.552-0.538,0.247-1.476-0.515-1.586l-11.162-1.622
			c-0.303-0.044-0.565-0.235-0.7-0.509l-4.992-10.114c-0.341-0.691-1.326-0.691-1.668,0l-4.99,10.114
			c-0.137,0.274-0.398,0.465-0.701,0.509l-11.162,1.622c-0.762,0.11-1.067,1.048-0.516,1.586l8.077,7.873
			c0.22,0.213,0.319,0.521,0.268,0.823l-1.906,11.116c-0.131,0.76,0.667,1.34,1.349,0.981l9.983-5.249
			c0.271-0.142,0.595-0.142,0.866,0l9.982,5.249c0.683,0.359,1.48-0.221,1.351-0.981l-1.907-11.116
			c-0.052-0.302,0.048-0.61,0.267-0.823L1080.801,507.364z"/>
		<path clip-path="url(#SVGID_4_)" fill="#FFFFFF" d="M1127.771,507.364c0.552-0.538,0.247-1.476-0.515-1.586l-11.162-1.622
			c-0.303-0.044-0.565-0.235-0.7-0.509l-4.992-10.114c-0.341-0.691-1.327-0.691-1.668,0l-4.991,10.114
			c-0.136,0.274-0.397,0.465-0.7,0.509l-11.161,1.622c-0.764,0.11-1.068,1.048-0.517,1.586l8.077,7.873
			c0.219,0.213,0.319,0.521,0.268,0.823l-1.906,11.116c-0.131,0.76,0.667,1.34,1.349,0.981l9.983-5.249
			c0.271-0.142,0.595-0.142,0.866,0l9.982,5.249c0.683,0.359,1.48-0.221,1.351-0.981l-1.907-11.116
			c-0.052-0.302,0.048-0.61,0.267-0.823L1127.771,507.364z"/>
		<path clip-path="url(#SVGID_4_)" fill="#FFFFFF" d="M1174.74,507.364c0.552-0.538,0.247-1.476-0.515-1.586l-11.162-1.622
			c-0.304-0.044-0.565-0.235-0.7-0.509l-4.992-10.114c-0.341-0.691-1.327-0.691-1.668,0l-4.991,10.114
			c-0.136,0.274-0.397,0.465-0.7,0.509l-11.161,1.622c-0.764,0.11-1.068,1.048-0.517,1.586l8.077,7.873
			c0.219,0.213,0.319,0.521,0.267,0.823l-1.905,11.116c-0.132,0.76,0.667,1.34,1.349,0.981l9.983-5.249
			c0.271-0.142,0.595-0.142,0.866,0l9.982,5.249c0.682,0.359,1.48-0.221,1.35-0.981l-1.906-11.116
			c-0.053-0.302,0.048-0.61,0.267-0.823L1174.74,507.364z"/>
		<path clip-path="url(#SVGID_4_)" fill="#F4BCC7" d="M1215.394,1138.1c0.024,12.725-18.938,20.575-22.363,21.219
			c-2.253,0.427-3.05-2.453-3.42-4.421c2.463-0.716,5.36-1.9,9.344-6.238c6.078-6.617,6.248-10.703,6.248-10.703l10.173,0.125
			C1215.375,1138.081,1215.381,1138.087,1215.394,1138.1"/>
		<path clip-path="url(#SVGID_4_)" fill="#050F64" d="M1215.394,1138.1c-0.48,12.562-17.744,19.535-21.169,20.179
			c-2.254,0.427-4.244-1.413-4.614-3.381c-0.924,0.268-3.649,1.043-4.489,1.401c-3.063,1.309-0.458,3.665,2.208,4.836
			c1.624,0.715,4.325,1.187,8.636,0.379c6.516-1.221,15.241-8.517,17.124-11.371l-0.138,11.306l4.277,0.052l0.168-13.723
			C1217.477,1141.239,1215.566,1138.356,1215.394,1138.1"/>
		<path clip-path="url(#SVGID_4_)" fill="#F4BCC7" d="M1266.104,1137.066c0.586,12.712-18.012,21.391-21.405,22.184
			c-2.233,0.526-3.155-2.315-3.612-4.266c2.429-0.823,5.271-2.134,9.061-6.643c5.78-6.879,5.771-10.969,5.771-10.969l10.168-0.324
			C1266.085,1137.049,1266.092,1137.055,1266.104,1137.066"/>
		<path clip-path="url(#SVGID_4_)" fill="#050F64" d="M1266.104,1137.066c0.074,12.571-16.864,20.299-20.259,21.093
			c-2.231,0.525-4.302-1.225-4.759-3.175c-0.911,0.308-3.599,1.203-4.423,1.599c-3.003,1.441-0.295,3.682,2.42,4.734
			c1.653,0.641,4.373,0.994,8.643-0.003c6.455-1.506,14.852-9.18,16.607-12.115l0.36,11.301l4.275-0.137l-0.438-13.717
			C1268.323,1140.111,1266.288,1137.315,1266.104,1137.066"/>
		<path clip-path="url(#SVGID_4_)" fill="#050F64" d="M1181.091,984.635l-0.005-0.029c-0.117-1.392-0.07-2.767,0.118-4.106
			l-0.004-0.001l0.01-0.053c0.089-0.62,20.671-107.907,20.671-107.907c0.001-0.01,68.525,0,68.525,0
			c11.605,42.117,12.616,83.257,0.051,112.503l-4.06,152.092l-11.036,0.331l-23.78-171.436c-3.809,8.055-8.307,15.38-13.565,21.9
			l-2.063,150.178l-11.594-0.162C1204.359,1137.944,1181.141,985.211,1181.091,984.635"/>
		<path clip-path="url(#SVGID_4_)" fill="#050F64" d="M1256.843,695.679c0,0,7.97,0.46,9.072,12.665
			c1.311,14.513-4.974,31.175-19.075,35.715c-19.028,6.126-28.448-13.307-28.448-13.307s5.571,1.84,4.554-8.088
			C1221.928,712.737,1256.843,695.679,1256.843,695.679"/>
		<path clip-path="url(#SVGID_4_)" fill="#EA8096" d="M1066.552,816.026c0.436-2.471,2.494-4.219,4.694-3.992
			c6.522,0.634,13.034,1.217,19.504,1.645c6.468,0.431,12.901,0.732,19.203,0.685c6.297-0.048,12.453-0.466,18.254-1.523
			c5.809-1.051,11.227-2.744,16.295-5.136c5.058-2.443,9.82-5.575,14.441-9.229c4.618-3.65,9.083-7.799,13.469-12.188
			c1.092-1.118,2.192-2.184,3.273-3.338l3.247-3.417c2.148-2.342,4.299-4.65,6.424-7.056c4.266-4.751,8.484-9.657,12.697-14.588
			c5.481-6.127,15.688-5.855,22.445,0.727c6.741,6.569,7.259,16.834,1.003,22.541c-5.04,4.37-10.106,8.735-15.329,13.045
			c-2.581,2.163-5.26,4.295-7.908,6.428l-4.067,3.165c-1.342,1.059-2.768,2.083-4.146,3.123
			c-5.589,4.125-11.432,8.132-17.749,11.734c-6.305,3.595-13.14,6.762-20.363,8.961c-7.241,2.164-14.749,3.259-21.996,3.451
			c-7.263,0.205-14.272-0.412-21.057-1.376c-6.788-0.974-13.382-2.291-19.899-3.72c-6.518-1.428-12.951-2.993-19.353-4.603
			C1067.466,820.836,1066.115,818.496,1066.552,816.026"/>
		<path clip-path="url(#SVGID_4_)" fill="#FFFFFF" d="M1235.836,747.756L1235.836,747.756c-27.614,0-48.762,24.564-44.655,51.873
			l10.7,72.908c19.753,7.385,45.66,6.377,68.525,0l2.675-84.48C1274.797,766.331,1257.629,747.756,1235.836,747.756"/>
		<path clip-path="url(#SVGID_4_)" fill="#84A9FF" d="M1190.529,799.725l0.983,6.705c0.217-0.01,0.438-0.016,0.661-0.023
			l-0.993-6.776c-1.507-10.021,0.388-19.67,4.751-27.875l-0.54-0.372C1190.809,779.985,1189.052,789.901,1190.529,799.725
			 M1195.21,827.09c-0.217,0.014-0.437,0.023-0.657,0.037l2.855,19.456l0.648-0.119L1195.21,827.09z M1197.523,767.794l0.559,0.345
			c1.655-2.523,3.563-4.875,5.686-7.021c7.398-7.471,17.413-12.408,28.688-13.238l0.115-0.667
			c-12.133,0.864-23.457,6.517-31.455,15.811C1199.807,764.544,1198.605,766.139,1197.523,767.794 M1199.316,855.058
			c-0.207,0.105-0.415,0.207-0.619,0.309l2.589,17.65l0.366,0.138c9.244,3.454,20.021,5.208,32.036,5.208
			c6.833,0,13.93-0.586,21.026-1.724l-0.198-0.631c-18.391,2.934-37.354,2.243-52.634-3.471L1199.316,855.058z M1265.491,761.322
			l-0.417,0.536c5.671,7.123,8.787,16.334,8.007,26.197l-0.559,17.713l0.661-0.141l0.556-17.549
			C1274.499,778.452,1271.513,768.837,1265.491,761.322 M1271.581,835.482l-0.823,25.917c0.222,0.023,0.438,0.047,0.655,0.073
			l0.829-26.178C1272.016,835.357,1271.795,835.421,1271.581,835.482"/>
		<path clip-path="url(#SVGID_4_)" fill="#F4BCC7" d="M1228.724,728.158l-3.321,27.503c5.505,4.602,11.479,5.323,17.92,2.164
			l3.321-27.503L1228.724,728.158z"/>
		<path clip-path="url(#SVGID_4_)" fill="#EA8096" d="M1228.421,730.649l-0.824,6.822c2.501,1.931,5.487,3.287,8.771,3.842
			c0.185,0.028,0.371,0.058,0.558,0.079c3.104,0.375,6.237-0.455,8.656-2.287l0.759-6.292L1228.421,730.649z"/>
		<path clip-path="url(#SVGID_4_)" fill="#F4BCC7" d="M1224.419,701.369l-1.62,16.814l-0.271,2.814
			c-0.78,8.906,5.414,16.917,14.234,18.411c1.288,0.219,2.65,0.177,3.981-0.152c1.316-0.326,2.601-0.927,3.704-1.84
			c2.399-1.971,4.087-4.255,5.679-6.646c0.317-0.479,0.634-0.955,0.938-1.437c2.608-4.081,4.666-8.199,4.949-13.094l-0.173-14.423
			l-25.33-6.472L1224.419,701.369z"/>
		<path clip-path="url(#SVGID_4_)" fill="#050F64" d="M1250.096,701.792c0,0-12.004-5.181-19.509-1.785
			c-3.837,1.736-6.127,8.966-7.873,19.053c0,0-7.019-14.235,2.425-25.273s30.174-10.021,33.359,3.835L1250.096,701.792z"/>
		<path clip-path="url(#SVGID_4_)" fill="#050F64" d="M1250.096,701.792c0,0,5.063,7.935,1.688,21.142c0,0,5.777,3.082,7.359-1.915
			c1.582-4.996,6.563-18.906-3.948-23.63L1250.096,701.792z"/>
		<path clip-path="url(#SVGID_4_)" fill="#F4BCC7" d="M1249.479,718.666c-0.436,3.602,2.132,6.873,5.732,7.308
			c3.602,0.435,6.872-2.131,7.307-5.732c0.436-3.601-2.132-6.873-5.732-7.308C1253.184,712.498,1249.913,715.065,1249.479,718.666"
			/>
		
			<rect x="995.458" y="686.4" transform="matrix(0.6941 -0.7199 0.7199 0.6941 -206.7328 949.9985)" clip-path="url(#SVGID_4_)" fill="#050F64" width="37.997" height="63.707"/>
		
			<rect x="1078.773" y="710.667" transform="matrix(0.6941 -0.7199 0.7199 0.6941 -242.7643 1044.1807)" clip-path="url(#SVGID_4_)" fill="#155BCD" width="56.996" height="194.152"/>
		<path clip-path="url(#SVGID_4_)" fill="#155BCD" d="M1001.467,504.652c-57.461-55.407-149.277-53.729-204.677,3.732
			c-55.406,57.453-53.729,149.278,3.731,204.677c52.828,50.938,134.688,53.627,190.597,9.086c4.9-3.912,9.611-8.185,14.081-12.818
			c4.469-4.634,8.562-9.486,12.294-14.535C1059.971,637.301,1054.295,555.582,1001.467,504.652 M826.896,685.706
			c-42.384-40.855-43.615-108.572-2.76-150.956c40.863-42.376,108.58-43.607,150.956-2.752
			c42.384,40.864,43.615,108.581,2.76,150.957C936.99,725.338,869.272,726.568,826.896,685.706"/>
		<g opacity="0.5" clip-path="url(#SVGID_4_)">
			<g>
				<defs>
					<rect id="SVGID_5_" x="794.284" y="502.144" width="213.426" height="213.422"/>
				</defs>
				<clipPath id="SVGID_6_">
					<use xlink:href="#SVGID_5_"  overflow="visible"/>
				</clipPath>
				<path clip-path="url(#SVGID_6_)" fill="#84A9FF" d="M977.853,682.954c-40.863,42.384-108.579,43.615-150.956,2.752
					c-42.384-40.856-43.615-108.572-2.759-150.956c40.862-42.376,108.579-43.607,150.955-2.752
					C1017.478,572.862,1018.707,640.578,977.853,682.954"/>
			</g>
		</g>
		<path clip-path="url(#SVGID_4_)" fill="#F4BCC7" d="M1107.448,849.314c0.049-2.508,1.811-4.554,4.021-4.669
			c6.542-0.383,13.065-0.813,19.523-1.391c6.457-0.575,12.859-1.272,19.078-2.293c6.214-1.022,12.231-2.387,17.799-4.328
			c5.577-1.936,10.668-4.447,15.305-7.594c4.619-3.195,8.841-7.027,12.841-11.351c3.998-4.32,7.77-9.108,11.423-14.124
			c0.905-1.273,1.828-2.498,2.718-3.804l2.68-3.878c1.76-2.646,3.528-5.259,5.256-7.965c3.479-5.354,6.888-10.853,10.288-16.375
			c4.468-6.9,14.596-8.211,22.287-2.753c7.677,5.447,9.775,15.51,4.477,22.115c-4.303,5.097-8.634,10.191-13.128,15.258
			c-2.215,2.536-4.532,5.057-6.817,7.574l-3.529,3.755c-1.162,1.253-2.413,2.485-3.615,3.727
			c-4.884,4.939-10.037,9.802-15.721,14.338c-5.673,4.526-11.936,8.711-18.732,12.001c-6.819,3.258-14.068,5.5-21.197,6.812
			c-7.145,1.324-14.166,1.8-21.018,1.896c-6.856,0.088-13.574-0.194-20.234-0.598c-6.66-0.402-13.258-0.955-19.832-1.555
			C1109.095,853.926,1107.399,851.823,1107.448,849.314"/>
		<path clip-path="url(#SVGID_4_)" fill="#EA8096" d="M463.015,744.534c-2.191,0.215-3.868,1.679-3.897,3.324
			c-0.108,4.896-0.636,9.727-1.796,14.117c-0.581,2.188-1.33,4.26-2.282,6.062l-0.355,0.672l-0.385,0.633
			c-0.242,0.434-0.537,0.803-0.798,1.198c-0.573,0.732-1.139,1.439-1.778,1.992c-0.629,0.566-1.265,1.069-1.951,1.447
			c-0.678,0.392-1.368,0.715-2.113,0.939c-0.355,0.139-0.756,0.204-1.126,0.311c-0.401,0.063-0.776,0.16-1.194,0.192
			c-0.803,0.116-1.67,0.128-2.551,0.112c-1.781-0.066-3.686-0.365-5.645-0.869c-1.963-0.515-3.971-1.222-5.98-2.068
			c-4.024-1.686-8.041-3.957-11.962-6.458c-1.961-1.271-3.902-2.606-5.822-3.993c-1.915-1.41-3.819-2.835-5.691-4.345
			c-7.503-5.986-14.656-12.657-21.551-19.636c-2.242-2.154-5.403-2.867-8.728-2.308c-3.314,0.554-6.802,2.399-9.573,5.448
			c-2.771,3.05-4.244,6.706-4.336,10.155c-0.089,3.438,1.222,6.656,3.918,8.71c8.675,6.235,17.651,12.163,27.193,17.442
			c2.376,1.327,4.819,2.585,7.274,3.816c2.473,1.218,4.987,2.383,7.549,3.483c5.155,2.168,10.489,4.113,16.233,5.439
			c2.87,0.661,5.837,1.172,8.926,1.422c3.093,0.236,6.323,0.206,9.634-0.295c1.659-0.271,3.329-0.627,4.992-1.189
			c0.829-0.249,1.653-0.599,2.468-0.927c0.809-0.381,1.619-0.736,2.395-1.198c3.139-1.734,5.893-4.219,7.918-6.98
			c1.046-1.372,1.857-2.832,2.599-4.286c0.332-0.735,0.693-1.465,0.961-2.204l0.422-1.105l0.36-1.104
			c0.937-2.948,1.427-5.863,1.687-8.71c0.497-5.696,0.12-11.151-0.647-16.438C467.135,745.537,465.19,744.32,463.015,744.534"/>
		<path clip-path="url(#SVGID_4_)" fill="#155BCD" d="M385.831,737.067c6.169,6.104,12.533,11.946,19.135,17.304
			c3.299,2.681,6.664,5.216,10.081,7.576c3.417,2.366,6.897,4.517,10.401,6.387c3.495,1.836,7.041,3.41,10.426,4.388
			c3.38,0.996,6.587,1.389,9.07,1.035c1.263-0.155,2.332-0.498,3.348-1.016c1.017-0.513,1.958-1.297,2.876-2.336
			c1.819-2.107,3.273-5.41,4.167-9.122l14.542,2.312c-0.249,2.6-0.687,5.262-1.449,7.974c-0.768,2.707-1.845,5.479-3.464,8.161
			c-1.624,2.668-3.765,5.265-6.434,7.344c-2.65,2.094-5.729,3.68-8.832,4.643c-3.107,0.984-6.229,1.454-9.199,1.571
			c-2.978,0.12-5.835-0.075-8.579-0.446c-5.495-0.75-10.528-2.21-15.35-3.908c-4.797-1.729-9.372-3.738-13.771-5.933
			c-4.404-2.192-8.665-4.545-12.802-7.026c-8.278-4.958-16.137-10.355-23.745-15.997c-2.495-1.867-3.573-4.969-3.271-8.374
			c0.302-3.413,1.968-7.119,4.864-10.306c2.893-3.184,6.407-5.224,9.667-5.979C380.78,734.56,383.802,735.068,385.831,737.067"/>
		<path clip-path="url(#SVGID_4_)" fill="#050F64" d="M415.783,1161.938l46.324-2.189c-0.11-1.584-0.492-3.094-1.508-4.28
			c-1.164-1.371-2.981-2.029-4.76-2.252c-1.784-0.221-3.595-0.054-5.391-0.057c-4.405-0.008-8.806-1.061-12.74-3.047
			c-2.054-1.028-3.993-2.322-6.191-3.007l-12.61,0.928c-1.639,1.942-2.635,4.435-3.052,6.967
			C415.475,1157.291,415.532,1159.624,415.783,1161.938"/>
		<path clip-path="url(#SVGID_4_)" fill="#050F64" d="M272.684,1145.975l43.542,15.963c0.513-1.503,0.747-3.043,0.272-4.53
			c-0.542-1.715-1.96-3.028-3.513-3.923c-1.559-0.896-3.293-1.445-4.947-2.146c-4.056-1.717-7.704-4.394-10.558-7.753
			c-1.494-1.745-2.778-3.688-4.539-5.174l-11.981-4.04c-2.265,1.155-4.15,3.066-5.517,5.237
			C274.204,1141.573,273.35,1143.745,272.684,1145.975"/>
		<path clip-path="url(#SVGID_4_)" fill="#050F64" d="M420.964,1006.899c-0.646-7.189-1.731-14.332-3.248-21.39
			c-5.324-24.756-18.897-87.724-18.897-87.724c-0.001-0.009-99.692,7.962-99.692,7.962l8.77,92.917l-28.123,135.695l15.089,5.839
			l47.013-135.97c0.099-0.361,12.772-53.859,12.772-53.859l30.487,53.585l31.253,144.263l17.163-1.263L420.964,1006.899z"/>
		<path clip-path="url(#SVGID_4_)" fill="#155BCD" d="M299.127,905.748c33.413,10.728,61.981,10.649,99.692-7.962l-1.455-101.09
			l-0.218-12.997l-0.083-4.771l-0.154-9.188c-0.016-1.285-0.089-2.558-0.221-3.808c-1.591-15.332-11.667-27.969-25.242-33.438
			c-1.319-0.534-2.671-0.998-4.053-1.386c-4.724-1.348-9.776-1.847-14.984-1.349c-1.371,0.134-2.725,0.317-4.06,0.56
			c-2.897,0.515-5.699,1.284-8.395,2.277c-15.202,5.587-26.816,18.323-30.955,34.024c-0.995,3.766-1.554,7.708-1.633,11.756
			l-0.024,1.256l-0.085,4.772l-0.126,6.035L299.127,905.748z"/>
		<path clip-path="url(#SVGID_4_)" fill="#84A9FF" d="M398.194,796.683l-0.008-0.487l-0.827-0.166l0.008,0.67l0.968,67.38h0.827
			L398.194,796.683z M330.915,736.037c-11.11,6.734-19.341,17.579-22.716,30.377c-0.1,0.389-0.199,0.777-0.29,1.166l0.811,0.182
			c0.083-0.389,0.182-0.761,0.281-1.142c3.317-12.582,11.433-23.262,22.344-29.871L330.915,736.037z M299.66,886.018h0.836
			l6.188-89.137l-0.819-0.182L299.66,886.018z M397.739,769.731c-0.016-1.308-0.091-2.614-0.231-3.889
			c-1.44-13.938-9.787-26.05-22.096-32.428l-0.273,0.786c11.68,6.138,20.11,17.819,21.55,31.732
			c0.132,1.249,0.206,2.523,0.223,3.806l0.149,9.19l0.025,1.415h0.835L397.739,769.731z M399.402,881.054h-0.819l0.24,16.735
			c-36.498,18.01-64.435,18.663-96.482,8.959l-0.249,0.786c14.089,4.277,26.431,6.271,38.583,6.271
			c9.398,0,18.746-1.216,28.383-3.73c9.638-2.516,19.573-6.337,30.129-11.549l0.463-0.231L399.402,881.054z"/>
		<path clip-path="url(#SVGID_4_)" fill="#FF654F" d="M356.709,745.481c1.837-0.418,3.674-0.842,5.51-1.269
			c9.329,38.287,13.275,78.731,11.096,120.066c-2.919,3.969-5.894,7.862-8.922,11.684c-2.232-4.237-4.528-8.405-6.884-12.503
			C363.005,823.759,362.62,784.015,356.709,745.481"/>
		<path clip-path="url(#SVGID_4_)" fill="#F4BCC7" d="M369.837,708.892l-2.929,29.576c-6.863,3.547-13.312,2.921-19.348-1.877
			l2.929-29.577L369.837,708.892z"/>
		<path clip-path="url(#SVGID_4_)" fill="#EA8096" d="M369.837,708.892l-1.325,13.378c-1.409,0.392-2.897,0.587-4.43,0.568
			c-0.491-0.008-0.98-0.035-1.467-0.083c-5.326-0.517-10.084-3.461-12.912-7.804l0.786-7.938L369.837,708.892z"/>
		<path clip-path="url(#SVGID_4_)" fill="#F4BCC7" d="M380.424,691.656l-2.382,17.295c-0.951,6.909-6.929,12.031-13.931,11.937
			c-6.362-0.087-12.065-4.022-14.26-9.969c-1.454-3.937-2.674-8.454-3.801-13.204c-1.801-7.59,0.62-15.685,6.563-20.774
			c5.065-4.338,10.983-5.263,17.817-2.522C377.333,677.186,381.436,684.309,380.424,691.656"/>
		<path clip-path="url(#SVGID_4_)" fill="#050F64" d="M377.533,682.123c0,0,2.998,5.985,1.913,16.632c0,0,2.914-10.586,1.439-19.124
			L377.533,682.123z"/>
		<path clip-path="url(#SVGID_4_)" fill="#050F64" d="M339.802,697.283c0,0-8.728-14.461,1.626-24.804
			c11.159-11.148,18.099-9.6,25.525-7.228c9.392,3.001,14.362,6.526,18.037,5.909c1.964-0.33,3.758-1.895,4.024-0.776
			c0.265,1.119,0.475,7.666-5.235,12.289c-5.711,4.624-12.831,3.575-19.689-0.371c-6.858-3.945-10.196-3.638-13.336,0.554
			c-3.332,4.444,0.553,12.981,0.553,12.981l-2.195,0.686C349.112,696.523,341.158,691.414,339.802,697.283"/>
		<path clip-path="url(#SVGID_4_)" fill="#F4BCC7" d="M353.598,696.88c-0.352,3.549-3.882,6.11-7.885,5.722
			c-4.004-0.388-6.965-3.58-6.613-7.129c0.351-3.549,3.882-6.111,7.885-5.722C350.989,690.139,353.95,693.33,353.598,696.88"/>
		<path clip-path="url(#SVGID_4_)" fill="#84A9FF" d="M339.954,732.598l14.301,23.431l5.216-11.159l11.059,9.572l0.916-21.947
			c-1.318-0.534-2.434-0.935-3.815-1.324l-8.398,8.656l-11.055-9.476C345.281,730.865,342.65,731.604,339.954,732.598"/>
		<path clip-path="url(#SVGID_4_)" fill="#F4BCC7" d="M303.941,913.339l-2.415-9.616l-9.809,3.456l4.005,9.057
			c0.97,2.335,3.428,3.562,5.602,2.796C303.503,918.263,304.649,915.767,303.941,913.339"/>
		<path clip-path="url(#SVGID_4_)" fill="#155BCD" d="M291.121,907.559l11.583-3.629c-3.24-13.128-6.268-26.253-7.737-39.117
			c-0.725-6.426-1.027-12.769-0.718-18.936c0.313-6.168,1.207-12.159,2.822-17.93c3.193-11.546,9.074-22.297,16.376-32.504
			c3.68-5.095,7.713-10.043,11.933-14.896l3.211-3.617l3.312-3.568l1.658-1.781l1.708-1.758l3.412-3.512
			c0.164-0.17,0.331-0.346,0.488-0.521c1.391-1.556,2.387-3.335,3.007-5.231c0.611-1.9,0.91-3.884,0.798-5.888
			c-0.209-3.997-1.901-8.011-5.104-11.028l-0.03-0.026c-3.3-3.093-7.552-4.479-11.758-4.167c-4.218,0.279-8.324,2.364-11.267,5.988
			l-3.231,4.237l-1.611,2.117l-1.579,2.165c-1.05,1.447-2.108,2.876-3.146,4.334l-3.069,4.427
			c-4.04,5.958-7.921,12.093-11.477,18.524c-3.527,6.456-6.736,13.201-9.354,20.28c-2.619,7.07-4.622,14.486-5.756,22.036
			c-1.149,7.549-1.343,15.195-0.817,22.615c0.527,7.43,1.775,14.64,3.421,21.602c1.65,6.966,3.69,13.699,5.897,20.3
			C286.303,894.674,288.685,901.144,291.121,907.559"/>
		<path clip-path="url(#SVGID_4_)" fill="#84A9FF" d="M331.137,774.184l0.581,0.264l0.629-0.676l1.655-1.779l5.113-5.26
			c0.169-0.175,0.343-0.357,0.504-0.541c1.414-1.579,2.467-3.411,3.133-5.446c0.238-0.741,0.427-1.48,0.562-2.22l-0.625,0.05
			c-0.133,0.67-0.307,1.331-0.513,1.984c-0.619,1.894-1.615,3.673-3.007,5.228c-0.157,0.179-0.325,0.354-0.489,0.524l-3.412,3.512
			l-1.708,1.758l-1.658,1.778L331.137,774.184z M313.902,794.818l0.547,0.278c2.414-3.307,5.105-6.726,8.147-10.354l-0.503-0.349
			C319.233,787.811,316.482,791.279,313.902,794.818 M313.061,746.737l0.297,0.61l1.458-1.91c2.941-3.626,7.047-5.71,11.265-5.989
			c4.208-0.313,8.458,1.074,11.757,4.166l0.032,0.028c2.459,2.316,4.029,5.222,4.72,8.256l0.612-0.042
			c-0.725-3.298-2.42-6.301-4.918-8.655l-0.031-0.03c-1.647-1.54-3.544-2.704-5.634-3.446c-2.114-0.752-4.329-1.049-6.583-0.88
			c-4.462,0.295-8.729,2.56-11.692,6.21L313.061,746.737z M278.033,809.656l0.603,0.096c0.804-2.786,1.714-5.534,2.713-8.231
			c2.618-7.079,5.827-13.823,9.351-20.281c3.557-6.43,7.44-12.565,11.477-18.522l3.07-4.428c0.021-0.032,0.044-0.062,0.065-0.093
			l-0.552-0.264c-0.001,0.003-0.005,0.005-0.006,0.008l-3.073,4.43c-4.512,6.656-8.276,12.73-11.51,18.578
			c-3.878,7.097-6.947,13.756-9.391,20.364C279.75,804.091,278.833,806.875,278.033,809.656 M274.629,851.156
			c0.603,5.349,1.587,10.876,2.978,16.756c1.48,6.253,3.357,12.72,5.911,20.354c0.904,2.696,1.859,5.449,2.923,8.412l0.416-0.638
			c-0.945-2.636-1.867-5.291-2.764-7.965c-2.208-6.602-4.249-13.337-5.897-20.301c-1.286-5.436-2.328-11.024-2.971-16.751
			C275.025,851.072,274.827,851.114,274.629,851.156 M295.687,870.327l0.573-0.284c-0.259-1.772-0.491-3.542-0.691-5.3
			c-0.775-6.847-1.008-13.01-0.715-18.837c0.32-6.31,1.261-12.298,2.799-17.795c0.784-2.835,1.747-5.677,2.893-8.537l-0.506-0.367
			c-1.154,2.864-2.152,5.777-2.971,8.741c-1.613,5.769-2.507,11.762-2.822,17.929c-0.307,6.166-0.006,12.511,0.719,18.935
			C295.174,866.646,295.417,868.484,295.687,870.327 M296.569,875.851c1.606,9.296,3.815,18.686,6.135,28.078l-5.355,1.678
			c-0.031,0.214-0.065,0.436-0.099,0.665l6.177-1.936l-0.135-0.552c-2.138-8.659-4.446-18.329-6.13-28.073L296.569,875.851z"/>
		<path clip-path="url(#SVGID_4_)" fill="#FFBD00" d="M472.369,753.836l-0.563,3.129l-16.175,3.321
			c-1.127,0.23-2.205-0.568-2.31-1.713l-2.605-28.204l-0.03-0.328l12.874-2.229l0.014,0.197l0.202,2.789l1.425,19.728
			L472.369,753.836z"/>
		<polygon clip-path="url(#SVGID_4_)" fill="#050F64" points="435.276,711.398 438.114,725.221 447.756,725.953 443.85,706.926 		
			"/>
		<path clip-path="url(#SVGID_4_)" fill="#155BCD" d="M466.457,698.443l4.964,24.177l-23.066,4.736
			c-1.973,0.404-3.907-0.635-4.705-2.394v-0.001c-0.13-0.283-0.229-0.584-0.294-0.902l-3.261-15.882
			c-0.47-2.292,1.005-4.528,3.296-4.999L466.457,698.443z"/>
		<path clip-path="url(#SVGID_4_)" fill="#155BCD" d="M467.842,723.354l-1.079,4.585l-0.279,1.187
			c-0.24,1.016-1.164,1.724-2.208,1.688l-0.5-0.016l-6.299-0.208l-6.761-0.221l-0.198-0.008c-0.708-0.022-1.307-0.528-1.449-1.221
			l-0.381-1.854L467.842,723.354z"/>
		<path clip-path="url(#SVGID_4_)" fill="#050F64" d="M464.246,737.121l0.62,8.743l0.703-0.145c1.33-0.272,2.252-1.489,2.156-2.844
			l-0.234-3.294C467.375,737.949,465.849,736.792,464.246,737.121"/>
		<path clip-path="url(#SVGID_4_)" fill="#FFBD00" d="M498.368,674.048l11.985,58.373c-2.424-1.35-4.864-2.573-7.317-3.664
			c-0.16-0.072-0.32-0.145-0.48-0.213c-0.321-0.14-0.642-0.278-0.963-0.414c-0.161-0.069-0.322-0.137-0.482-0.201
			c-0.161-0.068-0.322-0.135-0.483-0.199c-0.161-0.067-0.321-0.131-0.482-0.195c-0.483-0.192-0.967-0.381-1.451-0.563
			c-0.139-0.053-0.277-0.104-0.415-0.155c-0.507-0.189-1.016-0.371-1.525-0.547c-0.162-0.058-0.324-0.113-0.486-0.167
			c-0.131-0.045-0.263-0.089-0.393-0.132c-0.578-0.193-1.158-0.378-1.738-0.556c-0.164-0.05-0.328-0.1-0.493-0.148
			c-0.202-0.061-0.403-0.12-0.605-0.178s-0.404-0.114-0.606-0.172c-0.022-0.006-0.044-0.012-0.067-0.018
			c-0.383-0.106-0.765-0.208-1.148-0.308c-0.202-0.053-0.405-0.104-0.609-0.154c-0.601-0.151-1.206-0.292-1.81-0.426
			c-0.015-0.004-0.03-0.008-0.045-0.011c-0.195-0.043-0.389-0.084-0.582-0.125c-0.205-0.043-0.408-0.085-0.612-0.126
			c-0.439-0.088-0.88-0.172-1.322-0.251c-0.138-0.023-0.276-0.049-0.414-0.072c-0.361-0.063-0.721-0.121-1.083-0.178
			c-0.086-0.014-0.173-0.026-0.26-0.039c-0.05-0.008-0.1-0.016-0.15-0.022c-0.348-0.052-0.696-0.102-1.044-0.146
			c-0.868-0.114-1.737-0.211-2.609-0.289c-0.134-0.012-0.267-0.022-0.401-0.033c-0.426-0.037-0.854-0.067-1.282-0.094
			c-0.145-0.009-0.289-0.018-0.434-0.025c-0.032-0.001-0.063-0.003-0.096-0.005c-0.121-0.008-0.241-0.013-0.361-0.018
			c-0.141-0.008-0.279-0.014-0.419-0.019c-0.205-0.01-0.41-0.017-0.616-0.022c-0.21-0.007-0.42-0.012-0.631-0.017
			c-0.208-0.005-0.415-0.008-0.624-0.009c-0.187-0.003-0.374-0.005-0.562-0.005c-0.048,0-0.098-0.001-0.146,0
			c-0.147,0-0.294,0.002-0.44,0.003c-0.606,0.005-1.212,0.019-1.82,0.042c-0.133,0.005-0.267,0.011-0.402,0.017
			c-0.007,0-0.013,0-0.02,0c-0.165,0.008-0.329,0.016-0.495,0.025c-0.169,0.008-0.338,0.018-0.508,0.027
			c-0.654-0.839-1.253-1.7-1.795-2.581c-3.796-6.173-4.853-13.372-3.169-21.595c10.012-2.732,18.78-8.42,26.305-17.068
			C494.714,679.133,496.583,676.689,498.368,674.048"/>
		<path clip-path="url(#SVGID_4_)" fill="#FFBD00" d="M515.654,700.916c3.309,16.118,0.936,30.225-5.302,31.506
			c-2.333,0.479-4.874-0.903-7.316-3.665c-4.09-4.623-7.898-13.111-9.97-23.202c-1.019-4.964-1.499-9.737-1.494-14.003
			c0.005-3.895,0.415-7.366,1.19-10.177c1.131-4.107,3.041-6.801,5.605-7.326C504.605,672.768,512.344,684.798,515.654,700.916"/>
		<path clip-path="url(#SVGID_4_)" fill="#DCA000" d="M514.403,701.174c0.68,3.312,1.128,6.523,1.357,9.526
			c0.14,1.844,0.199,3.606,0.177,5.266c-0.002,0.287-0.009,0.57-0.018,0.851c-0.066,2.248-0.283,4.288-0.642,6.051
			c-0.802,3.937-2.312,6.499-4.436,6.936c-3.555,0.729-7.877-4.692-11.169-13.201c-0.296-0.765-0.584-1.555-0.862-2.369
			c-0.063-0.187-0.127-0.375-0.19-0.563c-0.02-0.061-0.039-0.12-0.059-0.182c-0.099-0.3-0.197-0.603-0.293-0.909
			c-0.756-2.405-1.427-4.984-1.981-7.685c-0.647-3.149-1.083-6.209-1.321-9.084v-0.002c-0.88-10.626,0.945-18.737,4.882-19.545
			C504.851,675.235,511.367,686.388,514.403,701.174"/>
		<path clip-path="url(#SVGID_4_)" fill="#050F64" d="M504.998,696.698l2.524,12.295c-5.971,1.035-8.9,4.682-8.9,4.682l-0.003-0.006
			c-0.9-2.712-1.694-5.663-2.333-8.776c-0.647-3.148-1.083-6.208-1.321-9.083v-0.002
			C498.925,699.056,504.998,696.698,504.998,696.698"/>
		<path clip-path="url(#SVGID_4_)" fill="#FFBD00" d="M509.258,702.229c0.697,3.395-0.079,6.423-1.735,6.763
			c-1.655,0.34-3.562-2.137-4.259-5.532c-0.697-3.395,0.08-6.423,1.735-6.763C506.654,696.357,508.561,698.834,509.258,702.229"/>
		<path clip-path="url(#SVGID_4_)" fill="#050F64" d="M471.421,722.62l-23.066,4.735c-1.973,0.405-3.907-0.633-4.705-2.393v-0.001
			c0,0,4.454-1.029,18.13-3.722c2.486-0.49,5.156-0.863,7.846-1.202C470.169,720.919,470.767,721.78,471.421,722.62"/>
		<path clip-path="url(#SVGID_4_)" fill="#DCA000" d="M503.036,728.756c-0.16-0.071-0.321-0.144-0.481-0.212
			c-0.32-0.14-0.641-0.279-0.963-0.414c-0.16-0.067-0.321-0.135-0.482-0.202c-0.16-0.066-0.321-0.133-0.482-0.197
			c-0.161-0.066-0.322-0.131-0.482-0.195c-0.483-0.194-0.967-0.382-1.452-0.565c-0.138-0.052-0.276-0.104-0.415-0.154
			c-0.507-0.189-1.015-0.371-1.524-0.547c-0.162-0.057-0.324-0.112-0.486-0.166c-0.131-0.047-0.262-0.091-0.393-0.134
			c-0.578-0.192-1.158-0.377-1.739-0.554c-0.164-0.051-0.329-0.101-0.493-0.15c-0.201-0.061-0.403-0.118-0.605-0.177
			c-0.202-0.058-0.404-0.114-0.606-0.171c-0.021-0.007-0.043-0.013-0.066-0.019c-0.382-0.106-0.766-0.209-1.148-0.309
			c-0.203-0.053-0.406-0.104-0.609-0.153c-0.602-0.151-1.205-0.293-1.81-0.426c-0.016-0.005-0.031-0.008-0.046-0.01
			c-0.194-0.044-0.388-0.086-0.582-0.125c-0.204-0.044-0.408-0.086-0.611-0.127c-0.44-0.088-0.881-0.172-1.322-0.251
			c-0.139-0.023-0.276-0.049-0.415-0.072c-0.36-0.062-0.721-0.122-1.083-0.178c-0.086-0.014-0.173-0.027-0.259-0.039
			c-0.05-0.008-0.1-0.016-0.151-0.021c-0.348-0.054-0.696-0.103-1.044-0.147c-0.867-0.115-1.736-0.211-2.608-0.288
			c-0.134-0.013-0.268-0.023-0.401-0.035c-0.427-0.036-0.854-0.065-1.282-0.093c-0.144-0.009-0.29-0.018-0.434-0.024
			c-0.032-0.003-0.064-0.005-0.097-0.007c-0.12-0.006-0.241-0.013-0.361-0.017c-0.14-0.008-0.278-0.014-0.418-0.019
			c-0.205-0.011-0.41-0.018-0.616-0.022c-0.21-0.007-0.421-0.012-0.631-0.017c-0.208-0.004-0.416-0.008-0.625-0.01
			c-0.187-0.003-0.374-0.004-0.562-0.004c-0.048,0-0.097,0-0.145,0c-0.147,0-0.294,0.001-0.441,0.002
			c-0.605,0.006-1.212,0.02-1.819,0.043c-0.134,0.004-0.268,0.01-0.402,0.017c-0.007,0-0.013,0-0.021,0.001
			c-0.164,0.007-0.329,0.014-0.494,0.023c-0.17,0.009-0.339,0.019-0.509,0.029c-0.654-0.84-1.252-1.701-1.794-2.582
			c0.411-0.052,0.822-0.103,1.233-0.152c11.712-1.439,23.331-2.49,21.339-10.04c-1.295-4.904-1.111-12.279-0.627-18.295
			c-0.005,4.267,0.475,9.039,1.494,14.003C495.138,715.646,498.946,724.133,503.036,728.756"/>
		<path clip-path="url(#SVGID_4_)" fill="#DCA000" d="M457.478,730.591c-1.813,1.681-3.121,4.357-3.172,8.571
			c-0.168,14.159-1.097,19.928,2.636,20.854l-1.31,0.27c-1.127,0.23-2.205-0.568-2.31-1.713l-2.606-28.204L457.478,730.591z"/>
		<path clip-path="url(#SVGID_4_)" fill="#050F64" d="M467.842,723.354l-1.079,4.585c-0.892-0.062-2.002-0.072-3.189,0.069
			c-2.043,0.24-4.314,0.929-6.097,2.582l-6.761-0.221l-0.198-0.008c-0.708-0.022-1.307-0.528-1.449-1.221l-0.381-1.854
			L467.842,723.354z"/>
		<path clip-path="url(#SVGID_4_)" fill="#050F64" d="M984.246,418.391l-47.648,0.329c0.023-1.631,0.332-3.202,1.308-4.475
			c1.119-1.471,2.947-2.249,4.759-2.575c1.819-0.326,3.687-0.255,5.528-0.358c4.52-0.253,8.977-1.577,12.902-3.835
			c2.05-1.168,3.967-2.604,6.185-3.429l12.989,0.251c1.79,1.903,2.95,4.405,3.518,6.978
			C984.305,413.606,984.375,416.004,984.246,418.391"/>
		<path clip-path="url(#SVGID_4_)" fill="#050F64" d="M1040.176,418.186l-47.646,0.534c0.017-1.632,0.319-3.204,1.289-4.481
			c1.113-1.476,2.937-2.261,4.747-2.595c1.817-0.334,3.685-0.271,5.526-0.382c4.519-0.273,8.97-1.616,12.886-3.89
			c2.046-1.178,3.956-2.621,6.17-3.456l12.989,0.195c1.799,1.895,2.97,4.392,3.55,6.963
			C1040.213,413.402,1040.295,415.799,1040.176,418.186"/>
		<path clip-path="url(#SVGID_4_)" fill="#050F64" d="M1096.119,246.566c-1.964-12.665-13.823-21.339-26.488-19.375
			c-0.009,0.001-0.017,0.003-0.026,0.005l-97.47,9.83c-0.09,0.007-0.18,0.009-0.27,0.017c-0.242,0.022-0.482,0.051-0.72,0.083
			l-0.39,0.039l0.001,0.017c-8.557,1.315-14.883,8.652-14.996,17.241l0.003,0.028c-0.006,0.551,0.017,1.107,0.061,1.667l0.012,0.133
			h-0.007l9.654,148.372l14.304-0.324l10.049-131.848l79.499,0.554c2.383,0.401,4.866,0.439,7.384,0.052h0.022v-0.003
			c0.001,0,0.002-0.001,0.003-0.001C1089.408,271.089,1098.083,259.23,1096.119,246.566"/>
		<path clip-path="url(#SVGID_4_)" fill="#EA8096" d="M941.91,199.163l9.34-3.175l2.409,10.064l-9.731,1.543
			c-2.475,0.45-4.827-0.941-5.36-3.171C938.032,202.188,939.499,199.882,941.91,199.163"/>
		<path clip-path="url(#SVGID_4_)" fill="#FFFFFF" d="M953.664,206.755l-3.223-11.639c12.719-4.382,25.323-8.939,36.865-14.659
			c5.761-2.863,11.225-6.036,16.212-9.625c4.985-3.592,9.508-7.575,13.458-12.04c7.925-8.904,13.733-19.624,18.318-31.238
			c2.27-5.826,4.228-11.869,6.004-18.015l1.289-4.637l1.193-4.696l0.594-2.346l0.546-2.377l1.092-4.747
			c0.053-0.229,0.11-0.463,0.173-0.69c0.549-2.002,1.497-3.796,2.747-5.337c1.258-1.537,2.754-2.858,4.489-3.847
			c3.453-1.984,7.721-2.738,11.972-1.689l0.039,0.009c4.366,1.089,7.82,3.893,9.832,7.576c2.043,3.675,2.518,8.232,1.079,12.649
			l-1.796,4.987l-0.899,2.491l-0.956,2.488c-0.643,1.658-1.265,3.314-1.924,4.969l-2.041,4.955
			c-2.797,6.594-5.828,13.15-9.282,19.594c-3.489,6.434-7.394,12.758-11.896,18.769c-4.494,6.006-9.609,11.685-15.306,16.71
			c-5.688,5.036-11.973,9.328-18.456,12.895c-6.494,3.572-13.192,6.423-19.898,8.806c-6.712,2.383-13.442,4.315-20.149,6.035
			C967.031,203.822,960.341,205.326,953.664,206.755"/>
		<path clip-path="url(#SVGID_4_)" fill="#155BCC" d="M1043.782,100.206l0.591-2.346l0.547-2.376l1.093-4.748
			c0.054-0.229,0.108-0.463,0.174-0.691c0.548-2.003,1.496-3.796,2.745-5.336c0.434-0.525,0.892-1.028,1.38-1.5l-0.295-0.55
			c-0.545,0.512-1.062,1.069-1.552,1.668c-1.342,1.656-2.304,3.526-2.859,5.56c-0.066,0.234-0.125,0.478-0.18,0.713l-1.635,7.113
			l-0.593,2.344l-0.225,0.891l0.534,0.342L1043.782,100.206z M1039.858,114.362l-0.563-0.232c-1.39,4.502-2.793,8.597-4.252,12.399
			l0.527,0.307C1037.136,122.769,1038.549,118.597,1039.858,114.362 M1076.918,99.593c1.449-4.447,1.037-9.235-1.125-13.124
			c-1.077-1.974-2.521-3.665-4.29-5.025c-1.75-1.346-3.746-2.302-5.923-2.847l-0.043-0.009c-3.315-0.816-6.74-0.611-9.888,0.563
			l0.295,0.535c2.909-1.061,6.185-1.318,9.448-0.514l0.041,0.012c4.365,1.087,7.818,3.889,9.83,7.574
			c2.045,3.676,2.521,8.232,1.079,12.648l-0.81,2.249l0.67-0.081L1076.918,99.593z M1048.031,158.02
			c4.202-5.61,8.108-11.771,11.945-18.844c3.14-5.86,6.183-12.285,9.309-19.65l2.043-4.961c0.002-0.002,0.002-0.006,0.004-0.009
			l-0.52-0.318c-0.014,0.034-0.027,0.07-0.042,0.104l-2.043,4.957c-2.798,6.59-5.827,13.147-9.28,19.592
			c-3.492,6.433-7.396,12.756-11.897,18.767c-1.716,2.291-3.521,4.535-5.413,6.712l0.404,0.452
			C1044.434,162.652,1046.266,160.382,1048.031,158.02 M1009.489,189.508c-5.132,2.555-10.364,4.703-15.601,6.563
			c-6.71,2.384-13.441,4.315-20.15,6.035c-2.718,0.695-5.435,1.358-8.147,1.992l-0.309,0.691c3.051-0.711,5.866-1.399,8.608-2.099
			c7.758-1.989,14.176-3.913,20.201-6.053c5.665-2.013,10.813-4.175,15.609-6.56C1009.63,189.889,1009.558,189.701,1009.489,189.508
			 M987.309,180.457c5.76-2.863,11.224-6.038,16.21-9.624c4.984-3.593,9.508-7.577,13.459-12.04
			c2.034-2.285,3.929-4.692,5.699-7.203l-0.579-0.224c-1.771,2.502-3.626,4.841-5.572,7.027c-3.763,4.253-8.259,8.274-13.358,11.949
			c-4.712,3.391-9.987,6.524-16.126,9.574c-1.578,0.782-3.183,1.544-4.804,2.285l0.072,0.633
			C983.995,182.063,985.662,181.274,987.309,180.457 M977.015,184.508c-9.052,3.854-18.38,7.148-26.771,10.037l-0.533,0.186
			l1.719,6.206c0.173-0.151,0.34-0.3,0.503-0.441l-1.491-5.381c9.103-3.133,18.143-6.359,26.777-10.036L977.015,184.508z"/>
		<path clip-path="url(#SVGID_4_)" fill="#FFFFFF" d="M1152.938,247.989c-31.402,15.262-53.657-6.552-93.416-19.584l-11.114-85.904
			l-1.612-12.833l-0.588-4.711l-1.141-9.071c-0.165-1.268-0.271-2.533-0.317-3.782c-0.587-15.325,7.561-29.187,20.164-36.482
			c1.223-0.711,2.49-1.359,3.796-1.936c4.464-1.99,9.371-3.191,14.569-3.432c1.369-0.063,2.729-0.071,4.078-0.02
			c2.927,0.1,5.794,0.463,8.59,1.063c15.758,3.365,28.987,14.279,35.27,29.163c1.51,3.569,2.615,7.373,3.261,11.349l0.201,1.234
			l0.753,4.689l0.973,5.926L1152.938,247.989z"/>
		<path clip-path="url(#SVGID_4_)" fill="#155BCD" d="M1046.506,131.365l1.407,11.198l1.538,11.871h0.499l-1.542-11.931
			l-1.378-10.979L1046.506,131.365z M1044.249,112.125c0.05,1.258,0.155,2.546,0.324,3.824l0.2,1.578h0.499l-0.204-1.643
			c-0.165-1.268-0.27-2.531-0.32-3.779c-0.574-15.007,7.229-28.611,19.387-36.02l-0.285-0.409
			C1051.174,83.403,1043.681,97.282,1044.249,112.125 M1100.378,72.46c12.932,4.048,23.734,13.289,29.716,25.531l0.469-0.165
			c-6.026-12.391-16.924-21.737-30.024-25.836L1100.378,72.46z M1063.28,230.209c9.835,3.46,18.706,7.428,26.634,10.988
			c14.982,6.71,27.918,12.506,41.447,12.506h0.005c1.333,0,2.656-0.055,3.974-0.17c-0.034-0.164-0.064-0.329-0.095-0.494
			c-22.19,1.877-42.071-12.855-71.795-23.3L1063.28,230.209z M1051.897,173.361l4.903,37.892h0.498l-4.927-38.117L1051.897,173.361z
			 M1136.608,125.179l9.745,73.298l0.514,0.06l-9.78-73.503L1136.608,125.179z"/>
		<path clip-path="url(#SVGID_4_)" fill="#FF654F" d="M1081.254,86.342c-1.869-0.154-3.737-0.312-5.606-0.475
			c-3.808,39.023-2.01,79.413,5.945,119.821c3.433,3.498,6.91,6.916,10.429,10.254c1.604-4.487,3.28-8.915,5.024-13.282
			C1086.053,164.328,1080.848,125.128,1081.254,86.342"/>
		<path clip-path="url(#SVGID_4_)" fill="#F4BCC7" d="M1063.182,52.147l7.042,28.72c7.258,2.529,13.521,1.006,18.793-4.569
			l-7.042-28.72L1063.182,52.147z"/>
		<path clip-path="url(#SVGID_4_)" fill="#EA8096" d="M1063.182,52.147l3.185,12.991c1.443,0.188,2.937,0.171,4.444-0.062
			c0.481-0.078,0.96-0.174,1.433-0.289c5.173-1.257,9.445-4.825,11.621-9.501l-1.89-7.708L1063.182,52.147z"/>
		<path clip-path="url(#SVGID_4_)" fill="#F4BCC7" d="M1050.332,36.659l4.775,16.7c1.908,6.672,8.518,10.878,15.399,9.8
			c6.255-0.979,11.319-5.658,12.646-11.823c0.878-4.081,1.444-8.703,1.887-13.54c0.708-7.729-2.814-15.361-9.383-19.539
			c-5.6-3.561-11.559-3.64-17.904,0.019C1051.342,21.972,1048.303,29.564,1050.332,36.659"/>
		<path clip-path="url(#SVGID_4_)" fill="#050F64" d="M1051.84,26.863c0,0-2.112,6.316,0.453,16.65c0,0-4.358-10.016-4.105-18.633
			L1051.84,26.863z"/>
		<path clip-path="url(#SVGID_4_)" fill="#050F64" d="M1091.134,36.493c0,0,6.564-15.471-5.087-24.203
			c-12.559-9.411-19.176-6.911-26.157-3.53c-8.829,4.275-13.229,8.446-16.935,8.354c-1.981-0.049-3.97-1.338-4.073-0.199
			c-0.104,1.14,0.608,7.618,6.883,11.369c6.274,3.752,13.14,1.718,19.341-3.132c6.2-4.851,9.531-5.016,13.213-1.33
			c3.907,3.91,1.28,12.864,1.28,12.864l2.258,0.367C1081.856,37.053,1088.973,30.903,1091.134,36.493"/>
		<path clip-path="url(#SVGID_4_)" fill="#F4BCC7" d="M1077.488,38.034c0.845,3.446,4.682,5.473,8.571,4.528
			c3.889-0.945,6.355-4.505,5.512-7.951c-0.845-3.446-4.683-5.474-8.572-4.528C1079.111,31.028,1076.644,34.588,1077.488,38.034"/>
		<path clip-path="url(#SVGID_4_)" fill="#155BCC" d="M1095.947,71.297l-10.793,25.089l-6.706-10.258l-9.549,10.981l-3.985-21.488
			c1.223-0.711,2.266-1.263,3.572-1.84l9.487,7.345l9.558-10.886C1090.457,70.339,1093.152,70.697,1095.947,71.297"/>
		<path clip-path="url(#SVGID_4_)" fill="#F4BCC7" d="M1009.996,227.708l8.485-5.031l4.431,9.352l-9.203,3.514
			c-2.329,0.951-4.918,0.074-5.9-1.998C1006.824,231.467,1007.785,228.908,1009.996,227.708"/>
		<path clip-path="url(#SVGID_4_)" fill="#FFFFFF" d="M1023.063,232.716l-5.552-10.726c11.544-6.908,22.939-13.963,33.056-21.938
			c5.048-3.989,9.74-8.22,13.881-12.759c4.139-4.542,7.744-9.37,10.689-14.554c5.921-10.345,9.396-22.032,11.49-34.341
			c1.021-6.169,1.693-12.485,2.165-18.866l0.305-4.803l0.201-4.84l0.099-2.419l0.045-2.438l0.09-4.87
			c0.005-0.235,0.012-0.477,0.026-0.711c0.125-2.073,0.684-4.023,1.589-5.789c0.914-1.763,2.106-3.363,3.601-4.688
			c2.97-2.653,6.992-4.27,11.367-4.12l0.04,0.001c4.496,0.166,8.454,2.199,11.182,5.388c2.757,3.176,4.16,7.537,3.662,12.155
			l-0.73,5.251l-0.366,2.622l-0.423,2.632c-0.287,1.755-0.556,3.504-0.859,5.259l-0.978,5.269
			c-1.379,7.029-2.993,14.068-5.046,21.086c-2.09,7.014-4.607,14.007-7.774,20.816c-3.16,6.804-6.996,13.415-11.535,19.505
			c-4.529,6.1-9.794,11.594-15.405,16.42c-5.618,4.834-11.586,9.003-17.657,12.717c-6.077,3.714-12.264,6.991-18.473,10.055
			C1035.539,227.092,1029.301,229.943,1023.063,232.716"/>
		<path clip-path="url(#SVGID_4_)" fill="#155BCC" d="M1089.3,109.888l0.095-2.417l0.045-2.438l0.091-4.871
			c0.006-0.235,0.012-0.476,0.028-0.712c0.124-2.073,0.683-4.023,1.587-5.787c0.317-0.604,0.662-1.19,1.042-1.752l-0.402-0.477
			c-0.428,0.613-0.817,1.264-1.175,1.951c-0.971,1.897-1.528,3.925-1.653,6.03c-0.017,0.243-0.023,0.493-0.028,0.735l-0.134,7.297
			l-0.098,2.416l-0.037,0.918l0.594,0.225L1089.3,109.888z M1088.377,124.548l-0.6-0.11c-0.432,4.691-0.962,8.988-1.607,13.008
			l0.579,0.192C1087.442,133.336,1087.967,128.963,1088.377,124.548 M1121.598,102.462c0.503-4.65-0.887-9.25-3.805-12.61
			c-1.46-1.711-3.221-3.068-5.232-4.034c-1.99-0.956-4.141-1.481-6.382-1.565l-0.043-0.001c-3.413-0.116-6.724,0.791-9.562,2.589
			l0.399,0.462c2.628-1.638,5.78-2.563,9.14-2.45l0.042,0.004c4.496,0.164,8.452,2.195,11.181,5.386
			c2.758,3.177,4.161,7.537,3.66,12.155l-0.329,2.368l0.641-0.218L1121.598,102.462z M1105.366,165.587
			c2.956-6.355,5.511-13.189,7.808-20.9c1.865-6.382,3.52-13.296,5.062-21.147l0.978-5.275c0-0.002,0-0.007,0-0.009l-0.572-0.205
			c-0.007,0.036-0.012,0.074-0.021,0.11l-0.978,5.271c-1.38,7.026-2.994,14.067-5.045,21.085
			c-2.094,7.014-4.609,14.006-7.776,20.815c-1.207,2.595-2.511,5.163-3.915,7.683l0.489,0.359
			C1102.801,170.86,1104.125,168.262,1105.366,165.587 M1074.138,204.339c-4.495,3.558-9.175,6.737-13.914,9.636
			c-6.075,3.715-12.265,6.991-18.475,10.056c-2.517,1.24-5.038,2.448-7.563,3.628l-0.158,0.74c2.838-1.324,5.452-2.578,7.99-3.828
			c7.183-3.544,13.065-6.749,18.521-10.083c5.129-3.137,9.723-6.314,13.925-9.636
			C1074.354,204.683,1074.244,204.514,1074.138,204.339 M1050.567,200.051c5.047-3.988,9.74-8.22,13.881-12.757
			c4.136-4.542,7.743-9.373,10.69-14.554c1.519-2.655,2.878-5.4,4.093-8.222l-0.613-0.101c-1.218,2.814-2.551,5.485-4.005,8.025
			c-2.806,4.937-6.378,9.798-10.611,14.444c-3.911,4.29-8.429,8.442-13.808,12.691c-1.383,1.091-2.795,2.167-4.229,3.225l0.2,0.605
			C1047.657,202.305,1049.125,201.19,1050.567,200.051 M1041.329,206.136c-8.063,5.637-16.513,10.781-24.128,15.336l-0.483,0.292
			l2.96,5.719c0.138-0.183,0.271-0.363,0.4-0.535l-2.566-4.959c8.261-4.941,16.441-9.959,24.135-15.337L1041.329,206.136z"/>
		<path clip-path="url(#SVGID_4_)" fill="#050F64" d="M1152.706,246.317c-2.257-12.616-14.313-21.014-26.93-18.758
			c-0.008,0.002-0.017,0.005-0.025,0.006l-96.96,12.05c-0.045,0.004-0.092,0.005-0.137,0.009c-0.416,0.038-0.826,0.095-1.233,0.161
			l-0.262,0.033l0.001,0.01c-8.359,1.484-14.486,8.738-14.587,17.197l0.003,0.027c-0.006,0.551,0.018,1.107,0.062,1.668l0.012,0.132
			h-0.007l8.077,145.77l16.487-0.574l9.512-129.389l79.822-1.29c2.391,0.345,4.875,0.326,7.383-0.12h0.021l-0.001-0.003
			c0.001,0,0.003,0,0.003,0C1146.564,270.989,1154.962,258.933,1152.706,246.317"/>
		<path clip-path="url(#SVGID_4_)" fill="#155BCC" d="M1046.722,274.658l-9.514,129.39l-16.491,0.576l-2.569-46.384l-1.374,0.229
			l2.638,47.586l19.089-0.66l9.514-129.369l58.008-0.937V273.7L1046.722,274.658z M1012.648,258.854l-0.014-0.132
			c-0.043-0.562-0.063-1.118-0.063-1.673v-0.021c0.104-8.464,6.229-15.714,14.588-17.2v-0.014l0.257-0.027
			c0.41-0.07,0.82-0.126,1.236-0.16c0.049-0.007,0.091-0.007,0.139-0.014l5.541-0.688l-0.291-1.368l-5.402,0.673l-0.111,0.007
			c-0.41,0.042-0.84,0.097-1.277,0.167l-1.569,0.208l0.007,0.104c-8.374,2.063-14.401,9.563-14.505,18.29v0.299h-0.015l0.028,0.576
			c0.014,0.264,0.028,0.542,0.048,0.826l1.549,27.935h1.39l-1.542-27.789H1012.648z"/>
		
			<rect x="938.816" y="232.158" transform="matrix(-0.9945 0.1043 -0.1043 -0.9945 2031.3472 362.5822)" clip-path="url(#SVGID_4_)" fill="#155BCC" width="134.748" height="4.524"/>
		<polygon clip-path="url(#SVGID_4_)" fill="#155BCC" points="938.947,239.2 1022.184,230.468 989.326,165.034 906.091,173.766 		
			"/>
		<path clip-path="url(#SVGID_4_)" fill="#FFFFFF" d="M960.074,208.544c2.426,6.808,6.437,11.6,8.958,10.701
			c2.522-0.898,2.601-7.146,0.174-13.954c-2.426-6.809-6.436-11.6-8.958-10.702C957.727,195.488,957.648,201.735,960.074,208.544"/>
		<rect x="284.5" y="100.169" clip-path="url(#SVGID_4_)" fill="#050F64" width="61.245" height="172.551"/>
		<rect x="376.368" y="36.72" clip-path="url(#SVGID_4_)" fill="#050F64" width="61.245" height="236"/>
		<rect x="468.237" y="152.012" clip-path="url(#SVGID_4_)" fill="#050F64" width="61.245" height="120.708"/>
		<rect x="560.105" y="80.825" clip-path="url(#SVGID_4_)" fill="#050F64" width="61.245" height="191.895"/>
		<rect x="651.973" y="61.48" clip-path="url(#SVGID_4_)" fill="#050F64" width="61.245" height="211.239"/>
		<rect x="293.737" y="100.169" clip-path="url(#SVGID_4_)" fill="#FFBD00" width="61.245" height="172.551"/>
		<rect x="385.605" y="36.72" clip-path="url(#SVGID_4_)" fill="#FFBD00" width="61.245" height="236"/>
		<rect x="477.473" y="152.012" clip-path="url(#SVGID_4_)" fill="#FFBD00" width="61.245" height="120.708"/>
		<rect x="569.341" y="80.825" clip-path="url(#SVGID_4_)" fill="#FFBD00" width="61.245" height="191.895"/>
		<rect x="661.209" y="61.48" clip-path="url(#SVGID_4_)" fill="#FFBD00" width="61.245" height="211.239"/>
		<path clip-path="url(#SVGID_4_)" fill="#E5E6EB" d="M900.021,48.97c-13.5,0-24.484-10.984-24.484-24.485
			c0-13.5,10.984-24.484,24.484-24.484s24.484,10.984,24.484,24.484C924.506,37.986,913.521,48.97,900.021,48.97 M900.021,8.416
			c-8.861,0-16.069,7.209-16.069,16.069c0,8.861,7.208,16.07,16.069,16.07c8.86,0,16.069-7.209,16.069-16.07
			C916.091,15.625,908.882,8.416,900.021,8.416"/>
		<path clip-path="url(#SVGID_4_)" fill="#84A9FF" d="M519.591,79.412c-8.861,0-16.069-7.208-16.069-16.069
			c0-8.861,7.208-16.07,16.069-16.07s16.07,7.209,16.07,16.07C535.661,72.204,528.452,79.412,519.591,79.412 M519.591,52.796
			c-5.815,0-10.547,4.731-10.547,10.547c0,5.815,4.732,10.547,10.547,10.547s10.547-4.732,10.547-10.547
			C530.138,57.527,525.406,52.796,519.591,52.796"/>
		<path clip-path="url(#SVGID_4_)" fill="#E5E6EB" d="M136.984,238.351h-32.139v-32.139h32.139V238.351z M110.368,232.828h21.093
			v-21.093h-21.093V232.828z"/>
		<path clip-path="url(#SVGID_4_)" fill="#84A9FF" d="M1470.021,375.818l-25.828-25.828l25.828-25.828l25.828,25.828
			L1470.021,375.818z M1453.07,349.99l16.951,16.951l16.951-16.951l-16.951-16.951L1453.07,349.99z"/>
		
			<rect x="5.058" y="976.718" transform="matrix(0.7071 -0.7071 0.7071 0.7071 -694.1377 301.6476)" clip-path="url(#SVGID_4_)" fill="#84A9FF" width="23.974" height="23.974"/>
		<path clip-path="url(#SVGID_4_)" fill="#83A8FF" d="M78.75,895.723c-5.777-41.737-3.214-84.132-5.071-126.226
			c-1.858-42.094-8.644-85.354-30.971-121.087c55.716,33.157,88.147,95.318,105.062,157.908
			c16.916,62.59,21.089,127.955,35.811,191.097c3.55,15.229,7.723,31.108,3.868,46.265c-4.035,15.859-18.967,30.043-33.109,19.098
			c-13.711-10.611-25.711-34.309-34.41-49.104C98.687,977.544,84.498,937.253,78.75,895.723"/>
		<path clip-path="url(#SVGID_4_)" fill="#155BCD" d="M190.892,1045.54c-5.845,14.645-20.977,26.581-33.701,18.472
			c-1.256-0.794-2.486-1.79-3.684-2.994c-0.091-0.091-0.176-0.182-0.267-0.273c-12.789-13.12-22.038-39.402-29.073-56.012
			c-17.313-40.848-26.646-85.093-26.952-129.474c-0.306-44.604,8.233-88.744,12.093-133.178
			c3.853-44.44,2.701-90.774-15.803-131.361c53.897,42.488,79.365,112.2,88.483,180.227c9.119,68.021,4.485,137.2,11.228,205.5
			C194.843,1012.92,197.03,1030.16,190.892,1045.54"/>
		<path clip-path="url(#SVGID_4_)" fill="#FFFFFF" d="M157.191,1064.012c-1.256-0.794-2.486-1.79-3.684-2.994
			c-0.091-0.091-0.175-0.182-0.267-0.272c5.168-24.603,4.146-53.729-2.954-89.238c-2.187-10.915-4.765-21.993-7.257-32.706
			c-6.743-28.93-13.707-58.85-13.701-89.075c0-15.595,1.862-31.28,3.671-46.445c1.237-10.445,2.525-21.243,3.183-31.871
			c1.946-31.554,1.158-58.336-10.368-76.925c12.04,19.421,16.922,44.675,14.911,77.204c-0.664,10.758-1.953,21.621-3.203,32.126
			c-1.789,15.041-3.638,30.59-3.638,45.911c-0.006,29.705,6.899,59.357,13.577,88.04c2.506,10.752,5.096,21.862,7.289,32.849
			C162.196,1007.862,163.055,1038.303,157.191,1064.012"/>
		<polygon clip-path="url(#SVGID_4_)" fill="#FFBD00" points="212.383,1053.43 211.693,1058.644 197.988,1161.72 118.482,1161.72 
			104.778,1058.644 104.087,1053.43 		"/>
		<rect x="95.018" y="1031.363" clip-path="url(#SVGID_4_)" fill="#FFBD00" width="126.434" height="22.064"/>
		<polygon clip-path="url(#SVGID_4_)" fill="#DCA000" points="212.383,1053.43 211.693,1058.644 104.778,1058.644 104.087,1053.43 
					"/>
		<rect y="1161.72" clip-path="url(#SVGID_4_)" fill="#050F64" width="1513" height="15"/>
	</g>
</g>
</svg>
