<?xml version="1.0" encoding="utf-8"?>
<!-- Generator: Adobe Illustrator 16.0.0, SVG Export Plug-In . SVG Version: 6.00 Build 0)  -->
<!DOCTYPE svg PUBLIC "-//W3C//DTD SVG 1.1//EN" "http://www.w3.org/Graphics/SVG/1.1/DTD/svg11.dtd">
<svg version="1.1" id="圖層_1" xmlns="http://www.w3.org/2000/svg" xmlns:xlink="http://www.w3.org/1999/xlink" x="0px" y="0px"
	 width="1590.29px" height="1182.7px" viewBox="0 0 1590.29 1182.7" enable-background="new 0 0 1590.29 1182.7"
	 xml:space="preserve">
<g>
	<defs>
		<rect id="SVGID_1_" width="1590.29" height="1182.7"/>
	</defs>
	<clipPath id="SVGID_2_">
		<use xlink:href="#SVGID_1_"  overflow="visible"/>
	</clipPath>
	<g clip-path="url(#SVGID_2_)">
		<defs>
			<rect id="SVGID_3_" y="0.001" width="1590.289" height="1182.699"/>
		</defs>
		<clipPath id="SVGID_4_">
			<use xlink:href="#SVGID_3_"  overflow="visible"/>
		</clipPath>
		<path clip-path="url(#SVGID_4_)" fill="#E5E6EB" d="M786.946,128.302l45.924-59.405l61.07,35.831
			c12.662-9.658,26.395-17.464,40.8-23.352l0.015-70.813l74.479-9.532l17.849,68.526c15.423,2.071,30.679,6.167,45.365,12.325
			l50.078-50.055l59.405,45.924l-35.831,61.069c9.657,12.662,17.464,26.396,23.352,40.8l70.813,0.016l9.531,74.479l-68.525,17.848
			c-2.07,15.423-6.166,30.68-12.324,45.366l50.055,50.078l-45.924,59.404l-61.069-35.83c-12.662,9.658-26.396,17.464-40.801,23.352
			l-0.015,70.812l-74.479,9.532l-17.848-68.526c-15.424-2.071-30.68-6.166-45.366-12.325l-50.078,50.056l-59.403-45.925
			l35.83-61.069c-9.658-12.662-17.465-26.395-23.353-40.8l-70.812-0.015l-9.532-74.479l68.526-17.849
			c2.07-15.423,6.166-30.679,12.323-45.365L786.946,128.302z"/>
		<path clip-path="url(#SVGID_4_)" fill="#FFFFFF" d="M893.186,162.976c-13.412,17.35-22.059,36.903-26.142,57.072l6.936-0.292
			l0.008-0.01c4.014-18.606,12.128-36.612,24.527-52.651c9.458-12.234,20.647-22.347,32.984-30.245l-4.117-5.378
			C914.614,139.75,903.007,150.272,893.186,162.976 M864.972,261.777c3.703,36.593,21.807,71.649,53.128,95.863
			c36.948,28.564,83.885,35.53,125.475,22.852l-3.632-5.941c-39.173,11.38-83.056,4.561-117.724-22.24
			c-29.914-23.126-47.158-56.65-50.585-91.598L864.972,261.777z M1052.299,118.153l0.367,7.367
			c10.877,4.407,21.328,10.358,31.058,17.88c57.602,44.531,68.235,127.616,23.712,185.207c-0.304,0.394-0.608,0.789-0.925,1.175
			l4.394,5.286c0.631-0.773,1.251-1.553,1.86-2.342c46.796-60.532,35.611-147.858-24.922-194.654
			C1076.76,129.503,1064.771,122.875,1052.299,118.153"/>
		<path clip-path="url(#SVGID_4_)" fill="#FFFFFF" d="M969.673,284.916l-3.135,6.192c0.593,0.51,1.214,1.006,1.843,1.493
			c24.671,19.072,60.26,14.508,79.333-10.163c16.898-21.858,15.254-52.261-2.497-72.181l-4.201,5.435
			c14.854,17.545,15.985,43.721,1.37,62.626c-16.808,21.741-48.155,25.753-69.886,8.954
			C971.521,286.514,970.575,285.731,969.673,284.916 M958.237,213.265c-13.215,17.094-15.082,39.419-6.797,57.862l5.807-3.547
			c-6.927-16.082-5.142-35.372,6.319-50.196c12.292-15.9,32.386-22.313,50.785-18.032l2.227-6.383
			C995.498,187.773,972.35,195.009,958.237,213.265"/>
		<path clip-path="url(#SVGID_4_)" fill="#E5E6EB" d="M1223.813,338.531l11.567-54.601l52.456,4.271
			c5.358-10.555,12.034-20.215,19.776-28.808l-22.854-47.416l46.788-30.43l34.076,40.117c10.995-3.594,22.532-5.778,34.353-6.396
			l17.366-49.683l54.603,11.567l-4.272,52.457c10.555,5.359,20.215,12.033,28.809,19.776l47.415-22.854l30.431,46.788
			l-40.117,34.076c3.594,10.995,5.778,22.532,6.396,34.353l49.683,17.366l-11.567,54.602l-52.456-4.272
			c-5.359,10.555-12.034,20.215-19.777,28.809l22.854,47.416l-46.788,30.429l-34.076-40.117
			c-10.995,3.594-22.531,5.778-34.353,6.397l-17.366,49.682l-54.601-11.567l4.271-52.456c-10.555-5.359-20.215-12.034-28.808-19.777
			l-47.416,22.854l-30.431-46.788l40.117-34.076c-3.594-10.995-5.777-22.532-6.396-34.353L1223.813,338.531z"/>
		<path clip-path="url(#SVGID_4_)" fill="#FFFFFF" d="M1306.14,327.442c-3.378,15.947-2.854,31.83,0.925,46.653l4.549-2.435
			l0.002-0.01c-3.319-13.752-3.701-28.428-0.578-43.17c2.383-11.245,6.608-21.629,12.318-30.9l-4.493-2.272
			C1312.987,304.974,1308.613,315.766,1306.14,327.442 M1319.15,402.703c14.295,23.304,37.735,40.93,66.523,47.028
			c33.961,7.195,67.635-3.296,91.387-25.213l-4.349-2.805c-22.554,20.267-54.137,29.871-86,23.121
			c-27.496-5.825-49.866-22.703-63.444-44.995L1319.15,402.703z M1398.197,246.058l2.624,4.814
			c8.706-0.561,17.624,0.049,26.568,1.943c52.944,11.216,86.89,63.41,75.676,116.344c-0.077,0.363-0.153,0.725-0.24,1.086
			l4.648,2.12c0.173-0.72,0.336-1.443,0.49-2.168c11.786-55.638-23.899-110.493-79.537-122.28
			C1418.239,245.759,1408.073,245.192,1398.197,246.058"/>
		<path clip-path="url(#SVGID_4_)" fill="#FFFFFF" d="M1396.723,384.389l-0.101,5.158c0.563,0.149,1.139,0.281,1.717,0.404
			c22.676,4.804,45.029-9.743,49.834-32.42c4.256-20.09-6.661-39.915-24.979-47.52l-1.058,4.995
			c15.609,6.951,24.82,24.111,21.138,41.488c-4.233,19.982-23.926,32.79-43.899,28.559
			C1398.475,384.861,1397.59,384.644,1396.723,384.389 M1365.931,340.108c-3.328,15.712,2.63,31.262,14.132,40.935l2.742-4.25
			c-9.83-8.531-14.863-22.022-11.977-35.648c3.097-14.614,14.479-25.396,28.181-28.47l-0.57-4.993
			C1382.646,311.01,1369.485,323.33,1365.931,340.108"/>
		<path clip-path="url(#SVGID_4_)" fill="#E5E6EB" d="M1066.494,545.398l9.877-36.203l35.046,4.898
			c4.005-6.878,8.86-13.104,14.391-18.572l-13.505-32.712l32.583-18.614l21.319,28.246c7.521-1.986,15.349-3.005,23.308-2.963
			l13.579-32.677l36.202,9.878l-4.896,35.045c6.877,4.006,13.103,8.86,18.572,14.39l32.711-13.505l18.614,32.583l-28.246,21.321
			c1.986,7.519,3.006,15.347,2.964,23.306l32.677,13.58l-9.878,36.202l-35.045-4.896c-4.006,6.877-8.86,13.103-14.391,18.571
			l13.505,32.712l-32.584,18.614l-21.319-28.247c-7.52,1.987-15.349,3.006-23.306,2.964l-13.58,32.678l-36.203-9.878l4.897-35.045
			c-6.878-4.007-13.104-8.86-18.571-14.391l-32.713,13.505l-18.614-32.584l28.247-21.32c-1.986-7.519-3.007-15.348-2.964-23.306
			L1066.494,545.398z"/>
		<path clip-path="url(#SVGID_4_)" fill="#FFFFFF" d="M1122.184,541.141c-2.885,10.573-3.147,21.255-1.185,31.351l3.147-1.459
			l0.002-0.006c-1.696-9.36-1.385-19.226,1.283-29c2.033-7.456,5.272-14.262,9.464-20.264l-2.929-1.699
			C1127.649,526.324,1124.296,533.399,1122.184,541.141 M1128.004,592.162c8.693,16.196,23.745,28.935,42.832,34.142
			c22.519,6.145,45.527,0.405,62.318-13.387l-2.811-2.051c-15.923,12.73-37.493,17.955-58.621,12.191
			c-18.23-4.975-32.594-17.17-40.845-32.658L1128.004,592.162z M1187.126,490.076l1.575,3.333c5.865-0.04,11.828,0.715,17.758,2.333
			c35.104,9.577,55.869,45.926,46.293,81.023c-0.064,0.24-0.131,0.481-0.203,0.719l3.038,1.604c0.145-0.477,0.282-0.956,0.413-1.437
			c10.065-36.89-11.765-75.092-48.654-85.157C1200.59,490.651,1193.789,489.877,1187.126,490.076"/>
		<path clip-path="url(#SVGID_4_)" fill="#FFFFFF" d="M1180.782,582.871l-0.267,3.458c0.37,0.122,0.752,0.234,1.136,0.338
			c15.034,4.102,30.603-4.797,34.705-19.832c3.635-13.321-2.927-27.051-14.927-32.865l-0.903,3.313
			c10.209,5.269,15.727,17.144,12.583,28.666c-3.615,13.249-17.329,21.084-30.572,17.471
			C1181.939,583.257,1181.354,583.076,1180.782,582.871 M1161.827,551.957c-2.842,10.418,0.555,21.086,7.901,28.024l2.006-2.747
			c-6.269-6.106-9.125-15.357-6.66-24.391c2.644-9.69,10.702-16.486,20.018-18.02l-0.189-3.373
			C1174.174,533.072,1164.862,540.832,1161.827,551.957"/>
		<path clip-path="url(#SVGID_4_)" fill="#050F64" d="M243.243,288.712v659.719c0,25.375,20.571,45.945,45.946,45.945h1088.412
			c25.375,0,45.945-20.57,45.945-45.945V288.712c0-25.375-20.57-45.946-45.945-45.946H289.189
			C263.814,242.766,243.243,263.337,243.243,288.712"/>
		<rect x="284.537" y="284.064" clip-path="url(#SVGID_4_)" fill="#FFFFFF" width="1097.709" height="630.912"/>
		<rect x="334.537" y="334.064" clip-path="url(#SVGID_4_)" fill="#E5E6EB" width="997.709" height="530.912"/>
		<rect x="391.277" y="791.182" clip-path="url(#SVGID_4_)" fill="#FFFFFF" width="884.229" height="9.478"/>
		<path clip-path="url(#SVGID_4_)" fill="#FFFFFF" d="M994.197,572.182c0,76.106-61.696,137.803-137.803,137.803
			s-137.802-61.697-137.802-137.803s61.696-137.803,137.802-137.803S994.197,496.076,994.197,572.182"/>
		<polygon clip-path="url(#SVGID_4_)" fill="#E5E6EB" points="918.027,569.812 823.83,515.427 823.83,624.197 		"/>
		<rect x="629.555" y="994.376" clip-path="url(#SVGID_4_)" fill="#E5E6EB" width="407.679" height="105.855"/>
		<polygon clip-path="url(#SVGID_4_)" fill="#E5E6EB" points="1097.723,1167.825 569.066,1167.825 629.555,1097.681 
			1037.234,1097.681 		"/>
		<path clip-path="url(#SVGID_4_)" fill="#FFFFFF" d="M918.895,795.921c0,6.167-5,11.167-11.167,11.167s-11.166-5-11.166-11.167
			s4.999-11.167,11.166-11.167S918.895,789.754,918.895,795.921"/>
		<path clip-path="url(#SVGID_4_)" fill="#155BCD" d="M809.348,1073.676H511.616v-94.148h297.731
			c25.999,0,47.075,21.075,47.075,47.073C856.423,1052.6,835.347,1073.676,809.348,1073.676"/>
		<path clip-path="url(#SVGID_4_)" fill="#FFFFFF" d="M518.014,1068.188H155.612v-83.174h362.402
			c22.968,0,41.587,18.619,41.587,41.587S540.981,1068.188,518.014,1068.188"/>
		<path clip-path="url(#SVGID_4_)" fill="#050F64" d="M515.525,1073.676H135.961v-10.968h379.564
			c20.994,0,38.078-16.195,38.078-36.107c0-19.911-17.084-36.105-38.078-36.105H135.961v-10.968h379.564
			c27.045,0,49.046,21.121,49.046,47.073C564.571,1052.554,542.57,1073.676,515.525,1073.676"/>
		<rect x="155.612" y="1001.923" clip-path="url(#SVGID_4_)" fill="#E6E6E6" width="287.91" height="4.57"/>
		<rect x="155.612" y="1026.602" clip-path="url(#SVGID_4_)" fill="#E6E6E6" width="368.579" height="4.569"/>
		<rect x="155.612" y="1036.655" clip-path="url(#SVGID_4_)" fill="#E6E6E6" width="181.564" height="4.57"/>
		<path clip-path="url(#SVGID_4_)" fill="#FF654F" d="M139.661,1167.825h297.732v-94.149H139.661
			c-25.999,0-47.075,21.076-47.075,47.074C92.586,1146.749,113.662,1167.825,139.661,1167.825"/>
		<path clip-path="url(#SVGID_4_)" fill="#FFFFFF" d="M430.996,1162.338h362.402v-83.174H430.996
			c-22.968,0-41.587,18.618-41.587,41.587C389.408,1143.719,408.027,1162.338,430.996,1162.338"/>
		<path clip-path="url(#SVGID_4_)" fill="#DA5544" d="M433.484,1167.825h379.564v-10.968H433.484
			c-20.993,0-38.078-16.195-38.078-36.107c0-19.911,17.085-36.105,38.078-36.105h379.564v-10.969H433.484
			c-27.045,0-49.046,21.122-49.046,47.074C384.438,1146.703,406.439,1167.825,433.484,1167.825"/>
		<rect x="505.487" y="1096.072" clip-path="url(#SVGID_4_)" fill="#E6E6E6" width="287.91" height="4.57"/>
		<rect x="424.818" y="1120.75" clip-path="url(#SVGID_4_)" fill="#E6E6E6" width="368.579" height="4.57"/>
		<rect x="611.833" y="1130.804" clip-path="url(#SVGID_4_)" fill="#E6E6E6" width="181.564" height="4.57"/>
		<path clip-path="url(#SVGID_4_)" fill="#FFBD00" d="M846.965,979.526H549.233v-94.148h297.731
			c25.999,0,47.075,21.076,47.075,47.073C894.04,958.45,872.964,979.526,846.965,979.526"/>
		<path clip-path="url(#SVGID_4_)" fill="#FFFFFF" d="M555.631,974.039H193.229v-83.174h362.402
			c22.968,0,41.587,18.619,41.587,41.587S578.599,974.039,555.631,974.039"/>
		<path clip-path="url(#SVGID_4_)" fill="#DCA000" d="M553.142,979.526H173.578v-10.968h379.564
			c20.993,0,38.077-16.195,38.077-36.107c0-19.91-17.084-36.105-38.077-36.105H173.578v-10.968h379.564
			c27.045,0,49.045,21.122,49.045,47.073C602.187,958.404,580.187,979.526,553.142,979.526"/>
		<rect x="193.229" y="907.774" clip-path="url(#SVGID_4_)" fill="#E6E6E6" width="287.91" height="4.569"/>
		<rect x="193.229" y="932.452" clip-path="url(#SVGID_4_)" fill="#E6E6E6" width="368.579" height="4.57"/>
		<rect x="193.229" y="942.506" clip-path="url(#SVGID_4_)" fill="#E6E6E6" width="181.564" height="4.57"/>
		<path clip-path="url(#SVGID_4_)" fill="#84A9FF" d="M266.526,919.25c-13.6,0-24.568,10.968-24.568,24.568h-0.074v108.948
			l31.99-24.221l39.759,24.221V943.818v-12.064c0-6.8,5.703-12.504,12.503-12.504H266.526z"/>
		<path clip-path="url(#SVGID_4_)" fill="#DA5544" d="M241.885,1167.823h75.043c-20.896-28.335-20.896-59.717,0-94.146h-75.043
			C220.979,1108.106,220.979,1139.488,241.885,1167.823"/>
		<path clip-path="url(#SVGID_4_)" fill="#050F64" d="M525.989,243.794C456.477,344.47,362.173,408.815,243.08,436.827
			l-73.704-108.021l282.908-193.033L525.989,243.794z"/>
		<polygon clip-path="url(#SVGID_4_)" fill="#FFBD00" points="19.299,368.589 19.444,371.84 19.553,374.468 18.771,505.549 
			26.26,505.583 26.955,372.414 26.867,370.313 26.65,365.34 26.58,363.617 		"/>
		<polygon clip-path="url(#SVGID_4_)" fill="#155BCD" points="19.445,371.84 19.471,372.465 26.868,370.314 337.261,288.752 
			552.473,8.361 215.892,144.928 26.651,365.34 		"/>
		<path clip-path="url(#SVGID_4_)" fill="#FFBD00" d="M271.019,188.442c-8.258,9.001-10.835,20.046-5.301,24.956
			c5.708,5.021,16.992,1.772,24.751-7.544c7.433-9.524,8.868-21.291,3.659-25.996C289.093,175.263,278.949,179.235,271.019,188.442"
			/>
		<polygon clip-path="url(#SVGID_4_)" fill="#FFBD00" points="19.299,368.589 19.553,374.468 20.955,376.513 26.955,372.414 
			282.476,198.076 278.261,191.887 26.58,363.617 		"/>
		<path clip-path="url(#SVGID_4_)" fill="#FFBD00" d="M34.703,471.794l-0.126-0.001c-0.495-4.632-4.359-8.265-9.127-8.289
			l-5.452-0.027c-4.769-0.024-8.669,3.569-9.212,8.196h-0.125L0,542.373c14.848,6.944,29.731,7.02,44.648,0.226L34.703,471.794z"/>
		<path clip-path="url(#SVGID_4_)" fill="#FFBD00" d="M579.023,449.189l-8.65-0.033c-2.427-0.009-4.386-1.983-4.377-4.41
			l0.295-77.826c0.009-2.426,1.983-4.386,4.41-4.377l8.65,0.033c2.427,0.009,4.386,1.984,4.377,4.41l-0.295,77.826
			C583.424,447.239,581.45,449.198,579.023,449.189"/>
		<path clip-path="url(#SVGID_4_)" fill="#FFBD00" d="M484.849,484.416l-6.14,6.093c-1.722,1.71-4.504,1.699-6.213-0.023
			l-54.823-55.24c-1.709-1.722-1.699-4.504,0.024-6.213l6.139-6.094c1.723-1.709,4.504-1.698,6.214,0.024l54.822,55.24
			C486.582,479.924,486.571,482.707,484.849,484.416"/>
		<path clip-path="url(#SVGID_4_)" fill="#FFBD00" d="M443.167,575.915l-0.033,8.65c-0.009,2.427-1.983,4.386-4.41,4.377
			l-77.826-0.295c-2.426-0.009-4.386-1.983-4.377-4.41l0.033-8.65c0.009-2.427,1.984-4.386,4.41-4.377l77.826,0.295
			C441.217,571.514,443.176,573.488,443.167,575.915"/>
		<path clip-path="url(#SVGID_4_)" fill="#FFBD00" d="M478.393,670.089l6.093,6.141c1.71,1.722,1.699,4.504-0.023,6.213
			l-55.24,54.822c-1.722,1.709-4.504,1.699-6.213-0.023l-6.094-6.139c-1.709-1.724-1.698-4.505,0.024-6.215l55.24-54.821
			C473.902,668.356,476.684,668.367,478.393,670.089"/>
		<path clip-path="url(#SVGID_4_)" fill="#FFBD00" d="M664.066,676.545l6.14-6.093c1.722-1.71,4.504-1.699,6.213,0.023
			l54.823,55.239c1.709,1.723,1.699,4.505-0.024,6.214l-6.139,6.094c-1.723,1.709-4.504,1.698-6.214-0.024l-54.823-55.239
			C662.333,681.036,662.345,678.254,664.066,676.545"/>
		<path clip-path="url(#SVGID_4_)" fill="#FFBD00" d="M705.749,585.045l0.033-8.65c0.009-2.427,1.983-4.386,4.41-4.377l77.826,0.295
			c2.426,0.009,4.386,1.983,4.377,4.41l-0.033,8.65c-0.009,2.427-1.984,4.386-4.41,4.377l-77.826-0.295
			C707.699,589.447,705.74,587.473,705.749,585.045"/>
		<path clip-path="url(#SVGID_4_)" fill="#FFBD00" d="M670.522,490.872l-6.093-6.14c-1.71-1.722-1.699-4.504,0.023-6.213
			l55.24-54.823c1.722-1.709,4.504-1.699,6.213,0.023l6.094,6.14c1.709,1.722,1.698,4.504-0.024,6.214l-55.24,54.822
			C675.014,492.604,672.231,492.594,670.522,490.872"/>
		<path clip-path="url(#SVGID_4_)" fill="#FFBD00" d="M687.716,580.9c-0.122,32.279-13.706,61.363-35.42,81.946
			c-7.218,6.85-12.861,15.031-16.709,23.999c-3.842,8.961-5.895,18.701-5.933,28.648c-0.04,10.444-3.945,19.973-10.343,27.235
			c-5.472,6.188-12.749,10.732-21.015,12.793c-3.271,0.821-6.69,1.246-10.218,1.233l-29.093-0.111
			c-11.437-0.043-21.775-4.717-29.239-12.236c-7.471-7.528-12.066-17.896-12.023-29.331c0.076-20.091-8.226-39.195-22.631-53.195
			c-21.332-20.731-34.545-49.774-34.41-81.875c0.068-16.01,3.475-31.255,9.577-45.081c1.048-2.382,2.185-4.723,3.39-7.015
			c18.956-36.036,56.737-60.783,100.063-60.96C636.831,466.69,687.955,517.893,687.716,580.9"/>
		<path clip-path="url(#SVGID_4_)" fill="#DCA000" d="M619.311,742.729c-5.472,6.186-12.749,10.731-21.014,12.793
			c-3.271,0.82-6.691,1.246-10.218,1.231l-29.094-0.109c-11.436-0.043-21.775-4.718-29.239-12.238
			c-7.47-7.527-12.066-17.895-12.023-29.331c0.077-20.09-8.225-39.194-22.63-53.194c-21.332-20.731-34.546-49.773-34.41-81.875
			c0.067-16.01,3.474-31.255,9.577-45.081c7.086,42.218,24.741,100.548,68.65,139.877
			C538.91,674.803,526.619,750.767,619.311,742.729"/>
		<path clip-path="url(#SVGID_4_)" fill="#FFFFFF" d="M649.869,519.435c19.74,23.214,27.587,48.968,17.527,57.523
			c-10.061,8.555-34.219-3.329-53.959-26.543c-19.74-23.215-27.587-48.969-17.526-57.523
			C605.971,484.337,630.128,496.221,649.869,519.435"/>
		<path clip-path="url(#SVGID_4_)" fill="#155BCD" d="M628.578,755.944c-0.011,3.021-1.245,5.751-3.235,7.719
			c-0.542,0.538-1.146,1.021-1.79,1.436c-1.72,1.108-3.76,1.749-5.954,1.741l-88.203-0.334c-2.195-0.008-4.236-0.666-5.948-1.786
			c-2.993-1.96-4.963-5.351-4.948-9.192c0.011-3.021,1.245-5.751,3.228-7.727c1.99-1.968,4.729-3.181,7.75-3.17l88.204,0.334
			C623.718,744.988,628.601,749.901,628.578,755.944"/>
		<path clip-path="url(#SVGID_4_)" fill="#155BCD" d="M623.206,777.443c-0.011,3.021-1.245,5.751-3.235,7.726
			c-0.536,0.531-1.125,1.001-1.756,1.408c-1.548,1.013-3.376,1.635-5.332,1.744c-0.218,0.013-0.437,0.019-0.656,0.018l-77.621-0.294
			c-0.219-0.001-0.438-0.008-0.657-0.022c-1.961-0.124-3.784-0.759-5.325-1.784c-2.973-1.959-4.929-5.337-4.914-9.172
			c0.011-3.021,1.245-5.751,3.228-7.727c1.99-1.968,4.729-3.181,7.75-3.17l77.622,0.294
			C618.346,766.487,623.229,771.4,623.206,777.443"/>
		<path clip-path="url(#SVGID_4_)" fill="#155BCD" d="M583.662,834.636l-20.318-0.076c-9.393-0.036-16.979-7.68-16.944-17.073
			l0.071-18.788l54.335,0.206l-0.071,18.788C600.699,827.086,593.055,834.672,583.662,834.636"/>
		<path clip-path="url(#SVGID_4_)" fill="#155BCD" d="M613.86,799.215c-0.011,3.021-1.245,5.751-3.235,7.726
			c-0.542,0.538-1.146,1.021-1.79,1.437c-1.713,1.107-3.759,1.742-5.954,1.733l-58.57-0.222c-2.194-0.008-4.236-0.658-5.94-1.779
			c-2.994-1.96-4.97-5.351-4.956-9.199c0.012-3.021,1.246-5.751,3.229-7.72c1.99-1.975,4.729-3.188,7.75-3.177l58.57,0.222
			C609,788.259,613.883,793.179,613.86,799.215"/>
		<path clip-path="url(#SVGID_4_)" fill="#050F64" d="M623.553,765.099c-1.72,1.108-3.76,1.75-5.954,1.741l-88.204-0.334
			c-2.194-0.008-4.235-0.665-5.947-1.786L623.553,765.099z"/>
		<path clip-path="url(#SVGID_4_)" fill="#050F64" d="M618.215,786.578l-5.332,1.743l-78.934-0.299
			c-1.961-0.124-3.784-0.76-5.325-1.783L618.215,786.578z"/>
		<path clip-path="url(#SVGID_4_)" fill="#050F64" d="M608.835,808.377c-1.713,1.107-3.76,1.742-5.954,1.733l-58.57-0.221
			c-2.194-0.009-4.236-0.659-5.941-1.78L608.835,808.377z"/>
		<path clip-path="url(#SVGID_4_)" fill="#DCA000" d="M616.266,576.269c-4.192-3.913-10.048-5.984-16.064-5.687
			c-5.564,0.277-10.493,2.554-13.88,6.412c-4.11,4.682-5.432,10.726-6.184,16.021c-0.614,4.326-0.909,13.552-1.021,24.346
			c-1.516-0.068-8.318-0.068-9.835,0c-0.112-10.794-0.407-20.02-1.021-24.346c-0.751-5.294-2.073-11.338-6.183-16.021
			c-3.387-3.858-8.317-6.135-13.88-6.412c-6.017-0.298-11.872,1.774-16.065,5.687c-7.464,6.969-9.698,18.931-5.43,29.09
			c3.623,8.627,11.44,15.603,21.447,19.139c3.497,1.235,7.23,2.07,11.247,2.508c0.024,22.789-0.514,117.102-0.523,117.52l9.94,0.212
			c0.036-1.691,0.554-95.006,0.523-117.428c1.58-0.063,8.145-0.063,9.725,0c-0.03,22.422,0.487,115.736,0.523,117.428l9.941-0.212
			c-0.009-0.418-0.548-94.73-0.523-117.52c4.016-0.438,7.75-1.272,11.247-2.508c10.007-3.536,17.824-10.512,21.447-19.139
			C625.963,595.2,623.73,583.238,616.266,576.269 M551.461,615.123c-7.261-2.565-13.09-7.655-15.592-13.614
			c-2.645-6.296-1.363-13.854,3.048-17.971c2.064-1.927,5.074-3.041,8.155-3.041c0.21,0,0.421,0.006,0.631,0.016
			c2.854,0.142,5.305,1.222,6.901,3.04c2.387,2.72,3.267,7.015,3.812,10.859c0.553,3.894,0.822,12.431,0.927,22.572
			C556.525,616.606,553.906,615.987,551.461,615.123 M612.529,601.509c-2.503,5.959-8.332,11.049-15.593,13.614
			c-2.444,0.864-5.063,1.483-7.881,1.861c0.104-10.142,0.374-18.679,0.926-22.572c0.546-3.844,1.425-8.139,3.812-10.859
			c1.597-1.818,4.048-2.898,6.902-3.04c0.21-0.01,0.421-0.016,0.631-0.016c3.081,0,6.091,1.114,8.154,3.041
			C613.892,587.655,615.173,595.213,612.529,601.509"/>
		<path clip-path="url(#SVGID_4_)" fill="#050F64" d="M775.736,1017.294l42.676,0.022c-0.031-1.461-0.316-2.866-1.197-4.001
			c-1.011-1.312-2.652-1.997-4.276-2.278c-1.631-0.282-3.303-0.208-4.953-0.29c-4.049-0.2-8.048-1.36-11.577-3.36
			c-1.843-1.034-3.568-2.309-5.559-3.035l-11.631,0.3c-1.592,1.714-2.617,3.961-3.111,6.27
			C775.657,1013.01,775.606,1015.157,775.736,1017.294"/>
		<path clip-path="url(#SVGID_4_)" fill="#050F64" d="M651.697,863.601c2.266-11.252,13.225-18.536,24.477-16.271
			c0.009,0.002,0.017,0.004,0.025,0.006l86.53,12.673c0.318,0.032,0.629,0.088,0.941,0.139l0.567,0.083v0.004
			c6.223,1.249,11.236,6.176,12.448,12.586l0.002,0.024c0.091,0.485,0.157,0.979,0.205,1.48l0.01,0.118l0.006-0.001l15.605,129.817
			l-14.837,1.243l-29.003-114.358l-74.076-2.813c-2.147,0.263-4.371,0.198-6.608-0.251h-0.02l0.001-0.003c-0.001,0-0.002,0-0.003,0
			C656.715,885.812,649.431,874.853,651.697,863.601"/>
		<path clip-path="url(#SVGID_4_)" fill="#050F64" d="M727.559,1017.937l42.674,0.388c-0.019-1.461-0.292-2.868-1.164-4.01
			c-0.999-1.32-2.634-2.021-4.256-2.316c-1.629-0.295-3.301-0.235-4.951-0.331c-4.046-0.236-8.035-1.43-11.547-3.459
			c-1.834-1.051-3.548-2.34-5.532-3.084l-11.634,0.2c-1.607,1.701-2.65,3.938-3.164,6.243
			C727.517,1013.652,727.448,1015.799,727.559,1017.937"/>
		<path clip-path="url(#SVGID_4_)" fill="#050F64" d="M729.56,1007.246l14.803-1.595c0,0-18.688-129.41-18.694-129.409l-0.013-0.118
			c-0.06-0.5-0.138-0.991-0.24-1.475l-0.003-0.025c-1.287-6.019-5.926-10.634-11.695-12.07l-0.177-0.034
			c-0.412-0.097-0.83-0.176-1.252-0.24l-85.963-16.454c-0.008-0.002-0.015-0.005-0.024-0.007
			c-11.142-2.755-22.409,4.043-25.165,15.187c-1.667,6.742,0.214,14.018,4.93,19.116c5.379,5.816,13.176,6.897,20.667,7.435
			c3.437,0.247,6.874,0.511,10.311,0.767c5.024,0.373,10.049,0.747,15.074,1.12c5.569,0.414,11.138,0.828,16.707,1.241
			c5.069,0.377,10.138,0.754,15.206,1.131c3.525,0.261,7.05,0.522,10.574,0.785c0.2,0.015,2.974,0.062,3.02,0.225L729.56,1007.246z"
			/>
		<path clip-path="url(#SVGID_4_)" fill="#155BCC" d="M707.839,929.434l-1.219,0.261l19.776,70.838h1.294L707.839,929.434z
			 M726.881,875.926c-0.044-0.354-0.093-0.689-0.149-1.014l-0.019-0.143h-0.006c-0.019-0.106-0.037-0.205-0.062-0.312v-0.024
			l-0.019-0.068c-1.275-5.982-5.752-10.864-11.548-12.711l0.019-0.1l-1.269-0.242c-0.436-0.106-0.89-0.193-1.306-0.255
			l-85.919-16.449c-1.748-0.429-3.526-0.647-5.305-0.647c-7.021,0-13.395,3.304-17.456,8.602l2.481-0.964
			c4.975-5.175,12.506-7.624,19.981-5.777c0.007,0,0.013,0,0.019,0.006l85.963,16.455c0.422,0.063,0.839,0.143,1.256,0.236
			l0.174,0.037v0.007c5.771,1.43,10.41,6.044,11.697,12.063v0.025c0.106,0.479,0.181,0.97,0.243,1.474l0.012,0.118h0.007
			l12.618,87.368l1.225-0.218L726.881,875.926z"/>
		<path clip-path="url(#SVGID_4_)" fill="#EA8096" d="M828.158,701.159c-1.649-1.67-4.444-1.675-6.361-0.011
			c-2.352,2.074-4.794,4.112-7.156,6.082l-1.729,1.445c-0.957,0.794-1.928,1.567-2.899,2.341c-0.541,0.431-1.082,0.861-1.619,1.295
			l-2.259,1.806l-2.299,1.748c-0.551,0.412-1.096,0.83-1.642,1.248c-0.965,0.74-1.96,1.504-2.966,2.212l-4.661,3.343l-4.742,3.184
			c-1.002,0.676-2.046,1.317-3.056,1.938c-0.582,0.358-1.163,0.715-1.735,1.078c-6.958,4.226-13.433,7.468-19.795,9.914
			c-6.959,2.675-13.883,4.408-20.582,5.155c-12.489,1.399-25.913-0.18-42.239-4.961c-6.379-1.863-13.335-4.237-21.265-7.256
			c-6.338-2.444-13.097-5.206-21.276-8.693c-4.268-1.764-9.06-1.764-13.149,0c-3.663,1.58-6.43,4.418-7.791,7.99
			c-1.359,3.566-1.154,7.513,0.577,11.111c1.963,4.08,5.696,7.256,10.246,8.713c8.884,2.682,16.251,4.781,23.184,6.609
			c9.055,2.347,16.688,4.039,24.021,5.327c9.184,1.606,17.421,2.456,25.182,2.598c0.776,0.017,1.549,0.023,2.32,0.023
			c8.212,0,16.111-0.844,23.512-2.512c8.086-1.825,16.206-4.835,24.136-8.943c6.896-3.573,13.733-7.989,20.901-13.504
			c0.553-0.442,1.112-0.876,1.67-1.313c1.031-0.803,2.097-1.633,3.107-2.488l4.638-3.916l4.481-4.03
			c0.979-0.866,1.933-1.78,2.854-2.664c0.509-0.486,1.015-0.971,1.528-1.452l2.176-2.07l2.116-2.11
			c0.493-0.496,0.988-0.99,1.485-1.483c0.915-0.911,1.831-1.822,2.728-2.75l1.53-1.594c2.202-2.291,4.478-4.66,6.646-7.044
			C829.73,705.626,829.81,702.83,828.158,701.159"/>
		<path clip-path="url(#SVGID_4_)" fill="#FF654F" d="M689.918,770.479l-37.476-12.577c-11.336-3.804-18.028-15.397-14.224-26.733
			l0.587-0.68c3.804-11.336,16.077-17.44,27.413-13.637l37.476,12.577L689.918,770.479z"/>
		<path clip-path="url(#SVGID_4_)" fill="#FF654F" d="M637.301,713.615L637.301,713.615c23.105-3.688,44.42,13.178,46.145,36.512
			l7.344,99.346c-22.821,21.549-66.287,30.295-90.228,17.776l-4.492-103.132C594.996,739.256,612.728,717.538,637.301,713.615"/>
		<path clip-path="url(#SVGID_4_)" fill="#DA5544" d="M684.685,750.037c-1.579-21.405-19.601-38.171-41.019-38.171
			c-2.183,0-4.39,0.175-6.561,0.522c-2.307,0.367-4.552,0.89-6.729,1.555l0.448,1.156c2.096-0.634,4.26-1.132,6.48-1.485
			c2.139-0.342,4.266-0.51,6.362-0.51c20.522,0,38.215,15.852,39.782,37.02l2.381,32.183l1.232-0.105L684.685,750.037z
			 M688.889,806.865h-1.244l3.147,42.604c-13.122,12.389-33.059,20.547-52.188,22.861v1.268c20.08-2.356,40.049-10.95,53.04-23.221
			l0.429-0.404L688.889,806.865z M596.714,753.775l-1.169-0.529c-0.628,3.545-0.877,7.202-0.715,10.927l3.401,78.177l1.244-0.038
			l-3.408-78.194C595.917,760.591,596.142,757.127,596.714,753.775"/>
		<path clip-path="url(#SVGID_4_)" fill="#F4BCC7" d="M644.426,699.503l4.481,28.077c-5.465,4.934-11.564,5.907-18.294,2.92
			l-4.481-28.077L644.426,699.503z"/>
		<path clip-path="url(#SVGID_4_)" fill="#EA8096" d="M644.426,699.503l2.027,12.7c-1.204,0.701-2.529,1.24-3.946,1.593
			c-0.455,0.11-0.912,0.202-1.373,0.275c-5.036,0.805-10.137-0.774-13.8-4.113l-1.202-7.535L644.426,699.503z"/>
		<path clip-path="url(#SVGID_4_)" fill="#F4BCC7" d="M650,681.003l2.004,16.579c0.801,6.624-3.467,12.805-9.945,14.401
			c-5.887,1.452-12.101-0.819-15.569-5.793c-2.296-3.292-4.517-7.18-6.71-11.305c-3.504-6.591-3.237-14.664,1.006-20.806
			c3.617-5.233,8.848-7.515,15.814-6.624C643.638,668.355,649.149,673.96,650,681.003"/>
		<path clip-path="url(#SVGID_4_)" fill="#F4BCC7" d="M778.709,844.477c-3.136-0.011-6.315-0.108-9.391-0.203l-2.251-0.069
			c-1.251-0.041-2.498-0.107-3.744-0.175c-0.684-0.036-1.367-0.074-2.049-0.106l-2.887-0.148l-2.88-0.221
			c-0.681-0.057-1.362-0.105-2.044-0.154c-1.216-0.088-2.473-0.178-3.699-0.317l-5.704-0.594l-5.659-0.771
			c-1.201-0.159-2.411-0.374-3.581-0.579c-0.669-0.119-1.338-0.238-2.004-0.347c-8.007-1.459-15.002-3.334-21.386-5.729
			c-6.977-2.62-13.306-5.922-18.812-9.813c-10.267-7.249-19.256-17.34-28.289-31.756c-3.532-5.627-7.157-12.021-11.083-19.545
			c-3.11-6.024-6.33-12.578-10.136-20.628c-2.02-4.153-5.603-7.335-9.832-8.73c-3.79-1.251-7.742-0.966-11.131,0.802
			c-3.384,1.764-5.852,4.851-6.947,8.69c-1.242,4.354-0.56,9.208,1.875,13.32c4.884,7.935,8.997,14.396,12.947,20.335
			c5.212,7.765,9.796,14.099,14.425,19.933c5.8,7.298,11.395,13.403,17.104,18.664c6.647,6.135,13.702,11.279,20.969,15.29
			c7.259,4.004,15.329,7.147,23.985,9.339c7.53,1.909,15.573,3.146,24.595,3.782c0.704,0.037,1.407,0.082,2.11,0.128
			c1.307,0.084,2.659,0.171,3.986,0.201l6.068,0.151l6.026-0.037h0.09c1.277,0,2.566-0.049,3.812-0.098
			c0.702-0.025,1.405-0.052,2.109-0.07l3.001-0.103l2.984-0.174c0.698-0.044,1.397-0.084,2.095-0.123
			c1.289-0.074,2.579-0.146,3.866-0.246l2.195-0.175c3.17-0.251,6.449-0.511,9.656-0.854c2.571-0.256,4.487-2.292,4.361-4.64
			C783.334,846.365,781.249,844.506,778.709,844.477"/>
		<path clip-path="url(#SVGID_4_)" fill="#FF654F" d="M635.104,808.59l-20.225-33.965c-6.117-10.273-3.637-23.429,6.637-29.547
			l0.888-0.132c10.274-6.118,23.561-2.749,29.679,7.525l20.225,33.964L635.104,808.59z"/>
		<path clip-path="url(#SVGID_4_)" fill="#DA5544" d="M653.149,751.835c-4.104-6.896-11.648-11.182-19.688-11.182
			c-1.947,0-3.887,0.249-5.759,0.74l0.529,1.15c9.029-2.264,18.843,1.518,23.849,9.925l5.305,8.912l1.1-0.584L653.149,751.835z
			 M669.176,778.743l-1.101,0.585l4.235,7.108l-22.606,13.457l0.603,1.089l23.707-14.117L669.176,778.743z M619.487,746.455
			l-0.609-1.094c-4.123,3.104-6.94,7.524-8.041,12.673c-1.244,5.804-0.188,11.922,2.972,17.227l15.92,26.729l1.188-0.429
			l-16.038-26.934C609.182,765.068,610.936,753.011,619.487,746.455"/>
		<path clip-path="url(#SVGID_4_)" fill="#050F64" d="M654.547,683.399c1.005-1.412,0.682-3.611,0.123-5.394
			c-0.559-1.783-1.313-3.644-0.992-5.486c0.409-2.35,2.486-4.012,2.432-6.427c-0.053-2.361-2.067-3.886-3.821-4.943
			c-4.665-2.814-9.331-5.629-13.996-8.443c-1.911-1.152-3.867-2.322-5.966-2.662c-2.1-0.339-4.407,0.299-5.739,2.256
			c-0.698,1.026-1.085,2.337-1.826,3.317c-1.675,2.216-4.528,2.104-7.03,2.119c-3.088,0.017-6.322,0.545-8.759,2.784
			c-2.437,2.24-3.74,6.627-2.189,9.93c0.735,1.563,1.97,2.668,3.026,3.932c1.057,1.263,2.008,2.914,1.88,4.687
			c-0.172,2.381-2.112,3.806-3.446,5.524c-1.88,2.422-2.699,6.011-2.129,9.331c0.57,3.32,2.513,6.285,5.052,7.708
			c2.201,1.233,5.289,0.964,6.336-1.637c1.194-2.971-0.824-7.4,1.214-9.57c2.452-2.609,7.02,2.16,9.424-0.514
			c1.286-1.431,0.961-4.101,1.958-5.841c1.315-2.299,4.02-1.996,6.055-1.832c2.2,0.178,4.228,0.038,6.404-0.184
			c1.993-0.203,3.689,0.246,5.583,1.095C650.095,684.024,652.851,685.619,654.547,683.399"/>
		<path clip-path="url(#SVGID_4_)" fill="#F4BCC7" d="M626.537,692.296c0.538,3.369-2.095,6.59-5.881,7.193
			c-3.785,0.604-7.29-1.637-7.827-5.006c-0.538-3.369,2.095-6.59,5.88-7.193C622.495,686.686,625.999,688.927,626.537,692.296"/>
		
			<rect x="696.683" y="840.896" transform="matrix(0.987 0.1609 -0.1609 0.987 145.5323 -111.2618)" clip-path="url(#SVGID_4_)" fill="#155BCC" width="126.226" height="4.237"/>
		<polygon clip-path="url(#SVGID_4_)" fill="#155BCC" points="822.427,851.077 745.049,838.464 779.274,779.024 856.652,791.637 		
			"/>
		<path clip-path="url(#SVGID_4_)" fill="#FFFFFF" d="M804.307,821.278c-2.632,6.238-6.639,10.505-8.95,9.53
			c-2.31-0.976-2.049-6.823,0.583-13.062c2.633-6.236,6.639-10.504,8.95-9.528C807.199,809.193,806.938,815.04,804.307,821.278"/>
		<path clip-path="url(#SVGID_4_)" fill="#050F64" d="M389.978,1148.971l37.352,18.854c0.617-1.293,0.988-2.648,0.717-4.03
			c-0.306-1.595-1.44-2.919-2.738-3.884c-1.304-0.966-2.8-1.639-4.209-2.438c-3.456-1.963-6.445-4.743-8.652-8.051
			c-1.157-1.721-2.104-3.598-3.526-5.111l-10.315-4.872c-2.151,0.798-4.04,2.313-5.491,4.116
			C391.8,1145.185,390.808,1147.043,389.978,1148.971"/>
		<path clip-path="url(#SVGID_4_)" fill="#050F64" d="M354.461,1167.67l41.841,0.03c-0.031-1.432-0.31-2.81-1.174-3.922
			c-0.99-1.286-2.599-1.959-4.192-2.235c-1.599-0.276-3.238-0.204-4.856-0.285c-3.969-0.197-7.89-1.336-11.349-3.297
			c-1.807-1.015-3.498-2.265-5.45-2.977l-11.404,0.291c-1.561,1.68-2.566,3.883-3.051,6.146
			C354.384,1163.471,354.334,1165.575,354.461,1167.67"/>
		<path clip-path="url(#SVGID_4_)" fill="#050F64" d="M371.198,1024.225v0.006c0,0-0.006,0-0.006-0.006H371.198z"/>
		<g opacity="0" clip-path="url(#SVGID_4_)">
			<g>
				<defs>
					<rect id="SVGID_5_" x="376.782" y="936.746" width="0.006" height="0.006"/>
				</defs>
				<clipPath id="SVGID_6_">
					<use xlink:href="#SVGID_5_"  overflow="visible"/>
				</clipPath>
				<polyline clip-path="url(#SVGID_6_)" fill="#050F64" points="376.788,936.749 376.785,936.752 376.782,936.748 376.786,936.746 
					376.788,936.749 				"/>
			</g>
		</g>
		<path clip-path="url(#SVGID_4_)" fill="#050F64" d="M371.198,1024.225v0.006c0,0-0.006,0-0.006-0.006H371.198z"/>
		<path clip-path="url(#SVGID_4_)" fill="#050F64" d="M371.198,1024.225v0.006c0,0-0.006,0-0.006-0.006H371.198z"/>
		<path clip-path="url(#SVGID_4_)" fill="#050F64" d="M465.551,1020.271h0.011l-19.584-87.961c0-0.005-89.656,5.357-89.343,7.451
			l0.51,216.285h14.125l32.209-169.359l27.934,44.09l-34.568,108.641l13.675,5.541l54.205-116.519
			C465.758,1025.771,466.003,1022.951,465.551,1020.271 M371.198,1024.229c0,0-0.006,0-0.006-0.006h0.006V1024.229z"/>
		<g opacity="0" clip-path="url(#SVGID_4_)">
			<g>
				<defs>
					<rect id="SVGID_7_" x="371.193" y="1024.225" width="0.005" height="0.006"/>
				</defs>
				<clipPath id="SVGID_8_">
					<use xlink:href="#SVGID_7_"  overflow="visible"/>
				</clipPath>
				<path clip-path="url(#SVGID_8_)" fill="#050F64" d="M371.198,1024.225v0.006c0,0-0.006,0-0.006-0.006H371.198z"/>
			</g>
		</g>
		<path clip-path="url(#SVGID_4_)" fill="#EA8096" d="M491.044,931.051c-3.598-4.908-7.275-9.506-10.763-14.165
			c-0.888-1.158-1.716-2.339-2.575-3.505c-0.841-1.176-1.727-2.323-2.529-3.518l-2.437-3.558l-1.217-1.774l-1.152-1.815
			c-6.215-9.614-11.561-19.665-16.169-30.023c-2.151-5.271-4.41-10.442-6.219-15.838l-1.432-3.998
			c-0.231-0.669-0.492-1.323-0.7-2.003l-0.625-2.039l-2.497-8.134c-0.204-0.678-0.425-1.347-0.614-2.03l-0.534-2.067l-1.067-4.128
			l-1.066-4.118l-0.533-2.056l-0.263-1.029l-0.222-1.045l-1.777-8.348c-0.588-2.779-1.223-5.533-1.652-8.364
			c-0.691-3.547-3.019-6.365-6.203-8.108c-3.184-1.737-7.223-2.4-11.3-1.471c-4.076,0.931-7.358,3.298-9.329,6.407
			c-1.973,3.102-2.636,6.944-1.512,10.655c0.899,2.908,2.018,5.778,3.086,8.65l3.218,8.599l0.402,1.071l0.445,1.063l0.898,2.122
			l1.796,4.238l1.796,4.229l0.897,2.111c0.312,0.7,0.657,1.391,0.983,2.086l3.97,8.308l0.992,2.071
			c0.33,0.689,0.716,1.36,1.072,2.042l2.175,4.064c2.789,5.455,6.052,10.695,9.184,15.95c6.585,10.368,13.909,20.251,21.952,29.386
			l1.493,1.724l1.549,1.669l3.093,3.329c1.021,1.119,2.105,2.163,3.153,3.246c1.06,1.065,2.103,2.16,3.174,3.199
			c4.258,4.212,8.598,8.249,12.623,12.318c1.308,1.376,3.71,1.392,5.472,0.031C491.842,935.125,492.268,932.746,491.044,931.051"/>
		<path clip-path="url(#SVGID_4_)" fill="#155BCD" d="M412.335,860.97l-9.713-37.52c-2.938-11.35,3.008-23.05,14.357-25.988
			c11.349-2.938,23.803,4,26.741,15.349l9.713,37.521L412.335,860.97z"/>
		<path clip-path="url(#SVGID_4_)" fill="#155BCD" d="M391.73,787.154L391.73,787.154c22.646-3.66,43.577,12.834,45.313,35.707
			l8.935,109.449c-35.133,20.256-57.104,15.655-89.925,7.407l-4.65-102.971C350.303,812.374,367.645,791.048,391.73,787.154"/>
		<path clip-path="url(#SVGID_4_)" fill="#84A9FF" d="M357.589,808.514c-2.702,4.333-4.746,9.103-6.002,14.156l1.161,0.374
			c1.234-4.987,3.25-9.694,5.93-13.96L357.589,808.514z M356.055,939.716l-1.178-26.117l-1.218,0.175l1.218,26.902l0.876,0.225
			c2.815,0.709,5.517,1.379,8.136,2.01l0.268-1.195C361.526,941.084,358.83,940.414,356.055,939.716 M441.947,867.956l-1.217,0.084
			l5.249,64.271c-6.673,3.848-12.877,6.796-18.763,8.99l0.218,1.239c6.148-2.278,12.464-5.321,19.153-9.174l0.67-0.385
			L441.947,867.956z M387.66,947.372c3.351,0.363,6.656,0.563,9.996,0.575v-1.224c-3.155-0.011-6.299-0.195-9.476-0.53
			L387.66,947.372z M352.207,854.593l-1.222-0.145l1.116,24.76h1.217L352.207,854.593z M438.256,822.77
			c-1.603-21.135-19.427-37.535-40.585-37.34c-0.876,0.005-1.759,0.044-2.641,0.111v1.218c1.011-0.073,2.016-0.111,3.015-0.111
			c20.092,0,37.425,15.484,38.999,36.212l1.597,19.595l1.201-0.269L438.256,822.77z"/>
		<polygon clip-path="url(#SVGID_4_)" fill="#050F64" points="466.518,837.87 458.713,873.332 455.184,873.544 462.981,838.083 		
			"/>
		<polygon clip-path="url(#SVGID_4_)" fill="#84A9FF" points="486.31,836.683 478.506,872.146 458.713,873.332 466.518,837.87 		"/>
		<path clip-path="url(#SVGID_4_)" fill="#F5BDC8" d="M476.436,850.513c-1.962-1.051-4.386-0.461-5.528,1.343
			c-3.469,5.295-7.08,10.469-10.972,15.286c-1.934,2.418-3.944,4.739-6.028,6.919c-2.08,2.181-4.235,4.228-6.46,6.03
			c-2.222,1.801-4.519,3.353-6.8,4.504c-0.568,0.299-1.14,0.522-1.701,0.784l-0.843,0.313l-0.417,0.158l-0.416,0.121
			c-1.105,0.378-2.177,0.538-3.206,0.668c-1.028,0.102-2.011,0.053-2.968-0.054c-0.955-0.14-1.889-0.396-2.823-0.719
			c-0.935-0.373-1.872-0.808-2.813-1.37c-0.94-0.579-1.885-1.209-2.82-1.984c-1.872-1.505-3.712-3.349-5.462-5.426
			c-1.754-2.072-3.43-4.348-5.03-6.741c-3.204-4.793-6.093-10.07-8.805-15.494c-2.699-5.447-5.216-11.074-7.599-16.809
			c-2.389-5.729-4.648-11.563-6.827-17.453c-1.469-3.698-4.368-6.422-7.887-7.827c-3.506-1.41-7.632-1.497-11.48,0.139
			s-6.632,4.681-7.99,8.277c-1.346,3.591-1.261,7.733,0.635,11.469c3.103,5.819,6.306,11.614,9.681,17.365
			c3.365,5.751,6.909,11.458,10.723,17.082c3.842,5.617,7.922,11.166,12.642,16.489c2.362,2.658,4.881,5.262,7.658,7.743
			c2.77,2.48,5.83,4.844,9.306,6.896c1.719,1.036,3.596,1.958,5.547,2.769c1.968,0.802,4.068,1.44,6.235,1.898
			c2.192,0.415,4.445,0.639,6.702,0.591c2.254-0.079,4.487-0.373,6.607-0.92c2.1-0.568,4.137-1.277,5.974-2.197l0.7-0.332
			l0.668-0.363l1.327-0.732c0.838-0.526,1.695-1.038,2.483-1.599c3.187-2.224,5.912-4.729,8.357-7.333
			c2.443-2.61,4.609-5.332,6.614-8.104c2.006-2.771,3.845-5.6,5.561-8.466c3.457-5.721,6.455-11.582,9.269-17.487
			C479.194,853.943,478.398,851.563,476.436,850.513"/>
		<path clip-path="url(#SVGID_4_)" fill="#155BCD" d="M375.588,875.876l-16.178-35.219c-4.893-10.653-1.104-23.219,9.549-28.112
			c10.653-4.894,24.136-0.261,29.029,10.393l16.178,35.219L375.588,875.876z"/>
		<path clip-path="url(#SVGID_4_)" fill="#84A9FF" d="M399.001,822.469c-0.604-1.308-1.329-2.541-2.173-3.68l-0.86,0.709
			c0.777,1.066,1.458,2.211,2.022,3.439l1.608,3.496c0.341-0.151,0.687-0.296,1.022-0.442L399.001,822.469z M384.309,871.87
			l-8.722,4.004l-4.54-9.879l-0.921,0.671l4.914,10.693l9.649-4.434L384.309,871.87z M360.923,846.636l6.087,13.246l1.055-0.387
			l-5.908-12.859H360.923z M377.993,809.479c-3.344,0-6.538,0.688-9.498,2.05c-4.59,2.105-8.158,5.668-10.252,10.168l0.91,0.693
			c1.893-4.199,5.21-7.734,9.806-9.845c5.505-2.524,11.759-2.514,17.198-0.441l0.989-0.826
			C384.315,810.11,381.21,809.479,377.993,809.479 M407.198,840.31l-0.983,0.536l4.099,8.923l0.871-0.782L407.198,840.31z
			 M402.916,863.326l-8.627,3.959l0.324,1.083l8.867-4.075L402.916,863.326z"/>
		<path clip-path="url(#SVGID_4_)" fill="#F5BDC8" d="M408.373,776.495l-3.28,27.871c-6.516,3.219-12.569,2.507-18.16-2.139
			l3.28-27.869L408.373,776.495z"/>
		<path clip-path="url(#SVGID_4_)" fill="#EA8096" d="M408.373,776.495l-1.484,12.605c-1.332,0.345-2.734,0.501-4.175,0.454
			c-0.462-0.017-0.921-0.052-1.378-0.105c-4.999-0.588-9.42-3.457-12.003-7.612l0.88-7.479L408.373,776.495z"/>
		<path clip-path="url(#SVGID_4_)" fill="#F5BDC8" d="M418.631,760.42l-1.814,11.593l-0.734,4.692
			c-1.012,6.509-6.726,11.229-13.306,11.011c-2.179-0.075-4.267-0.625-6.129-1.574c-0.432-0.219-0.853-0.461-1.258-0.72
			c-0.253-0.16-0.5-0.325-0.742-0.501c-2.316-1.693-4.13-4.061-5.106-6.889c-0.826-2.382-1.559-4.989-2.232-7.73
			c-0.388-1.565-0.755-3.176-1.105-4.81c-1.563-7.2,0.858-14.794,6.539-19.487c4.838-4.004,10.421-4.764,16.795-2.048
			C415.986,746.701,419.712,753.502,418.631,760.42"/>
		<path clip-path="url(#SVGID_4_)" fill="#050F64" d="M395.051,765.037l2.083-1.006c0,0-3.548-8.467-2.083-11.204
			c2.083-3.891,12.267-4.381,17.336-2.929c1.585,0.454,2.801,1.08,3.356,2.648c1.202,3.403,2.542,10.047,1.529,16.556
			c0,0,7.52-19.57,1.426-30.181c-3.991-6.948-7.648-11.838-16.821-7.891c-14.566,6.269-22.594,17.833-20.288,34.964l9.562-3.514
			L395.051,765.037z"/>
		<path clip-path="url(#SVGID_4_)" fill="#F5BDC8" d="M395.187,766.252c-0.393,3.344-3.759,5.695-7.516,5.254
			c-3.758-0.442-6.485-3.511-6.092-6.855c0.394-3.345,3.759-5.696,7.517-5.255C392.853,759.838,395.581,762.907,395.187,766.252"/>
		<path clip-path="url(#SVGID_4_)" fill="#050F64" d="M1300.866,805.701c0,0,6.256,24.031,26.995,21.175
			c15.714-2.164,30.337-22.562,13.419-41.369c0,0,5.437-14.964-2.803-20.395c0,0,4.766-15.166-9.339-24.604
			c-14.105-9.437-14.618-15.136-33.451-13.302c-18.833,1.833-28.372,13.513-24.924,24.178c5.953,18.409,9.852,13.934,2.934,23.219
			c-4.069,5.461,0.477,16.229,5.09,20.474c7.479,6.882,10.547,1.257,8.155,8.771c-2.393,7.512,0.944,13.426,8.341,10.751
			C1302.68,811.922,1290.143,799.507,1300.866,805.701"/>
		<polygon clip-path="url(#SVGID_4_)" fill="#155BCD" points="1214.887,824.034 1230.829,854.19 1234.078,853.498 1218.143,823.342 
					"/>
		<polygon clip-path="url(#SVGID_4_)" fill="#050F64" points="1196.669,827.913 1212.61,858.069 1230.829,854.191 1214.888,824.034 
					"/>
		<path clip-path="url(#SVGID_4_)" fill="#F5BDC8" d="M1289.833,1143.704c0,0-2.167,8.461-7.917,14.285l20.88-8.624l-0.177-2.369
			c0,0-2.322-2.826-3.764-6.673L1289.833,1143.704z"/>
		<path clip-path="url(#SVGID_4_)" fill="#050F64" d="M1303.584,1153.007l-27.021,10.125c-0.991,0.372-1.825-0.826-1.13-1.627
			l7.424-8.55c0.825-0.565,1.545-0.171,1.954,0.567c0.337,0.604,1.076,0.859,1.726,0.619l10.824-4.02
			c1.366-0.507,2.58-1.354,3.526-2.463l1.166-1.366c0.299-0.351,0.865-0.251,1.026,0.181l1.569,4.189
			C1305.003,1151.605,1304.525,1152.654,1303.584,1153.007"/>
		<path clip-path="url(#SVGID_4_)" fill="#155BCD" d="M1243.189,996.96l-0.004-0.001l0.031-0.111
			c0.121-0.515,0.266-1.023,0.432-1.524c0,0,26.865-94.837,27.05-95.485c3.458-12.212,14.417-17.706,26.795-14.902
			c12.379,2.803,20.14,15.109,17.337,27.487c0,0.001,0,0.002,0,0.003l0.002,0.001c-5.641,39.03-16.536,71.472-36.161,92.961
			l20.321,135.14l-9.697,3.561l-45.477-137.214l0.007-0.002l-0.045-0.123c-0.187-0.526-0.351-1.051-0.485-1.58l-0.01-0.025
			C1242.586,1002.39,1242.589,999.593,1243.189,996.96"/>
		<path clip-path="url(#SVGID_4_)" fill="#F5BDC8" d="M1301.783,1154.267c0,0-4.992,7.166-12.418,10.607l22.578-0.765l0.663-2.281
			c0,0-1.185-3.46-1.188-7.569L1301.783,1154.267z"/>
		<path clip-path="url(#SVGID_4_)" fill="#050F64" d="M1311.405,1167.796l-28.854,0.021c-1.061,0.001-1.42-1.413-0.489-1.919
			l9.949-5.409c0.971-0.241,1.506,0.381,1.632,1.216c0.104,0.684,0.706,1.182,1.398,1.184l11.547,0.027
			c1.457,0.003,2.891-0.366,4.165-1.073l1.571-0.871c0.403-0.223,0.897,0.068,0.898,0.529l0.003,4.474
			C1313.226,1166.979,1312.412,1167.795,1311.405,1167.796"/>
		<path clip-path="url(#SVGID_4_)" fill="#155BCD" d="M1312.248,884.418c12.664-0.832,22.395,2.755,23.227,15.42
			c0.978,5.014,1.093,5.624,1.383,7.513c6.232,40.511,4.198,74.406-9.955,100.96l-15.889,146.147l-10.286,0.944l-9.9-246.521
			c-0.001-0.009-0.002-0.018-0.003-0.026C1289.992,896.191,1299.584,885.25,1312.248,884.418"/>
		<path clip-path="url(#SVGID_4_)" fill="#84A9FF" d="M1323.746,1036.259l1.126,0.26l3.148-27.808
			c11.64-21.866,15.526-50.781,11.803-88.085l-1.085,0.654c0.866,8.805,1.32,17.325,1.309,25.52
			c-0.036,23.562-3.96,44.41-13.14,61.566L1323.746,1036.259z M1289.919,914.492l3.748,92.688l1.139-0.261
			c-0.012-0.333-3.735-92.124-3.735-92.124L1289.919,914.492z M1296.238,1070.571l3.228,82.204l1.156,0.021l-3.244-82.319
			L1296.238,1070.571z M1310.775,1154.492l-8.61,0.775v1.15l9.646-0.873l3.795-37.306l-1.12-0.267L1310.775,1154.492z"/>
		<path clip-path="url(#SVGID_4_)" fill="#EA8096" d="M1196.054,856.812l8.401,5.061l-6.103,8.284l-7.411-6.405
			c-1.93-1.592-2.381-4.271-1.028-6.106C1191.268,855.805,1193.962,855.44,1196.054,856.812"/>
		<path clip-path="url(#SVGID_4_)" fill="#FFBD00" d="M1203.646,860.427L1197,870.428c2.17,1.63,4.383,3.255,6.885,4.683
			c2.446,1.469,5.178,2.748,8.166,3.726c2.964,1.009,6.316,1.561,9.72,1.543c1.712,0.039,3.412-0.201,5.109-0.445
			c0.827-0.177,1.657-0.362,2.487-0.558c0.423-0.087,0.813-0.22,1.209-0.349l1.187-0.393l1.188-0.405
			c0.378-0.153,0.744-0.316,1.118-0.478c0.738-0.328,1.502-0.646,2.22-1c1.371-0.747,2.826-1.477,4.068-2.324
			c0.642-0.414,1.297-0.826,1.924-1.253l1.795-1.322c1.233-0.876,2.285-1.817,3.416-2.743c4.373-3.75,8.125-7.756,11.642-11.82
			c3.495-4.074,6.796-8.22,9.89-12.409c0.796-1.045,1.553-2.097,2.314-3.148l2.279-3.159c1.474-2.112,2.992-4.225,4.424-6.35
			c5.812-8.49,11.337-17.055,16.744-25.643c0.088-0.141,0.171-0.287,0.248-0.433c2.699-5.148-1.354-12.573-9.094-16.546
			l-0.036-0.019c-7.973-4.075-16.554-2.947-18.896,2.433c-3.856,9.103-7.799,18.127-11.943,26.951
			c-1.021,2.225-2.099,4.378-3.149,6.574l-1.619,3.235c-0.541,1.079-1.08,2.162-1.643,3.213c-2.195,4.28-4.516,8.4-6.935,12.376
			c-2.424,3.957-4.988,7.736-7.738,11.01c-0.694,0.782-1.374,1.649-2.09,2.344l-1.063,1.108l-1.082,0.992
			c-0.719,0.714-1.456,1.207-2.187,1.821c-0.368,0.267-0.737,0.489-1.104,0.746l-0.555,0.376l-0.556,0.296l-0.556,0.308
			c-0.187,0.107-0.372,0.221-0.561,0.283c-0.374,0.152-0.748,0.315-1.126,0.487c-0.761,0.228-1.522,0.53-2.325,0.636
			c-1.594,0.299-3.309,0.387-5.182,0.077c-0.232-0.033-0.464-0.04-0.701-0.093l-0.716-0.159c-0.481-0.12-0.961-0.176-1.453-0.34
			l-1.483-0.45c-0.496-0.132-0.998-0.369-1.5-0.547C1207.723,862.524,1205.687,861.489,1203.646,860.427"/>
		<path clip-path="url(#SVGID_4_)" fill="#FFBD00" d="M1302.796,781.882L1302.796,781.882c-26.104,0-46.096,23.221-42.214,49.035
			l10.115,68.921c18.672,6.98,43.163,6.028,64.777,0l2.529-79.858C1339.625,799.442,1323.396,781.882,1302.796,781.882"/>
		<path clip-path="url(#SVGID_4_)" fill="#FFFFFF" d="M1266.005,875.728l3.659,24.945l0.631,0.24
			c8.803,3.287,19.05,4.954,30.472,4.954c6.117,0,12.452-0.491,18.804-1.455l-0.051-1.15c-17.092,2.605-34.636,1.879-48.824-3.425
			l-3.54-24.109H1266.005z M1331.793,797.039c4.491,6.449,6.88,14.44,6.209,22.94l-1.97,62.209l1.151-0.143l1.965-62.032
			c0.67-8.471-1.701-16.954-6.593-23.868L1331.793,797.039z M1259.451,831.086l1.913,13.048l0.968-1.26l-1.753-11.954
			c-0.325-2.165-0.48-4.313-0.48-6.428c0-16.519,9.589-31.188,23.794-38.21l-0.287-1.128c-5.304,2.583-10.092,6.243-14.027,10.819
			C1261.238,805.653,1257.55,818.455,1259.451,831.086"/>
		<path clip-path="url(#SVGID_4_)" fill="#F5BDC8" d="M1289.905,776.847l3.394,25.967c6.118,2.926,11.759,2.189,16.92-2.211
			l-3.395-25.967L1289.905,776.847z"/>
		<path clip-path="url(#SVGID_4_)" fill="#EA8096" d="M1290.211,779.199l0.842,6.441c2.742,1.184,5.795,1.726,8.932,1.467
			c0.177-0.018,0.354-0.035,0.529-0.058c2.931-0.383,5.606-1.877,7.394-4.12l-0.777-5.941L1290.211,779.199z"/>
		<path clip-path="url(#SVGID_4_)" fill="#F5BDC8" d="M1279.696,753.318l2.857,18.418c1.373,8.341,8.919,14.229,17.344,13.534
			c2.461-0.203,4.974-1.44,6.574-3.622c1.735-2.367,2.748-4.852,3.649-7.415c1.719-4.891,2.979-9.601,1.991-14.688l-1.571-5.554
			l-26.678-7.612L1279.696,753.318z"/>
		<path clip-path="url(#SVGID_4_)" fill="#050F64" d="M1309.963,761.896c0,0-4.305-11.044-11.098-13.702
			c0,0,4.162-7.472,11.487,1.494c3.56,4.359,7.254,12.79,5.647,15.527C1314.396,767.953,1310.699,768.987,1309.963,761.896"/>
		<path clip-path="url(#SVGID_4_)" fill="#050F64" d="M1279.646,769.943c0.069,0.101,0.141,0.201,0.216,0.302
			c0.893-6.271,4.011-11.308,10.925-13.598c1.346-0.446,2.836-0.787,4.481-1.014c10.323-1.422,10.164-6.529,10.164-6.529
			l2.194-8.188c-28.166-11.445-29.594,11.742-28.657,23.529C1279.166,766.927,1279.468,768.902,1279.646,769.943"/>
		<path clip-path="url(#SVGID_4_)" fill="#F5BDC8" d="M1306.693,763.298c0.444,3.399,3.56,5.796,6.96,5.351
			c3.4-0.444,5.796-3.56,5.352-6.96s-3.561-5.796-6.961-5.351C1308.646,756.781,1306.249,759.897,1306.693,763.298"/>
		<path clip-path="url(#SVGID_4_)" fill="#F5BDC8" d="M1213.313,836.861l8.16,5.442l-6.477,7.994l-7.11-6.738
			c-1.854-1.679-2.181-4.377-0.746-6.147C1208.58,835.636,1211.287,835.396,1213.313,836.861"/>
		<path clip-path="url(#SVGID_4_)" fill="#FFFFFF" d="M1211.931,850.515l0.79,0.716c3.689,3.345,8.076,7.286,12.624,11.123
			c4.147,3.483,8.701,7.183,13.907,10.666c2.881,1.918,5.568,3.488,8.214,4.799c1.363,0.688,2.904,1.364,4.703,2.058
			c2.039,0.743,3.66,1.236,5.281,1.603c2.651,0.625,5.367,0.94,8.076,0.94c1.316,0,2.629-0.08,3.895-0.229
			c3.534-0.407,7.217-1.421,10.716-2.962l-0.515-1.019c-3.146,1.368-6.673,2.423-10.333,2.841c-3.98,0.475-7.996,0.155-11.582-0.688
			c-1.81-0.406-3.494-0.957-5.126-1.553c-1.604-0.618-3.156-1.283-4.604-2.016c-2.922-1.443-5.573-3.054-8.082-4.726
			c-5.007-3.351-9.469-6.948-13.811-10.585c-4.324-3.648-8.477-7.366-12.595-11.101l3.607-4.594l-0.944-0.647L1211.931,850.515z
			 M1248.291,857.469c1.965,0.922,3.923,1.746,5.814,2.394l-0.527-1.403c-1.507-0.556-3.111-1.231-4.795-2.027
			c-4.914-2.32-9.846-5.275-13.598-7.584c-1.987-1.231-3.964-2.486-5.877-3.729c-0.234,0.305-0.476,0.608-0.709,0.905
			c1.992,1.289,3.985,2.562,5.984,3.798C1239.155,852.64,1243.749,855.32,1248.291,857.469 M1309.24,854.197l0.888,0.728
			c0.063-0.068,0.132-0.144,0.195-0.212c7.692-8.346,14.869-16.862,21.806-25.1l0.389-0.458c0.139-0.166,0.265-0.332,0.385-0.492
			c1.632-2.257,2.233-5.074,1.734-8.15c-0.584-3.626-2.605-7.183-5.664-10.064l-0.676,0.939c5.287,5.075,6.959,12.063,3.678,16.599
			c-0.104,0.149-0.218,0.292-0.332,0.431c-7.16,8.493-14.349,17.04-22.161,25.517C1309.401,854.02,1309.321,854.111,1309.24,854.197
			 M1278.843,848.831l0.498,1.185c0.126-0.137,0.241-0.28,0.361-0.423c3.11-3.752,6.14-7.939,9.106-12.275
			c5.522-8.11,10.884-16.708,16.244-25.38l-0.996-0.561c-5.224,8.442-10.613,17.097-16.197,25.294
			C1284.45,841.671,1281.581,845.531,1278.843,848.831"/>
		<path clip-path="url(#SVGID_4_)" fill="#FFBD00" d="M1220.907,840.939l-7.417,9.443c4.114,3.731,8.271,7.449,12.596,11.098
			c4.339,3.641,8.801,7.237,13.806,10.59c2.508,1.671,5.164,3.277,8.085,4.724c1.449,0.731,3.001,1.396,4.604,2.015
			c1.631,0.595,3.319,1.146,5.126,1.557c3.586,0.839,7.604,1.16,11.581,0.686c3.977-0.456,7.8-1.656,11.139-3.204
			c3.379-1.541,6.313-3.402,9.011-5.327c2.695-1.936,5.139-3.96,7.442-6.014c4.591-4.111,8.68-8.336,12.604-12.569
			c7.814-8.479,15.001-17.024,22.159-25.519c0.115-0.139,0.229-0.285,0.333-0.431c3.723-5.143,1.073-13.437-5.988-18.526
			l-0.032-0.022c-7.27-5.219-16.253-4.932-19.722,0.59c-5.755,9.313-11.492,18.584-17.425,27.289
			c-2.967,4.339-5.995,8.524-9.105,12.275c-3.1,3.727-6.332,7.016-9.368,9.058c-1.522,1.039-2.949,1.748-4.418,2.204
			c-1.467,0.452-3.046,0.645-4.889,0.531c-0.916-0.049-1.896-0.206-2.906-0.397c-1.021-0.229-2.069-0.484-3.152-0.842
			c-2.16-0.688-4.409-1.61-6.676-2.68c-4.541-2.146-9.141-4.828-13.708-7.645C1230.013,846.991,1225.457,843.987,1220.907,840.939"
			/>
		<polygon clip-path="url(#SVGID_4_)" fill="#050F64" points="1089.418,777.615 1081.869,810.904 1078.549,811.082 
			1086.093,777.794 		"/>
		<polygon clip-path="url(#SVGID_4_)" fill="#155BCD" points="1108.03,776.618 1100.481,809.907 1081.868,810.904 1089.418,777.615 
					"/>
		<path clip-path="url(#SVGID_4_)" fill="#EA8096" d="M1123.146,859.481c1.358,1.838,1.154,4.326-0.468,5.683
			c-4.803,4.004-9.693,7.945-14.881,11.663c-5.188,3.716-10.615,7.269-16.824,10.199c-3.107,1.454-6.442,2.741-10.152,3.587
			c-3.677,0.857-7.832,1.221-12.128,0.574c-4.29-0.631-8.554-2.382-12.035-4.73c-3.53-2.339-6.361-5.136-8.798-7.969
			c-2.445-2.846-4.467-5.767-6.321-8.688c-1.847-2.923-3.498-5.854-5.047-8.784c-3.083-5.856-5.769-11.701-8.328-17.521
			c-5.092-11.644-9.688-23.201-14.317-34.672c-2.755-7.343,1.767-15.633,9.933-18.276s16.703,1.516,18.722,9.09
			c2.918,11.999,5.771,23.95,8.946,35.537c1.594,5.785,3.277,11.479,5.188,16.895c0.958,2.701,1.976,5.331,3.077,7.821
			c1.103,2.484,2.286,4.851,3.579,6.908c1.289,2.068,2.667,3.86,4.104,5.19c1.44,1.353,2.899,2.266,4.652,2.865
			c3.466,1.221,8.597,0.756,13.845-0.864c5.271-1.588,10.672-4.04,15.97-6.788c5.313-2.743,10.559-5.835,15.763-9.027
			C1119.365,857.072,1121.786,857.645,1123.146,859.481"/>
		<path clip-path="url(#SVGID_4_)" fill="#84A9FF" d="M1026.075,846.043l-11.685-32.997c-3.535-9.98-0.242-20.572,8.203-23.563
			s18.843,2.753,22.378,12.733l11.685,32.997L1026.075,846.043z"/>
		<path clip-path="url(#SVGID_4_)" fill="#F5BDC8" d="M939.748,1137.319c0,0-0.03,8.74,4.071,15.828l-18.051-13.609l0.768-2.249
			c0,0,2.96-2.152,5.324-5.516L939.748,1137.319z"/>
		<path clip-path="url(#SVGID_4_)" fill="#050F64" d="M924.089,1142.868l23.62,16.607c0.867,0.61,1.976-0.341,1.504-1.291
			l-5.038-10.149c-0.656-0.756-1.452-0.555-2.035,0.057c-0.478,0.502-1.259,0.563-1.827,0.166l-9.472-6.617
			c-1.195-0.836-2.157-1.962-2.794-3.274l-0.786-1.616c-0.202-0.414-0.774-0.46-1.039-0.083l-2.576,3.662
			C923.066,1141.152,923.266,1142.289,924.089,1142.868"/>
		<path clip-path="url(#SVGID_4_)" fill="#F5BDC8" d="M1032.245,1154.089c0,0,5.01,7.162,12.446,10.592l-22.594-0.724l-0.67-2.281
			c0,0,1.181-3.465,1.176-7.576L1032.245,1154.089z"/>
		<path clip-path="url(#SVGID_4_)" fill="#050F64" d="M1022.642,1167.646l28.875-0.033c1.06-0.001,1.418-1.417,0.485-1.921
			l-9.966-5.394c-0.972-0.239-1.506,0.383-1.631,1.219c-0.102,0.685-0.704,1.185-1.396,1.188l-11.556,0.049
			c-1.458,0.006-2.894-0.361-4.17-1.066l-1.573-0.869c-0.403-0.223-0.898,0.07-0.897,0.531l0.005,4.477
			C1020.818,1166.831,1021.636,1167.646,1022.642,1167.646"/>
		<path clip-path="url(#SVGID_4_)" fill="#050F64" d="M999.867,906.642h0.003c0-0.001,0-0.002,0-0.003
			c0.569-12.688,43.697-21.679,43.128-8.99c0,0.009,3.612,102.699,3.612,102.699c0.038,4.337-0.152,8.672-0.569,12.987
			l-13.584,140.961h-9.938l-10.773-145.429C997.075,982.605,994.801,947.3,999.867,906.642"/>
		<path clip-path="url(#SVGID_4_)" fill="#050F64" d="M985.771,1005.894c-12.83-26.234-14.076-60.554-8.364-99.73h0.003
			c0-0.001,0-0.002,0-0.003c0.833-12.673,11.78-22.271,24.454-21.438c12.673,0.833,22.271,11.781,21.438,24.454
			c-0.001,0.009-0.002,0.018-0.003,0.026c0,0-1.178,97.796-1.206,98.301l-0.001,0.144h-0.008c-0.162,2.521-0.864,5.033-2.15,7.353
			l-0.015,0.023c-0.267,0.477-79.904,122.716-79.904,122.716l-8.477-5.916L985.771,1005.894z"/>
		<path clip-path="url(#SVGID_4_)" fill="#155BCD" d="M990.076,1060.906l0.791,0.89l30.067-46.238
			c1.175-2.121,1.914-4.408,2.201-6.804c0,0,0.138-2.265,0.12-2.797l1.038-84.038l-1.155-0.014l-1.046,85.742h-0.012
			c-0.16,2.522-0.859,5.033-2.149,7.354l-0.011,0.022c-0.271,0.476-0.563,0.94-0.872,1.404l-0.08,0.109h0.012L990.076,1060.906z
			 M935.154,1123.429l50.616-117.535c-2.573-5.262-4.683-10.85-6.361-16.742l-1.112,0.27c1.668,5.875,3.743,11.372,6.213,16.502
			l-50.485,117.219L935.154,1123.429z M935.699,1134.731c-0.207,0.321-0.413,0.643-0.625,0.957l5.256,3.668l19.975-30.664
			l-0.86-0.779l-19.43,29.827L935.699,1134.731z M973.167,938.815l1.146-0.052c0.378-10.408,1.445-21.305,3.097-32.603
			c0.021-0.378,0.057-0.75,0.103-1.122h-1.152c-0.034,0.32-0.063,0.642-0.086,0.968C974.57,917.683,973.534,928.607,973.167,938.815
			"/>
		<path clip-path="url(#SVGID_4_)" fill="#050F64" d="M1016.182,782.84c0,0-22.399,1.409-24.901-25.871
			c0,0,10.805-5.988,11.514-6.193c0.71-0.205,12.648,18.46,12.648,18.46L1016.182,782.84z"/>
		<path clip-path="url(#SVGID_4_)" fill="#84A9FF" d="M1002.334,782.276L1002.334,782.276c26.052-1.91,47.702,19.802,45.716,45.849
			l-5.052,69.523c-18.123,8.332-42.635,9.174-64.646,4.739l-8.367-79.515C966.863,802.495,981.774,783.783,1002.334,782.276"/>
		<path clip-path="url(#SVGID_4_)" fill="#E5E6EB" d="M970.316,836.938l6.98,66.409l0.828,0.163
			c4.294,0.869,8.653,1.527,13.001,1.966l-0.004-1.149c-4.308-0.441-8.581-1.1-12.769-1.942l-6.896-65.511L970.316,836.938z
			 M1019.786,783.417l-0.157,1.148c17.58,6.184,29.943,23.599,28.423,43.561l-3.916,53.901l1.163-0.212l3.897-53.606
			c0.968-12.743-3.65-25.25-12.675-34.302C1031.751,789.126,1026.018,785.568,1019.786,783.417"/>
		<path clip-path="url(#SVGID_4_)" fill="#F5BDC8" d="M1019.598,773.06l-4.961,25.732c-6.287,2.553-11.877,1.476-16.766-3.232
			l4.96-25.732L1019.598,773.06z"/>
		<path clip-path="url(#SVGID_4_)" fill="#EA8096" d="M1019.149,775.392l-1.229,6.382c-2.812,1.017-5.893,1.375-9.011,0.926
			c-0.176-0.028-0.351-0.056-0.525-0.09c-2.904-0.561-5.486-2.213-7.136-4.563l1.136-5.887L1019.149,775.392z"/>
		<path clip-path="url(#SVGID_4_)" fill="#F5BDC8" d="M1031.218,750.174l-3.246,14.917l-0.723,3.31
			c-1.877,8.247-9.769,13.672-18.143,12.471c-0.831-0.119-1.666-0.359-2.46-0.718c-0.302-0.139-0.603-0.289-0.896-0.462
			c-0.062-0.031-0.122-0.07-0.184-0.108c-1.101-0.676-2.072-1.596-2.809-2.731c-1.59-2.468-2.452-5.012-3.196-7.624
			c-0.648-2.277-1.202-4.517-1.491-6.751c-0.345-2.656-0.311-5.313,0.389-8.044l1.909-5.449l7.105-6.256l19.998,0.266
			L1031.218,750.174z"/>
		<path clip-path="url(#SVGID_4_)" fill="#050F64" d="M996.305,742.176c0.321-0.418,0.641-0.787,0.96-1.136
			c-1.294-0.604-2.364-1.533-3.067-2.767c-2.258-3.956,0.095-9.551,5.255-12.495c5.159-2.944,11.173-2.123,13.43,1.833
			c0.954,1.672,1.077,3.636,0.521,5.569c10.752-2.312,18.828,7.609,19.875,13.646c1.209,6.969-0.56,12.97-0.56,12.97
			c3.111,1.98,2.887,11.357-2.438,13.617c-6.803,2.888-3.578,9.645-3.578,9.645c-2.541-2.412-3.332-8.522,0.64-11.301
			c2.69-1.883,5.328-3.919,3.547-7.486c-1.063-2.132-1.985-4.441-3.09-6.839c-2.056-4.463-6.176-7.683-11.023-8.482
			c-0.036-0.005-0.07-0.011-0.106-0.017c-6.994-1.126-8.67-3.985-9.069-5.395c-1.292,1.573-2.344,3.59-3.176,5.611
			c0.139,0.505,0.336,1.019,0.606,1.543c4.815,9.349-7.13,20.325-7.13,20.325s8.402-9.596,4.868-17.024
			c-0.608,2.162-0.891,3.709-0.891,3.709c0.443,6.53-6.88,6.223-8.754,3.992C988.63,756.345,993.154,746.273,996.305,742.176"/>
		<path clip-path="url(#SVGID_4_)" fill="#F5BDC8" d="M1003.647,758.511c-0.648,3.369-3.907,5.574-7.275,4.924
			c-3.369-0.648-5.574-3.905-4.925-7.275c0.649-3.368,3.906-5.573,7.276-4.924C1002.093,751.884,1004.297,755.142,1003.647,758.511"
			/>
		<path clip-path="url(#SVGID_4_)" fill="#F5BDC8" d="M1098.113,782.361c2.272,0.246,3.965,2.084,3.86,4.195
			c-0.312,6.244-0.731,12.513-1.514,18.846c-0.786,6.333-1.854,12.731-3.91,19.283c-1.036,3.271-2.352,6.594-4.245,9.894
			c-1.862,3.285-4.412,6.587-7.799,9.306c-3.373,2.727-7.551,4.674-11.639,5.641c-4.111,1.009-8.087,1.193-11.82,1.064
			c-3.75-0.132-7.269-0.625-10.672-1.241c-3.401-0.625-6.677-1.399-9.879-2.246c-6.396-1.704-12.514-3.691-18.526-5.756
			c-12.012-4.15-23.624-8.607-35.195-12.981c-7.265-2.952-10.294-11.896-6.701-19.692c3.593-7.795,12.438-11.25,19.375-7.6
			c10.799,5.99,21.518,11.995,32.188,17.516c5.333,2.75,10.659,5.372,15.936,7.64c2.637,1.127,5.258,2.162,7.836,3.041
			c2.573,0.874,5.115,1.607,7.506,2.052c2.394,0.455,4.646,0.656,6.597,0.502c1.971-0.141,3.632-0.595,5.261-1.477
			c3.247-1.722,6.383-5.809,8.75-10.765c2.407-4.951,4.266-10.584,5.837-16.341c1.586-5.766,2.869-11.718,4.05-17.708
			C1093.779,783.506,1095.842,782.114,1098.113,782.361"/>
		<path clip-path="url(#SVGID_4_)" fill="#84A9FF" d="M1022.427,844.608l-32.179-13.781c-9.732-4.168-15.286-13.77-11.76-22.005
			c3.527-8.234,14.798-11.984,24.532-7.816l32.178,13.78L1022.427,844.608z"/>
		<path clip-path="url(#SVGID_4_)" fill="#E5E6EB" d="M1008.354,839.826l14.678,6.289l13.675-31.932l-12.133-5.196l-0.396,1.079
			l11.022,4.723l-12.774,29.82l-13.584-5.819L1008.354,839.826z M989.799,831.88l1.69,0.725c0.139-0.357,0.272-0.718,0.409-1.07
			l-1.647-0.706c-9.656-4.138-15.197-13.618-11.839-21.803c-0.342-0.21-0.674-0.415-0.997-0.613
			C973.756,817.039,979.184,827.338,989.799,831.88"/>
		<path clip-path="url(#SVGID_4_)" fill="#050F64" d="M1503.436,1182.7H49.354c-3.844,0-6.96-3.358-6.96-7.5s3.116-7.5,6.96-7.5
			h1454.082c3.844,0,6.959,3.358,6.959,7.5S1507.279,1182.7,1503.436,1182.7"/>
		<polygon clip-path="url(#SVGID_4_)" fill="#155BCD" points="643.715,0.001 743.42,40.266 757.338,74.678 725.908,57.964 
			731.294,46.872 		"/>
		<polygon clip-path="url(#SVGID_4_)" fill="#84A9FF" points="743.42,40.266 782.395,14.99 643.715,0.001 		"/>
		<polygon clip-path="url(#SVGID_4_)" fill="#84A9FF" points="731.294,46.873 709.471,91.815 643.715,0 		"/>
		<path clip-path="url(#SVGID_4_)" fill="#155BCD" d="M790.853,94.002c-2.359-2.356-4.717-4.775-7.008-7.189l2.175-2.065
			c2.273,2.394,4.612,4.794,6.953,7.131L790.853,94.002z"/>
		<path clip-path="url(#SVGID_4_)" fill="#155BCD" d="M1301.686,512.06c-6.238-2.044-12.526-4.245-18.692-6.542l1.048-2.812
			c6.128,2.283,12.378,4.471,18.578,6.503L1301.686,512.06z M1264.577,498.237c-6.052-2.531-12.147-5.222-18.116-7.999l1.266-2.72
			c5.934,2.76,11.991,5.435,18.008,7.952L1264.577,498.237z M1228.674,481.538c-5.835-2.995-11.702-6.153-17.438-9.384l1.473-2.614
			c5.702,3.213,11.534,6.351,17.335,9.329L1228.674,481.538z M1194.176,462.103c-5.594-3.441-11.199-7.041-16.662-10.699
			l1.669-2.493c5.432,3.637,11.005,7.216,16.565,10.637L1194.176,462.103z M1161.276,440.073
			c-5.317-3.863-10.63-7.882-15.792-11.946l1.854-2.357c5.133,4.04,10.415,8.036,15.7,11.876L1161.276,440.073z M1130.163,415.583
			c-5.003-4.26-9.991-8.676-14.827-13.126l2.032-2.208c4.807,4.425,9.766,8.815,14.739,13.05L1130.163,415.583z M1101.029,388.767
			c-4.664-4.641-9.294-9.431-13.762-14.238l2.196-2.042c4.442,4.778,9.045,9.54,13.683,14.153L1101.029,388.767z M1074.074,359.762
			c-4.29-4.997-8.528-10.137-12.6-15.278l2.353-1.863c4.046,5.111,8.259,10.22,12.522,15.187L1074.074,359.762z M1049.497,328.713
			c-3.392-4.658-6.746-9.44-9.968-14.212c-0.456-0.675-0.91-1.353-1.363-2.033l2.497-1.663c0.449,0.674,0.899,1.347,1.353,2.017
			c3.202,4.743,6.535,9.496,9.906,14.125L1049.497,328.713z M1027.615,295.675c-3.453-5.863-6.653-11.724-9.51-17.42l2.682-1.345
			c2.826,5.636,5.994,11.437,9.413,17.242L1027.615,295.675z M1009.915,260.159c-2.546-6.329-4.738-12.65-6.515-18.787l2.882-0.834
			c1.749,6.041,3.907,12.266,6.416,18.501L1009.915,260.159z M999.004,221.954c-1.034-6.415-1.628-12.807-1.768-19.012
			c-6.1-1.205-12.248-2.568-18.293-4.054l0.716-2.913c6.348,1.56,12.811,2.983,19.21,4.23l-0.364,1.871l1.715-0.027
			c0.101,6.325,0.688,12.862,1.746,19.427L999.004,221.954z M1074.393,210.554c-5.668,0-11.426-0.127-17.111-0.376l0.132-2.997
			c6.539,0.286,13.142,0.408,19.663,0.364l0.02,3C1076.195,210.551,1075.294,210.554,1074.393,210.554 M1096.905,209.896
			l-0.175-2.995c6.531-0.383,13.125-0.944,19.593-1.666l0.333,2.981C1110.135,208.944,1103.49,209.509,1096.905,209.896
			 M1037.511,208.812c-6.536-0.617-13.155-1.407-19.677-2.349l0.428-2.969c6.474,0.935,13.044,1.719,19.53,2.331L1037.511,208.812z
			 M1136.305,205.393l-0.55-2.949c7.066-1.317,13.249-2.896,18.904-4.828l0.97,2.838
			C1149.835,202.435,1143.515,204.05,1136.305,205.393 M959.82,193.695c-6.303-1.875-12.646-3.93-18.852-6.107l0.993-2.831
			c6.162,2.161,12.458,4.201,18.714,6.063L959.82,193.695z M1173.796,191.992l-1.588-2.545c5.576-3.479,10.499-7.674,14.63-12.468
			l2.272,1.959C1184.782,183.96,1179.629,188.353,1173.796,191.992 M1001.468,182.608l-2.968-0.437
			c0.168-1.145,0.355-2.29,0.559-3.434c0.952-5.369,2.325-10.754,4.079-16.003l2.847,0.951c-1.708,5.11-3.045,10.351-3.973,15.577
			C1001.813,180.377,1001.632,181.492,1001.468,182.608 M922.436,180.581c-6.1-2.475-12.215-5.13-18.178-7.891l1.262-2.722
			c5.919,2.741,11.989,5.376,18.044,7.833L922.436,180.581z M886.485,163.93c-5.833-3.052-11.663-6.287-17.328-9.614l1.519-2.587
			c5.624,3.303,11.411,6.514,17.2,9.543L886.485,163.93z M1199.374,161.555l-2.831-0.996c1.188-3.369,1.943-6.82,2.248-10.256
			c0.107-1.204,0.161-2.427,0.161-3.634c0-1.62-0.097-3.261-0.29-4.877l2.978-0.355c0.207,1.733,0.313,3.493,0.313,5.232
			c0,1.295-0.058,2.607-0.173,3.899C1201.452,154.253,1200.643,157.95,1199.374,161.555 M1013.711,145.818l-2.643-1.419
			c3.143-5.852,6.805-11.486,10.883-16.746l2.371,1.838C1020.345,134.62,1016.775,140.113,1013.711,145.818 M852.322,143.863
			c-5.51-3.613-10.993-7.407-16.297-11.276l1.768-2.424c5.264,3.84,10.706,7.606,16.174,11.191L852.322,143.863z M1192.444,123.853
			c-3.085-5.271-7.191-10.269-12.201-14.853l2.024-2.214c5.233,4.788,9.528,10.02,12.766,15.552L1192.444,123.853z M820.316,120.505
			c-5.122-4.149-10.193-8.478-15.074-12.868l2.006-2.231c4.842,4.356,9.875,8.651,14.956,12.768L820.316,120.505z M1037.497,115.156
			l-2.03-2.209c4.939-4.538,10.265-8.641,15.827-12.195l1.616,2.528C1047.494,106.74,1042.308,110.736,1037.497,115.156
			 M1164.49,97.766c-3.801-2.093-7.758-3.894-11.759-5.352c-2.018-0.735-4.092-1.421-6.165-2.039l0.855-2.875
			c2.132,0.635,4.264,1.34,6.336,2.096c4.146,1.511,8.243,3.375,12.18,5.542L1164.49,97.766z M1070.175,94.321l-1.141-2.775
			c6.114-2.513,12.526-4.524,19.061-5.979l0.652,2.928C1082.379,89.913,1076.13,91.873,1070.175,94.321 M1127.501,86.474
			c-6.403-0.743-12.972-0.949-19.46-0.609l-0.157-2.996c6.656-0.349,13.394-0.137,19.963,0.625L1127.501,86.474z"/>
		<path clip-path="url(#SVGID_4_)" fill="#155BCD" d="M1330.426,520.517c-3.215-0.839-6.473-1.726-9.683-2.636l0.818-2.886
			c3.19,0.904,6.427,1.785,9.622,2.619L1330.426,520.517z"/>
	</g>
</g>
</svg>
