<?xml version="1.0" encoding="utf-8"?>
<!-- Generator: Adobe Illustrator 16.0.0, SVG Export Plug-In . SVG Version: 6.00 Build 0)  -->
<!DOCTYPE svg PUBLIC "-//W3C//DTD SVG 1.1//EN" "http://www.w3.org/Graphics/SVG/1.1/DTD/svg11.dtd">
<svg version="1.1" id="圖層_1" xmlns="http://www.w3.org/2000/svg" xmlns:xlink="http://www.w3.org/1999/xlink" x="0px" y="0px"
	 width="1768.189px" height="1398.58px" viewBox="0 0 1768.189 1398.58" enable-background="new 0 0 1768.189 1398.58"
	 xml:space="preserve">
<g>
	<defs>
		<rect id="SVGID_1_" width="1768.189" height="1398.58"/>
	</defs>
	<clipPath id="SVGID_2_">
		<use xlink:href="#SVGID_1_"  overflow="visible"/>
	</clipPath>
	<g clip-path="url(#SVGID_2_)">
		<defs>
			<rect id="SVGID_3_" y="0.002" width="1768.194" height="1398.578"/>
		</defs>
		<clipPath id="SVGID_4_">
			<use xlink:href="#SVGID_3_"  overflow="visible"/>
		</clipPath>
		<path clip-path="url(#SVGID_4_)" fill="#E5E6EB" d="M1768.193,1347.154c0,28.402-395.824,51.426-884.097,51.426
			C395.824,1398.58,0,1375.557,0,1347.154s395.824-51.426,884.097-51.426C1372.369,1295.729,1768.193,1318.752,1768.193,1347.154"/>
		<path clip-path="url(#SVGID_4_)" fill="#84A9FF" d="M508.28,568.997c4.662,24.435,6.733,42.391,7.524,50.371
			c0.295,2.988,0.417,4.588,0.417,4.588c-2.016-0.46-4.01-0.939-6.004-1.418c-5.802-1.405-11.521-2.897-17.143-4.48
			c-14.755-4.116-28.872-8.795-42.401-13.971l-0.016-0.009C162.741,493.926,145.73,158.662,145.73,158.662
			c73.387,12.124,132.333,40.519,179.666,77.662c8.536,6.693,16.694,13.669,24.478,20.888
			C454.046,353.633,493.75,492.819,508.28,568.997"/>
		<path clip-path="url(#SVGID_4_)" fill="#155BCD" d="M515.803,619.368c0.295,2.988,0.417,4.588,0.417,4.588
			c-2.015-0.46-4.01-0.939-6.004-1.419c-48.688-58.944-96.992-118.201-144.878-177.791c-4.541-5.657-9.082-11.314-13.597-16.977
			c-20.206-25.244-40.269-50.603-60.187-76.067l-18.2-23.441l-18.006-23.61c-6.001-7.866-11.835-15.855-17.761-23.793
			c-2.982-3.938-5.809-7.996-8.704-12.009l-8.627-12.069l8.794,11.946c2.929,3.991,5.821,7.992,8.862,11.901
			c6.035,7.844,11.967,15.754,18.067,23.542l18.321,23.343l18.523,23.198c18.937,23.569,38.016,47.021,57.203,70.379
			c5.927,7.222,11.851,14.431,17.797,21.622C416.743,501.94,466.087,560.808,515.803,619.368"/>
		<path clip-path="url(#SVGID_4_)" fill="#155BCD" d="M276.797,299.444c-0.247,0.144-0.542,0.213-0.849,0.179
			c-0.759-0.084-1.306-0.767-1.222-1.526c2.167-19.56,0.484-39.91-4.865-58.849c-0.208-0.734,0.215-1.508,0.955-1.707
			c0.734-0.208,1.499,0.22,1.707,0.955c5.446,19.279,7.159,39.995,4.953,59.904C277.426,298.853,277.162,299.231,276.797,299.444"/>
		<path clip-path="url(#SVGID_4_)" fill="#155BCD" d="M352.75,388.821c-0.216,0.126-0.468,0.195-0.736,0.187
			c-0.764-0.022-1.365-0.66-1.343-1.423c0.638-21.809,3.074-43.728,7.24-65.15c0.145-0.749,0.872-1.238,1.621-1.095
			c0.75,0.146,1.239,0.872,1.093,1.622c-4.136,21.276-6.555,43.046-7.188,64.704C353.422,388.162,353.149,388.588,352.75,388.821"/>
		<path clip-path="url(#SVGID_4_)" fill="#155BCD" d="M323.466,425.371c-0.231,0.157-0.512,0.246-0.813,0.238
			c-24.954-0.64-49.482-5.341-72.902-13.97c-0.717-0.263-1.084-1.059-0.821-1.776c0.267-0.717,1.06-1.083,1.777-0.82
			c23.136,8.525,47.366,13.169,72.017,13.802c0.764,0.019,1.367,0.654,1.347,1.417C324.059,424.725,323.822,425.129,323.466,425.371
			"/>
		<path clip-path="url(#SVGID_4_)" fill="#155BCD" d="M254.653,322.444c-0.351,0.327-0.86,0.463-1.352,0.311l-56.523-17.432
			c-0.73-0.226-1.139-0.999-0.914-1.729c0.226-0.73,0.998-1.14,1.729-0.915l56.523,17.432c0.731,0.226,1.14,0.999,0.915,1.73
			C254.956,322.081,254.824,322.285,254.653,322.444"/>
		<path clip-path="url(#SVGID_4_)" fill="#155BCD" d="M431.875,483.042c-0.222,0.129-0.482,0.198-0.757,0.187
			c-0.763-0.034-1.354-0.68-1.321-1.443l2.73-61.922c0.033-0.764,0.681-1.355,1.442-1.322c0.763,0.033,1.355,0.68,1.321,1.442
			l-2.729,61.923C432.539,482.395,432.268,482.813,431.875,483.042"/>
		<path clip-path="url(#SVGID_4_)" fill="#155BCD" d="M391.141,506.809c-0.215,0.126-0.467,0.195-0.734,0.188l-63.782-1.784
			c-0.764-0.022-1.365-0.658-1.345-1.423c0.021-0.764,0.659-1.363,1.422-1.343l63.781,1.784c0.765,0.021,1.366,0.658,1.345,1.422
			C391.814,506.149,391.54,506.576,391.141,506.809"/>
		<g opacity="0.3" clip-path="url(#SVGID_4_)">
			<g>
				<defs>
					<rect id="SVGID_5_" x="339.909" y="257.21" width="176.312" height="366.745"/>
				</defs>
				<clipPath id="SVGID_6_">
					<use xlink:href="#SVGID_5_"  overflow="visible"/>
				</clipPath>
				<path clip-path="url(#SVGID_6_)" fill="#155BCD" d="M508.28,568.997c4.662,24.435,6.733,42.391,7.524,50.371
					c0.295,2.988,0.417,4.588,0.417,4.588c-2.016-0.46-4.01-0.939-6.004-1.418c-5.802-1.405-11.521-2.897-17.143-4.48
					c-14.755-4.116-28.872-8.795-42.401-13.971l-0.016-0.009c-0.785-0.779-37.441-36.903-68.374-97.31
					c-0.477-0.924-0.946-1.864-1.415-2.804c-11.245-22.348-21.63-47.93-29.126-76.195c-0.585-2.21-1.161-4.435-1.715-6.68
					c-11.794-48.059-15.03-103.546-0.152-163.877C454.046,353.633,493.75,492.819,508.28,568.997"/>
			</g>
		</g>
		<path clip-path="url(#SVGID_4_)" fill="#84A9FF" d="M515.455,625.337c-1.095,2.799-1.723,4.273-1.723,4.273
			c-1.577-1.328-3.141-2.658-4.693-4.002C240.076,393.625,396.436,46.521,396.436,46.521
			C657.127,239.624,532.086,583.213,515.455,625.337"/>
		<path clip-path="url(#SVGID_4_)" fill="#155BCD" d="M515.455,625.337c-1.095,2.799-1.723,4.273-1.723,4.273
			c-1.577-1.328-3.141-2.658-4.693-4.002c-16.414-74.668-32.359-149.44-47.769-224.318c-7.97-38.768-15.724-77.587-23.186-116.46
			l-5.493-29.167l-5.253-29.218c-1.751-9.744-3.297-19.512-4.946-29.274c-0.856-4.867-1.521-9.77-2.263-14.668l-2.16-14.673
			l2.365,14.649c0.792,4.883,1.533,9.769,2.453,14.632c1.789,9.729,3.463,19.477,5.341,29.188l5.646,29.133l5.889,29.094
			c7.982,38.754,16.257,77.455,24.747,116.092C480.909,475.643,497.953,550.547,515.455,625.337"/>
		<path clip-path="url(#SVGID_4_)" fill="#155BCD" d="M448.802,231.599c-0.286,0.016-0.579-0.058-0.837-0.228
			c-0.637-0.421-0.812-1.279-0.391-1.916c10.855-16.415,18.645-35.29,22.528-54.583c0.151-0.748,0.88-1.244,1.629-1.083
			c0.749,0.15,1.234,0.88,1.083,1.628c-3.952,19.641-11.883,38.854-22.932,55.563C449.631,231.36,449.224,231.576,448.802,231.599"
			/>
		<path clip-path="url(#SVGID_4_)" fill="#155BCD" d="M475.594,345.789c-0.25,0.014-0.505-0.04-0.74-0.169
			c-0.67-0.369-0.914-1.21-0.546-1.88c10.521-19.113,22.692-37.505,36.175-54.665c0.471-0.601,1.341-0.703,1.943-0.234
			c0.6,0.472,0.704,1.341,0.232,1.942c-13.391,17.043-25.478,35.31-35.926,54.292C476.493,345.509,476.055,345.765,475.594,345.789"
			/>
		<path clip-path="url(#SVGID_4_)" fill="#155BCD" d="M432.856,364.945c-0.277,0.035-0.568-0.015-0.832-0.159
			c-21.912-11.958-41.591-27.335-58.492-45.701c-0.517-0.562-0.481-1.438,0.081-1.956c0.565-0.515,1.437-0.48,1.955,0.082
			c16.695,18.144,36.135,33.334,57.781,45.147c0.67,0.366,0.917,1.207,0.552,1.877C433.679,364.642,433.284,364.893,432.856,364.945
			"/>
		<path clip-path="url(#SVGID_4_)" fill="#155BCD" d="M418.602,241.958c-0.461,0.131-0.977,0.02-1.345-0.34l-42.337-41.307
			c-0.547-0.534-0.558-1.409-0.025-1.956c0.535-0.546,1.409-0.558,1.956-0.024l42.338,41.307c0.547,0.534,0.558,1.408,0.024,1.956
			C419.038,241.773,418.827,241.895,418.602,241.958"/>
		<path clip-path="url(#SVGID_4_)" fill="#155BCD" d="M502.998,465.736c-0.256,0.014-0.519-0.044-0.758-0.179
			c-0.664-0.378-0.896-1.223-0.518-1.886l30.69-53.853c0.378-0.664,1.223-0.894,1.886-0.517c0.664,0.378,0.895,1.223,0.517,1.886
			l-30.689,53.852C503.883,465.463,503.452,465.711,502.998,465.736"/>
		<path clip-path="url(#SVGID_4_)" fill="#155BCD" d="M455.906,468.293c-0.249,0.013-0.505-0.04-0.739-0.168l-55.938-30.696
			c-0.67-0.368-0.914-1.209-0.547-1.879c0.367-0.671,1.208-0.913,1.878-0.547l55.938,30.696c0.67,0.368,0.914,1.208,0.547,1.879
			C456.807,468.014,456.368,468.269,455.906,468.293"/>
		<path clip-path="url(#SVGID_4_)" fill="#84A9FF" d="M1118.777,531.126c-2.576,1.548-3.973,2.333-3.973,2.333
			c-0.438-2.015-0.865-4.023-1.275-6.034C1042.091,179.498,1377.814,0.001,1377.814,0.001
			C1466.435,312.083,1157.664,507.913,1118.777,531.126"/>
		<path clip-path="url(#SVGID_4_)" fill="#155BCD" d="M1118.777,531.126c-2.576,1.548-3.973,2.333-3.973,2.333
			c-0.438-2.015-0.865-4.023-1.275-6.034c32.577-69.164,65.588-138.123,99.087-206.839c17.353-35.573,34.905-71.054,52.724-106.4
			l13.451-26.456l13.676-26.35c4.56-8.787,9.298-17.468,13.949-26.207c2.294-4.377,4.76-8.666,7.161-12.999l7.246-12.941
			l-7.068,13.047c-2.354,4.351-4.748,8.673-6.988,13.087c-4.521,8.798-9.146,17.541-13.586,26.379l-13.312,26.523l-13.094,26.639
			c-17.334,35.57-34.402,71.276-51.261,107.062C1182.787,391.467,1150.566,461.204,1118.777,531.126"/>
		<path clip-path="url(#SVGID_4_)" fill="#155BCD" d="M1306.321,178.565c-0.236-0.162-0.424-0.399-0.524-0.691
			c-0.246-0.723,0.139-1.509,0.86-1.757c18.618-6.376,36.311-16.572,51.162-29.483c0.576-0.501,1.456-0.448,1.951,0.136
			c0.502,0.576,0.44,1.451-0.136,1.951c-15.119,13.145-33.129,23.523-52.079,30.013
			C1307.123,178.882,1306.669,178.805,1306.321,178.565"/>
		<path clip-path="url(#SVGID_4_)" fill="#155BCD" d="M1257.841,285.368c-0.206-0.141-0.376-0.34-0.483-0.586
			c-0.305-0.7,0.016-1.516,0.715-1.821c20.002-8.718,40.867-15.857,62.022-21.219c0.74-0.189,1.492,0.261,1.681,1
			c0.188,0.74-0.261,1.493-1.001,1.68c-21.01,5.326-41.733,12.417-61.597,21.075C1258.724,285.695,1258.222,285.63,1257.841,285.368
			"/>
		<path clip-path="url(#SVGID_4_)" fill="#155BCD" d="M1212.296,274.454c-0.241-0.142-0.44-0.359-0.562-0.634
			c-10.058-22.847-16.26-47.039-18.436-71.903c-0.066-0.761,0.497-1.432,1.258-1.499c0.763-0.064,1.433,0.497,1.498,1.257
			c2.15,24.564,8.276,48.462,18.211,71.031c0.308,0.699-0.01,1.516-0.709,1.823C1213.133,274.715,1212.667,274.673,1212.296,274.454
			"/>
		<path clip-path="url(#SVGID_4_)" fill="#155BCD" d="M1276.076,168.336c-0.444-0.178-0.784-0.581-0.857-1.09l-8.321-58.562
			c-0.106-0.757,0.418-1.456,1.175-1.564c0.756-0.107,1.456,0.417,1.564,1.174l8.321,58.562c0.106,0.757-0.419,1.457-1.175,1.565
			C1276.534,168.455,1276.294,168.423,1276.076,168.336"/>
		<path clip-path="url(#SVGID_4_)" fill="#155BCD" d="M1206.331,397.104c-0.211-0.145-0.385-0.351-0.491-0.605
			c-0.295-0.705,0.037-1.515,0.741-1.81l57.18-23.923c0.706-0.295,1.517,0.039,1.812,0.742c0.295,0.704-0.038,1.515-0.742,1.809
			l-57.18,23.924C1207.199,397.429,1206.706,397.362,1206.331,397.104"/>
		<path clip-path="url(#SVGID_4_)" fill="#155BCD" d="M1167.47,370.385c-0.205-0.141-0.375-0.34-0.483-0.584l-25.569-58.459
			c-0.308-0.701,0.013-1.515,0.713-1.822c0.7-0.308,1.514,0.015,1.821,0.712l25.57,58.459c0.307,0.701-0.013,1.516-0.713,1.823
			C1168.354,370.712,1167.851,370.647,1167.47,370.385"/>
		<g opacity="0.3" clip-path="url(#SVGID_4_)">
			<g>
				<defs>
					<rect id="SVGID_7_" x="1178.22" y="242.88" width="191.94" height="195.728"/>
				</defs>
				<clipPath id="SVGID_8_">
					<use xlink:href="#SVGID_7_"  overflow="visible"/>
				</clipPath>
				<path clip-path="url(#SVGID_8_)" fill="#155BCD" d="M1370.164,242.89c0,0-91.377-4.155-191.94,148.683l91.892,47.035
					L1370.164,242.89z"/>
			</g>
		</g>
		<path clip-path="url(#SVGID_4_)" fill="#84A9FF" d="M1177.398,656.919c-22.13,11.363-38.773,18.412-46.207,21.421
			c-2.783,1.126-4.283,1.694-4.283,1.694c-0.127-2.064-0.23-4.113-0.333-6.161c-0.288-5.963-0.47-11.87-0.535-17.711
			c-0.211-15.316,0.298-30.18,1.449-44.619l0.005-0.018c24.504-307.292,341.37-418.14,341.37-418.14
			c9.06,73.828-1.564,138.388-23.854,194.274c-4.015,10.076-8.408,19.871-13.139,29.374
			C1368.734,544.164,1246.387,621.5,1177.398,656.919"/>
		<path clip-path="url(#SVGID_4_)" fill="#155BCD" d="M1131.191,678.34c-2.783,1.126-4.284,1.694-4.284,1.694
			c-0.127-2.064-0.229-4.112-0.332-6.161c42.826-63.332,86.06-126.383,129.73-189.128c4.146-5.952,8.294-11.903,12.454-17.832
			c18.522-26.504,37.196-52.903,56.012-79.192l17.358-24.072l17.574-23.932c5.856-7.975,11.875-15.825,17.821-23.749
			c2.938-3.971,6.033-7.827,9.067-11.737l9.146-11.679l-8.98,11.805c-3.003,3.936-6.027,7.838-8.92,11.858
			c-5.824,8.002-11.741,15.924-17.492,23.972l-17.231,24.16l-17.034,24.311c-17.272,24.814-34.395,49.731-51.395,74.726
			c-5.258,7.723-10.504,15.439-15.727,23.171C1215.926,550.191,1173.358,614.13,1131.191,678.34"/>
		<path clip-path="url(#SVGID_4_)" fill="#155BCD" d="M1370.748,358.827c-0.208-0.197-0.357-0.46-0.411-0.764
			c-0.134-0.752,0.368-1.469,1.12-1.602c19.377-3.437,38.427-10.789,55.089-21.261c0.646-0.406,1.508-0.219,1.907,0.436
			c0.406,0.646,0.212,1.501-0.435,1.907c-16.962,10.661-36.354,18.145-56.078,21.642
			C1371.492,359.265,1371.055,359.117,1370.748,358.827"/>
		<path clip-path="url(#SVGID_4_)" fill="#155BCD" d="M1306.411,456.899c-0.182-0.172-0.318-0.394-0.387-0.654
			c-0.194-0.738,0.248-1.495,0.987-1.689c21.103-5.537,42.819-9.38,64.548-11.423c0.759-0.073,1.434,0.488,1.507,1.247
			c0.072,0.76-0.487,1.434-1.248,1.506c-21.579,2.03-43.146,5.847-64.105,11.346
			C1307.233,457.358,1306.747,457.216,1306.411,456.899"/>
		<path clip-path="url(#SVGID_4_)" fill="#155BCD" d="M1263.088,439.108c-0.216-0.177-0.38-0.422-0.458-0.713
			c-6.422-24.122-8.827-48.98-7.151-73.883c0.051-0.762,0.711-1.339,1.474-1.288c0.762,0.054,1.338,0.711,1.287,1.473
			c-1.656,24.602,0.72,49.158,7.063,72.987c0.196,0.738-0.242,1.496-0.98,1.692C1263.875,439.495,1263.421,439.381,1263.088,439.108
			"/>
		<path clip-path="url(#SVGID_4_)" fill="#155BCD" d="M1342.438,344.066c-0.414-0.244-0.687-0.695-0.681-1.209l0.789-59.145
			c0.01-0.764,0.637-1.375,1.401-1.365c0.764,0.011,1.375,0.637,1.365,1.402l-0.789,59.144c-0.011,0.765-0.638,1.375-1.401,1.365
			C1342.872,344.255,1342.638,344.186,1342.438,344.066"/>
		<path clip-path="url(#SVGID_4_)" fill="#155BCD" d="M1238.323,559.379c-0.188-0.176-0.326-0.406-0.393-0.673
			c-0.184-0.742,0.271-1.492,1.011-1.674l60.181-14.841c0.743-0.183,1.491,0.271,1.675,1.011c0.184,0.742-0.27,1.492-1.011,1.674
			l-60.181,14.841C1239.131,559.834,1238.653,559.691,1238.323,559.379"/>
		<path clip-path="url(#SVGID_4_)" fill="#155BCD" d="M1204.035,527c-0.181-0.171-0.317-0.394-0.387-0.652l-16.271-61.697
			c-0.194-0.739,0.246-1.495,0.985-1.691c0.738-0.196,1.494,0.248,1.689,0.985l16.271,61.697c0.195,0.739-0.246,1.495-0.984,1.691
			C1204.858,527.458,1204.371,527.316,1204.035,527"/>
		<g opacity="0.3" clip-path="url(#SVGID_4_)">
			<g>
				<defs>
					<rect id="SVGID_9_" x="1125.99" y="417.033" width="305.88" height="263.001"/>
				</defs>
				<clipPath id="SVGID_10_">
					<use xlink:href="#SVGID_9_"  overflow="visible"/>
				</clipPath>
				<path clip-path="url(#SVGID_10_)" fill="#155BCD" d="M1177.398,656.919c-22.13,11.363-38.773,18.412-46.207,21.421
					c-2.783,1.126-4.283,1.694-4.283,1.694c-0.127-2.064-0.23-4.113-0.333-6.161c-0.288-5.963-0.47-11.87-0.535-17.711
					c-0.211-15.316,0.298-30.18,1.449-44.619l0.005-0.018c0.525-0.973,24.848-46.327,74.083-93.036
					c0.752-0.719,1.521-1.434,2.291-2.149c18.271-17.09,39.887-34.266,64.892-49.428c1.956-1.184,3.928-2.364,5.925-3.528
					c42.785-24.866,95.108-43.615,157.187-46.351C1368.734,544.164,1246.387,621.5,1177.398,656.919"/>
			</g>
		</g>
		<path clip-path="url(#SVGID_4_)" fill="#84A9FF" d="M1125.366,679.688c-2.994-0.262-4.586-0.448-4.586-0.448
			c0.831-1.888,1.665-3.763,2.517-5.631C1270.034,350.15,1647.143,402.3,1647.143,402.3
			C1535.375,706.86,1170.47,683.769,1125.366,679.688"/>
		<path clip-path="url(#SVGID_4_)" fill="#155BCD" d="M1125.366,679.688c-2.994-0.262-4.586-0.448-4.586-0.448
			c0.831-1.888,1.665-3.763,2.517-5.631c67.012-36.801,134.253-73.181,201.748-109.078c34.949-18.577,70.006-36.962,105.199-55.081
			l26.434-13.494l26.554-13.278c8.854-4.427,17.79-8.664,26.69-12.999c4.429-2.194,8.944-4.214,13.435-6.307l13.469-6.209
			l-13.388,6.399c-4.461,2.137-8.94,4.225-13.347,6.479c-8.83,4.46-17.71,8.814-26.498,13.354l-26.358,13.631l-26.253,13.853
			c-34.933,18.585-69.73,37.436-104.406,56.476C1259.247,604.337,1192.188,641.811,1125.366,679.688"/>
		<path clip-path="url(#SVGID_4_)" fill="#155BCD" d="M1484.337,504.725c-0.095-0.27-0.107-0.572-0.017-0.867
			c0.224-0.73,0.998-1.14,1.728-0.915c18.811,5.786,39.115,7.938,58.72,6.224c0.762-0.066,1.442,0.494,1.498,1.257
			c0.067,0.761-0.495,1.432-1.256,1.499c-19.958,1.745-40.629-0.446-59.774-6.336C1484.8,505.453,1484.479,505.125,1484.337,504.725
			"/>
		<path clip-path="url(#SVGID_4_)" fill="#155BCD" d="M1382.334,562.626c-0.083-0.236-0.104-0.496-0.046-0.758
			c0.163-0.746,0.902-1.217,1.648-1.053c21.306,4.705,42.381,11.196,62.647,19.294c0.709,0.283,1.053,1.089,0.771,1.798
			c-0.283,0.709-1.088,1.054-1.797,0.77c-20.127-8.042-41.061-14.488-62.219-19.16
			C1382.855,563.41,1382.487,563.061,1382.334,562.626"/>
		<path clip-path="url(#SVGID_4_)" fill="#155BCD" d="M1351.905,527.024c-0.111-0.256-0.146-0.549-0.082-0.844
			c5.295-24.394,14.499-47.61,27.354-69.004c0.395-0.654,1.244-0.866,1.899-0.473c0.653,0.396,0.866,1.244,0.473,1.898
			c-12.701,21.134-21.794,44.069-27.024,68.167c-0.161,0.746-0.898,1.22-1.645,1.058
			C1352.428,527.727,1352.077,527.419,1351.905,527.024"/>
		<path clip-path="url(#SVGID_4_)" fill="#155BCD" d="M1465.883,478.671c-0.256-0.406-0.293-0.932-0.053-1.386l27.694-52.266
			c0.357-0.676,1.193-0.933,1.87-0.575c0.675,0.358,0.933,1.194,0.574,1.869l-27.693,52.267c-0.359,0.675-1.194,0.932-1.87,0.575
			C1466.184,479.037,1466.008,478.869,1465.883,478.671"/>
		<path clip-path="url(#SVGID_4_)" fill="#155BCD" d="M1274.979,622.737c-0.086-0.242-0.105-0.51-0.042-0.778
			c0.176-0.744,0.921-1.204,1.664-1.028l60.32,14.26c0.744,0.176,1.202,0.922,1.028,1.664c-0.175,0.744-0.921,1.204-1.664,1.028
			l-60.319-14.26C1275.49,623.51,1275.132,623.166,1274.979,622.737"/>
		<path clip-path="url(#SVGID_4_)" fill="#155BCD" d="M1259.249,578.278c-0.083-0.235-0.104-0.496-0.048-0.756l13.68-62.324
			c0.164-0.746,0.901-1.218,1.648-1.054c0.746,0.162,1.217,0.902,1.055,1.647l-13.68,62.323c-0.164,0.747-0.901,1.218-1.648,1.055
			C1259.771,579.062,1259.402,578.714,1259.249,578.278"/>
		<path clip-path="url(#SVGID_4_)" fill="#E5E6EB" d="M1282.681,265.433c0,0,4.785-1.34,10.925-3.06
			c3.071-0.888,6.421-1.954,9.737-2.952c1.652-0.5,3.284-0.994,4.839-1.464c1.524-0.476,2.976-0.929,4.301-1.342
			c10.593-3.212,15.006-0.795,13.463,5.146c-0.381,1.477-1.801,3.452-4.085,5.352c-2.281,1.9-5.554,3.62-9.418,4.713
			c-3.85,1.106-8.464,1.436-13.507,0.526C1293.896,271.45,1288.431,269.3,1282.681,265.433"/>
		<path clip-path="url(#SVGID_4_)" fill="#E5E6EB" d="M1282.681,265.433c0,0,0.723-4.966,1.405-11.117
			c0.323-3.094,0.555-6.552,0.75-9.823c0.093-1.642,0.176-3.239,0.218-4.76c0.02-1.538,0.02-2.984-0.003-4.287
			c-0.205-10.397-4.096-13.499-8.837-11.207c-1.19,0.581-2.469,2.14-3.419,4.478c-0.95,2.342-1.705,5.362-1.685,9.047
			c0.034,3.697,0.664,7.916,2.421,12.581C1275.297,255.012,1278.181,260.129,1282.681,265.433"/>
		<path clip-path="url(#SVGID_4_)" fill="#E5E6EB" d="M1306.415,235.727c0,0,1.01-0.393,2.669-1.039
			c1.66-0.647,3.997-1.536,6.532-2.616c5.105-2.133,11.337-4.735,15.852-6.621c8.918-3.646,12.941-1.891,12.127,3.346
			c-0.426,2.58-4.161,7.329-10.775,9.797c-3.285,1.245-7.15,1.998-11.614,1.657C1316.737,239.91,1311.779,238.542,1306.415,235.727"
			/>
		<path clip-path="url(#SVGID_4_)" fill="#E5E6EB" d="M1306.415,235.727c0,0,0.04-1.077,0.105-2.846
			c0.057-1.761,0.143-4.181,0.097-6.931c-0.023-2.735-0.083-5.733-0.193-8.597c-0.093-2.855-0.372-5.665-0.606-7.918
			c-1.026-9.041-4.651-11.433-8.611-8.996c-2.022,1.218-3.875,5.956-3.332,12.306c0.29,3.19,1.304,6.879,3.243,10.768
			C1299.054,227.396,1302.018,231.558,1306.415,235.727"/>
		<path clip-path="url(#SVGID_4_)" fill="#E5E6EB" d="M1327.852,201.875c0,0,3.083-1.657,7.038-3.784
			c4.023-2.098,8.718-4.836,12.185-6.631c3.461-1.792,6.006-2.438,7.658-2.091c1.654,0.344,2.503,1.722,2.39,3.827
			c-0.111,2.098-2.802,6.111-7.781,8.68C1344.259,204.403,1336.979,205.425,1327.852,201.875"/>
		<path clip-path="url(#SVGID_4_)" fill="#E5E6EB" d="M1327.852,201.875c0,0-0.279-3.532-0.75-7.916
			c-0.413-4.362-1.281-9.675-2.021-13.282c-0.741-3.614-1.925-5.841-3.293-6.882c-1.368-1.038-2.833-0.85-4.357,0.319
			c-1.529,1.174-2.77,5.159-1.699,10.328C1316.71,189.552,1319.998,195.953,1327.852,201.875"/>
		<path clip-path="url(#SVGID_4_)" fill="#E5E6EB" d="M1343.89,168.98c0,0,2.432-1.632,5.553-3.727
			c3.138-2.087,6.804-4.737,9.542-6.491c2.715-1.76,4.801-2.477,6.197-2.32c1.405,0.16,2.212,1.229,2.284,2.97
			c0.085,1.741-1.827,5.246-5.729,7.771C1357.787,169.696,1351.772,171.125,1343.89,168.98"/>
		<path clip-path="url(#SVGID_4_)" fill="#E5E6EB" d="M1343.89,168.98c0,0-0.521-2.898-1.265-6.496
			c-0.733-3.6-1.891-7.956-2.782-10.902c-0.913-2.958-2.043-4.715-3.265-5.475c-1.214-0.755-2.427-0.482-3.611,0.622
			c-1.176,1.114-1.917,4.557-0.599,8.791C1333.644,159.73,1336.848,164.751,1343.89,168.98"/>
		<path clip-path="url(#SVGID_4_)" fill="#E5E6EB" d="M1256.98,288.188c44.152-39.397,78.084-90.471,97.33-146.855
			c-17.781,56.863-50.501,109.183-94.206,150.266L1256.98,288.188z"/>
		<path clip-path="url(#SVGID_4_)" fill="#E5E6EB" d="M1349.061,142.288c1.84-3.749,5.353-6.346,8.736-8.793
			c0.607-0.439,1.376-0.898,2.057-0.585c0.758,0.349,0.836,1.38,0.771,2.211c-0.409,5.136-2.163,10.144-4.967,14.459
			c-1.018,1.565-2.853,4.846-4.773,5.366c-2.196,0.594-3.005-2.08-3.167-3.687C1347.412,148.218,1347.699,145.062,1349.061,142.288"
			/>
		<path clip-path="url(#SVGID_4_)" fill="#E5E6EB" d="M1398.894,498.658c-1.042-1.333-3.412-2.48-7.239-3.321
			c-6.259-1.222-16.315-3.186-20.115-3.929c11.111-4.557,22.028-9.571,32.713-15.031c4.555,6.508,9.962,9.247,14.537,9.909
			c4.63,0.639,8.389-0.758,9.478-2.133c2.177-2.788,0.482-5.171-5.976-6.055c-3.238-0.46-7.791-0.855-11.567-1.299
			c-2.659-0.3-4.88-0.551-5.974-0.675c3.271-1.677,6.52-3.397,9.747-5.157c0.092,0.075,0.178,0.152,0.289,0.222
			c1.93,1.219,7.59-0.368,9.729-0.802c4.793-0.974,9.5-2.91,13.055-6.269c1.51-1.426,2.87-3.532,2.106-5.463
			c-0.856-2.164-3.727-2.587-6.042-2.367c-6.435,0.611-12.533,3.753-16.959,8.431c-1.241,1.311-3.989,4.091-2.528,5.901
			c-3.25,1.665-6.52,3.29-9.81,4.871c0.543-0.917,1.708-2.897,3.037-5.244c1.843-3.236,3.898-7.302,5.209-10.141
			c2.601-5.711,1.327-8.401-1.942-8.207c-1.65,0.086-4.561,2.246-6.419,6.345c-1.844,3.998-2.75,9.825-0.317,17.453
			c-10.808,5.18-21.826,9.904-33.018,14.163c0.839-1.192,2.191-3.131,3.701-5.362c2.529-3.655,5.367-8.304,7.185-11.574
			c1.821-3.274,2.392-5.756,2.029-7.434c-0.363-1.678-1.626-2.48-3.589-2.545c-1.969-0.064-5.604,2.239-8.202,6.93
			c-2.548,4.466-4.16,11.251-2.188,20.392c-12.087,4.564-24.371,8.581-36.805,12.043c0.096-0.11,0.19-0.22,0.294-0.338
			c1.164-1.352,2.771-3.209,4.496-5.391c1.733-2.16,3.611-4.551,5.37-6.87c1.765-2.305,3.37-4.668,4.648-6.583
			c5.071-7.726,3.813-11.886-0.926-12.444c-2.396-0.301-6.997,2.247-10.688,7.598c-1.841,2.694-3.425,6.218-4.381,10.487
			c-0.881,3.94-1.191,8.613-0.57,14.034c-11.564,3.168-23.257,5.845-35.031,8.036c1.459-1.439,3.463-3.434,5.652-5.673
			c2.191-2.266,4.55-4.864,6.77-7.346c1.109-1.248,2.185-2.469,3.183-3.651c0.992-1.205,1.911-2.35,2.721-3.396
			c6.46-8.362,5.376-13.222,0.067-14.299c-1.334-0.267-3.372,0.19-5.646,1.464c-2.272,1.276-4.816,3.235-7.146,6.177
			c-2.326,2.956-4.483,6.711-5.986,11.496c-1.361,4.35-2.178,9.559-2.057,15.678c-11.513,2.073-23.102,3.681-34.731,4.799
			l0.502,4.598c11.727-1.43,23.383-3.351,34.939-5.738c2.172,5.693,4.977,10.157,8.124,13.584c3.468,3.784,7.335,6.325,11.065,7.813
			c3.734,1.503,7.371,2.139,10.341,2.05c2.972-0.087,5.308-0.764,6.521-1.692c4.878-3.721,2.946-8.361-7.436-12.353
			c-5.295-1.991-12.607-4.739-18.602-6.992c-2.953-1.159-5.582-2.191-7.494-2.941c11.795-2.509,23.481-5.502,35.014-8.98
			c2.354,4.889,5.174,8.637,8.209,11.434c3.295,3.039,6.802,4.871,10.152,5.951c6.721,2.196,12.619,0.883,14.583-0.86
			c3.943-3.556,1.962-7.467-7.319-10.237c-4.737-1.35-11.281-3.214-16.645-4.742c-2.686-0.739-5.094-1.483-6.818-2.002
			c-0.121-0.036-0.23-0.069-0.346-0.104c12.393-3.795,24.609-8.139,36.6-13.019c4.74,8.013,10.818,11.681,16.191,12.939
			c5.497,1.216,10.152-0.129,11.597-1.669C1399.687,501.584,1399.938,499.991,1398.894,498.658"/>
		<path clip-path="url(#SVGID_4_)" fill="#E5E6EB" d="M381.017,383.877c1.659-0.333,4.204,0.339,7.657,2.193
			c5.546,3.147,14.458,8.204,17.826,10.115c-5.467-10.694-10.489-21.608-15.043-32.707c-7.694,1.973-13.582,0.532-17.485-1.945
			c-3.93-2.53-5.874-6.037-5.806-7.789c0.163-3.535,3.001-4.24,8.479-0.706c2.756,1.759,6.47,4.424,9.625,6.545
			c2.213,1.504,4.062,2.76,4.973,3.378c-1.391-3.403-2.737-6.824-4.04-10.26c-0.118-0.003-0.233-0.001-0.363-0.02
			c-2.259-0.331-5.522-5.221-6.863-6.944c-3.004-3.859-5.316-8.394-5.827-13.257c-0.217-2.065,0.121-4.55,1.958-5.518
			c2.059-1.085,4.513,0.462,6.128,2.137c4.485,4.653,7.068,11.009,7.382,17.441c0.088,1.803,0.364,5.702-1.923,6.125
			c1.382,3.38,2.806,6.742,4.274,10.084c0.185-1.049,0.59-3.311,1.109-5.957c0.708-3.656,1.795-8.082,2.649-11.089
			c1.744-6.028,4.463-7.24,6.818-4.965c1.197,1.14,1.999,4.675,0.741,8.995c-1.203,4.236-4.31,9.248-11.123,13.454
			c4.831,10.969,10.119,21.729,15.84,32.247c0.139-1.451,0.375-3.803,0.682-6.479c0.46-4.422,1.333-9.798,2.082-13.463
			c0.749-3.67,1.932-5.926,3.3-6.964c1.368-1.037,2.849-0.824,4.381,0.405c1.536,1.234,2.796,5.348,1.713,10.6
			c-0.973,5.049-4.167,11.248-11.616,16.902c6.203,11.334,12.913,22.382,20.095,33.105c-0.001-0.147-0.002-0.291-0.003-0.449
			c-0.003-1.784-0.014-4.24,0.097-7.019c0.091-2.767,0.223-5.804,0.398-8.711c0.16-2.899,0.48-5.737,0.757-8.023
			c1.181-9.166,4.845-11.504,8.805-8.841c2.015,1.331,3.847,6.26,3.165,12.724c-0.357,3.245-1.449,6.951-3.503,10.812
			c-1.896,3.565-4.703,7.314-8.704,11.024c6.715,9.934,13.846,19.578,21.357,28.908c-0.171-2.043-0.393-4.862-0.597-7.986
			c-0.188-3.148-0.286-6.655-0.355-9.984c-0.029-1.67-0.051-3.296-0.038-4.843c0.031-1.56,0.079-3.028,0.145-4.35
			c0.541-10.552,4.528-13.535,9.259-10.896c1.187,0.666,2.436,2.34,3.332,4.787c0.895,2.449,1.55,5.592,1.403,9.341
			c-0.16,3.758-0.967,8.012-2.942,12.623c-1.799,4.188-4.57,8.674-8.646,13.24c7.388,9.068,15.137,17.833,23.237,26.255
			l-3.375,3.162c-7.969-8.72-15.566-17.768-22.783-27.103c-5.355,2.907-10.391,4.469-15.011,5.021
			c-5.095,0.615-9.685,0.026-13.486-1.274c-3.813-1.291-6.988-3.176-9.184-5.177c-2.198-2.001-3.53-4.036-3.846-5.529
			c-1.281-6.001,3.207-8.265,13.685-4.536c5.315,1.937,12.656,4.612,18.672,6.804c2.996,1.044,5.663,1.972,7.602,2.648
			c-7.319-9.585-14.239-19.464-20.729-29.613c-4.969,2.178-9.549,3.187-13.674,3.335c-4.48,0.161-8.334-0.732-11.58-2.095
			c-6.531-2.708-10.154-7.546-10.509-10.146c-0.678-5.266,3.372-6.945,12.22-3.005c4.475,2.06,10.655,4.905,15.721,7.237
			c2.52,1.188,4.832,2.192,6.478,2.92c0.116,0.051,0.221,0.098,0.33,0.146c-6.934-10.949-13.379-22.2-19.303-33.711
			c-8.815,2.996-15.816,1.823-20.713-0.72c-4.964-2.657-7.622-6.708-7.716-8.817C378.51,385.582,379.355,384.209,381.017,383.877"/>
		<rect x="467.062" y="238.776" clip-path="url(#SVGID_4_)" fill="#155BCD" width="808.167" height="1092.558"/>
		<rect x="544.398" y="311.953" clip-path="url(#SVGID_4_)" fill="#FFFFFF" width="653.493" height="946.203"/>
		<rect x="639.045" y="211.547" clip-path="url(#SVGID_4_)" fill="#84A9FF" width="479.617" height="136.144"/>
		<path clip-path="url(#SVGID_4_)" fill="#84A9FF" d="M878.854,49.951c-60.134,0-108.882,48.748-108.882,108.875
			c0,60.134,48.748,108.882,108.882,108.882s108.882-48.748,108.882-108.882C987.735,98.699,938.987,49.951,878.854,49.951
			 M878.854,211.545c-29.118,0-52.719-23.601-52.719-52.719c0-29.111,23.601-52.719,52.719-52.719s52.719,23.608,52.719,52.719
			C931.572,187.944,907.972,211.545,878.854,211.545"/>
		<rect x="607.027" y="500.408" clip-path="url(#SVGID_4_)" fill="#E5E6EB" width="194.812" height="100.439"/>
		<rect x="848.597" y="490.018" clip-path="url(#SVGID_4_)" fill="#E5E6EB" width="183.56" height="20.78"/>
		<rect x="1043.124" y="490.018" clip-path="url(#SVGID_4_)" fill="#E5E6EB" width="98.707" height="20.78"/>
		<rect x="848.597" y="535.042" clip-path="url(#SVGID_4_)" fill="#E5E6EB" width="64.073" height="20.78"/>
		<rect x="923.926" y="535.042" clip-path="url(#SVGID_4_)" fill="#E5E6EB" width="64.073" height="20.78"/>
		<rect x="999.254" y="535.042" clip-path="url(#SVGID_4_)" fill="#E5E6EB" width="109.963" height="20.78"/>
		<rect x="848.597" y="580.066" clip-path="url(#SVGID_4_)" fill="#E5E6EB" width="151.523" height="20.78"/>
		<rect x="1013.109" y="580.066" clip-path="url(#SVGID_4_)" fill="#E5E6EB" width="117.755" height="20.78"/>
		<rect x="827.817" y="625.091" clip-path="url(#SVGID_4_)" fill="#E5E6EB" width="83.814" height="20.78"/>
		<rect x="607.027" y="625.091" clip-path="url(#SVGID_4_)" fill="#E5E6EB" width="198.278" height="20.78"/>
		<rect x="607.314" y="670.115" clip-path="url(#SVGID_4_)" fill="#E5E6EB" width="278.083" height="20.78"/>
		<rect x="607.314" y="715.139" clip-path="url(#SVGID_4_)" fill="#E5E6EB" width="128.723" height="20.78"/>
		<rect x="750.468" y="715.139" clip-path="url(#SVGID_4_)" fill="#E5E6EB" width="156.838" height="20.78"/>
		<rect x="994.637" y="715.139" clip-path="url(#SVGID_4_)" fill="#E5E6EB" width="96.398" height="20.78"/>
		<rect x="607.314" y="760.163" clip-path="url(#SVGID_4_)" fill="#E5E6EB" width="240.706" height="20.78"/>
		<rect x="865.336" y="760.163" clip-path="url(#SVGID_4_)" fill="#E5E6EB" width="78.504" height="20.78"/>
		<rect x="607.314" y="805.188" clip-path="url(#SVGID_4_)" fill="#E5E6EB" width="372.315" height="20.779"/>
		<rect x="607.314" y="850.211" clip-path="url(#SVGID_4_)" fill="#E5E6EB" width="229.738" height="20.78"/>
		<rect x="850.329" y="850.211" clip-path="url(#SVGID_4_)" fill="#E5E6EB" width="263.218" height="20.78"/>
		<rect x="607.314" y="895.235" clip-path="url(#SVGID_4_)" fill="#E5E6EB" width="317.478" height="20.779"/>
		<rect x="733.151" y="945.995" clip-path="url(#SVGID_4_)" fill="#E5E6EB" width="150.946" height="20.78"/>
		<rect x="733.151" y="991.021" clip-path="url(#SVGID_4_)" fill="#E5E6EB" width="87.739" height="20.779"/>
		<rect x="733.15" y="1036.044" clip-path="url(#SVGID_4_)" fill="#E5E6EB" width="120.209" height="20.78"/>
		<rect x="733.15" y="1081.068" clip-path="url(#SVGID_4_)" fill="#E5E6EB" width="135.361" height="20.779"/>
		<rect x="733.15" y="1126.092" clip-path="url(#SVGID_4_)" fill="#E5E6EB" width="84.276" height="20.78"/>
		<rect x="733.15" y="1171.116" clip-path="url(#SVGID_4_)" fill="#E5E6EB" width="108.953" height="20.78"/>
		<rect x="943.84" y="895.235" clip-path="url(#SVGID_4_)" fill="#E5E6EB" width="154.121" height="20.779"/>
		<path clip-path="url(#SVGID_4_)" fill="#E5E6EB" d="M712.406,1056.824H607.314V945.995h105.092V1056.824z M624.09,1039.132h71.541
			v-75.445H624.09V1039.132z"/>
		<path clip-path="url(#SVGID_4_)" fill="#E5E6EB" d="M712.406,1191.896H607.314v-110.829h105.092V1191.896z M624.09,1174.205
			h71.541v-75.446H624.09V1174.205z"/>
		<polygon clip-path="url(#SVGID_4_)" fill="#84A9FF" points="1076.473,1081.183 1068.096,1112.621 1056.398,1008.119 
			1026.235,1081.183 995.949,1081.183 994.618,1086.193 987.572,1112.621 984.609,1086.193 984.05,1081.183 975.874,1008.119 
			945.711,1081.183 907.306,1081.183 907.306,1086.193 951.684,1086.193 971.456,1038.282 976.266,1081.183 976.825,1086.193 
			984.419,1154.023 1002.503,1086.193 1032.207,1086.193 1034.276,1081.183 1051.98,1038.282 1056.789,1081.183 1057.35,1086.193 
			1064.942,1154.023 1083.027,1086.193 1122.35,1086.193 1122.35,1081.183 		"/>
		<path clip-path="url(#SVGID_4_)" fill="#FF654F" d="M664.931,1050.186l-52.435-38.188c-2.872-2.093-3.505-6.116-1.413-8.989
			c2.092-2.872,6.116-3.504,8.989-1.413l40.148,29.241l42.892-85.786c1.589-3.178,5.454-4.465,8.632-2.877
			c3.178,1.589,4.466,5.454,2.877,8.632L664.931,1050.186z"/>
		<path clip-path="url(#SVGID_4_)" fill="#FF654F" d="M664.931,1185.258l-52.435-38.188c-2.872-2.092-3.505-6.116-1.413-8.989
			c2.092-2.872,6.116-3.505,8.989-1.413l40.148,29.241l42.892-85.786c1.589-3.177,5.454-4.465,8.632-2.877
			c3.178,1.589,4.466,5.454,2.877,8.632L664.931,1185.258z"/>
		<rect x="600.459" y="386.361" clip-path="url(#SVGID_4_)" fill="#155BCD" width="541.372" height="84.284"/>
		<path clip-path="url(#SVGID_4_)" fill="#FF654F" d="M945.034,739.075l84.727,85.911l85.91-84.725
			c74.597-73.566-10.128-159.478-84.724-85.91C958.438,580.831,872.529,665.556,945.034,739.075"/>
		<path clip-path="url(#SVGID_4_)" fill="#050F64" d="M1357.574,1347.154l-74.599,0.004c0.056-2.554,0.555-5.009,2.097-6.992
			c1.768-2.291,4.637-3.489,7.477-3.979c2.852-0.49,5.773-0.36,8.659-0.502c7.077-0.348,14.068-2.372,20.238-5.864
			c3.223-1.807,6.239-4.034,9.719-5.302l20.332,0.531c2.782,2.998,4.571,6.928,5.433,10.963
			C1357.716,1339.665,1357.802,1343.419,1357.574,1347.154"/>
		<polygon clip-path="url(#SVGID_4_)" fill="#155BCC" points="1507.036,1105.897 1489.866,1325.107 1464.706,1324.448 
			1437.477,1103.228 		"/>
		<polygon clip-path="url(#SVGID_4_)" fill="#155BCC" points="1393.996,1101.568 1352.927,1324.518 1328.646,1324.518 
			1325.366,1098.938 1325.376,1098.938 		"/>
		<path clip-path="url(#SVGID_4_)" fill="#050F64" d="M1493.619,1347.154h-74.599c0.057-2.554,0.556-5.009,2.098-6.992
			c1.768-2.291,4.638-3.488,7.478-3.979c2.851-0.491,5.772-0.36,8.658-0.502c7.077-0.348,14.068-2.371,20.238-5.863
			c3.224-1.808,6.239-4.034,9.721-5.302l20.332,0.533c2.78,2.998,4.569,6.928,5.432,10.963
			C1493.762,1339.665,1493.849,1343.419,1493.619,1347.154"/>
		<path clip-path="url(#SVGID_4_)" fill="#F4BCC7" d="M1147.585,577.603c-3.728,1.479-5.273,6.102-3.376,9.8
			c5.492,10.881,12.371,20.568,19.819,29.8c7.516,9.151,15.697,17.696,24.318,25.734c2.181,1.972,4.312,4.032,6.548,5.938
			l6.698,5.762l6.856,5.553c2.281,1.871,4.656,3.581,6.986,5.382l3.516,2.671l3.578,2.563c2.395,1.698,4.775,3.434,7.191,5.103
			c4.881,3.237,9.717,6.617,14.715,9.668c39.732,25.079,82.709,44.352,126.636,60.025c1.755,0.595,3.527,0.99,5.289,1.195
			c1.767,0.19,3.53,0.151,5.254-0.039c3.45-0.393,6.758-1.483,9.725-3.169c5.938-3.372,10.497-9.131,12.317-16.395
			c1.821-7.262,0.588-14.548-2.729-20.361c-1.663-2.907-3.851-5.448-6.474-7.441c-1.309-1.002-2.733-1.845-4.242-2.57
			c-1.503-0.739-3.104-1.32-4.793-1.721c-42.903-8.894-85.137-21.228-124.859-39.201c-5.014-2.172-9.836-4.647-14.76-7.002
			c-2.43-1.223-4.818-2.507-7.236-3.76l-3.618-1.895l-3.548-1.995c-2.353-1.349-4.774-2.621-7.084-4.038l-6.979-4.205l-6.842-4.408
			c-2.296-1.459-4.47-3.056-6.72-4.58c-8.87-6.228-17.379-12.957-25.313-20.271c-7.846-7.347-15.282-15.294-21.236-23.9
			C1155.253,576.96,1151.28,576.134,1147.585,577.603"/>
		<path clip-path="url(#SVGID_4_)" fill="#FFFFFF" d="M1290.873,725.609l64.932,23.635c19.642,7.148,41.421-1.41,48.57-21.05
			c7.149-19.641-3.041-42.927-22.681-50.076l-64.934-23.634L1290.873,725.609z"/>
		<path clip-path="url(#SVGID_4_)" fill="#84A9FF" d="M1360.47,668.262l-34.736-12.647l-0.685,1.889l34.644,12.607L1360.47,668.262z
			 M1400.965,738.644l-1.755-0.993c-9.173,12.026-25.327,16.901-40.667,12.482l-0.261,2.001c9.158,2.595,18.729,2.072,27.264-1.527
			C1391.79,747.979,1397.051,743.874,1400.965,738.644 M1388.049,678.875l-0.6,1.955c13.11,7.632,20.535,23.082,19.009,38.188
			l1.963,0.375c0.9-8.754-1.002-17.869-5.548-25.707C1399.234,687.415,1394.092,682.295,1388.049,678.875 M1290.87,725.611
			l8.382-23.037l-1.744-1.034l-9.193,25.265l46.95,17.1l0.836-1.827L1290.87,725.611z M1313.364,657.97l-9.687,26.626l1.638,1.328
			l9.949-27.31C1314.613,658.39,1313.974,658.183,1313.364,657.97"/>
		<path clip-path="url(#SVGID_4_)" fill="#FFFFFF" d="M1518.517,931.908l-3.021,174.31l-8.46-0.32l-69.56-2.67l-21.561-0.819
			l-1.99-0.08l-19.93-0.76l-68.62-2.631h-0.01l-5.04-0.189l32.6-163.42l-0.93-80.76l-0.77-66.23l-0.21-18.74v-0.02l-0.19-15.71
			v-0.021l-0.01-0.83l-0.021-1.989l-0.09-7.921c-0.04-1.399-0.04-2.779,0-4.159v-0.011c0.58-20.659,10.17-39.04,24.92-51.439
			c8.341-7.01,18.341-12.1,29.3-14.6c0.271-0.06,0.541-0.12,0.811-0.17c4.75-1.03,9.67-1.57,14.71-1.57c1.28,0,2.58,0.04,3.88,0.11
			h0.061c4.43,0.25,8.77,0.83,12.989,1.72c37.17,7.82,65.41,39.65,67.78,78.62L1518.517,931.908z"/>
		<path clip-path="url(#SVGID_4_)" fill="#84A9FF" d="M1437.786,671.033c-4.341-0.92-8.811-1.51-13.29-1.76h-0.12
			c-1.37-0.08-2.69-0.12-3.931-0.12c-4.21,0-8.399,0.37-12.479,1.11c0.19,0.63,0.39,1.28,0.57,1.92c3.87-0.68,7.85-1.03,11.909-1.03
			c1.28,0,2.58,0.04,3.881,0.11h0.06c4.43,0.25,8.771,0.83,12.99,1.72c9.71,2.04,18.819,5.73,27.01,10.76l1.41-1.46
			C1457.346,677.023,1447.906,673.163,1437.786,671.033 M1351.996,854.563l-0.771-66.229l-0.21-18.74v-0.02l-0.189-15.71v-0.021
			v-0.06l-2,0.45l0.189,15.39l0.21,18.74l0.771,66.229l0.33,28.61l2-0.391L1351.996,854.563z M1517.296,1002.313l-1.8,103.9
			l-8.46-0.32l-69.561-2.67l-21.56-0.819l-1.99-0.08l-19.93-0.761l-43.811-1.68l-0.189,2l63.85,2.44l1.99,0.08l21.56,0.819
			l69.57,2.67l10.49,0.4l1.83-105.7L1517.296,1002.313z M1513.846,841.763c-0.67,0.05-1.34,0.101-2,0.15l6.67,89.99l-0.359,20.81
			l1.989,0.311l0.37-21.171L1513.846,841.763z M1487.456,701.313l-1.971,0.69c11.33,13.601,18.53,30.771,19.671,49.601l3.729,50.35
			h2.01l-3.739-50.47C1506.006,732.643,1498.855,715.223,1487.456,701.313 M1352.656,911.463l-2,0.46l0.27,23.22l-27.7,138.851
			l1.89,0.75l27.811-139.42L1352.656,911.463z M1384.436,678.873c-3.56,2.06-6.939,4.43-10.1,7.09
			c-13.48,11.34-22.28,27.15-24.86,44.32h2.021c2.619-17.11,11.47-32.15,24.13-42.79c2.95-2.48,6.1-4.72,9.43-6.68L1384.436,678.873
			z"/>
		<path clip-path="url(#SVGID_4_)" fill="#155BCC" d="M1406.633,699.639c0,0-8.11,25.176,9.202,52.418
			c0,0,25.702-23.758,23.116-54.485C1438.951,697.572,1421.566,710.611,1406.633,699.639"/>
		<path clip-path="url(#SVGID_4_)" fill="#155BCC" d="M1424.477,996.068l-8.561,106.34l-1.989-0.08l8.56-106.42
			c2.42-30.011,2.54-60.44,0.37-90.45l-8.021-159.8l2-0.101l8.011,159.771C1427.026,935.428,1426.906,965.958,1424.477,996.068"/>
		<path clip-path="url(#SVGID_4_)" fill="#83A8FF" d="M1376.297,720.229c16.768-1.424,31.568,11.059,32.992,27.828l-7.732,0.656
			c-1.063-12.504-12.1-21.813-24.604-20.751c-12.504,1.063-21.813,12.1-20.751,24.603l-7.733,0.657
			C1347.045,736.454,1359.528,721.653,1376.297,720.229"/>
		<path clip-path="url(#SVGID_4_)" fill="#050F64" d="M1407.226,747.153c-0.187,1.61-4.776,39.581-23.075,52.612
			c-5.567,3.966-11.848,5.211-18.664,3.702l0.67-3.031c5.924,1.311,11.371,0.233,16.193-3.2
			c17.186-12.238,21.747-50.061,21.791-50.44L1407.226,747.153z"/>
		<path clip-path="url(#SVGID_4_)" fill="#050F64" d="M1361.274,800.946c0.556-2.511,3.042-4.096,5.553-3.541
			c2.511,0.556,4.097,3.042,3.541,5.554s-3.042,4.096-5.554,3.54S1360.718,803.457,1361.274,800.946"/>
		<path clip-path="url(#SVGID_4_)" fill="#050F64" d="M1350.233,751.133c0.312,1.592,7.834,39.092,27.088,50.663
			c5.859,3.521,12.217,4.276,18.896,2.243l-0.903-2.97c-5.804,1.766-11.318,1.116-16.394-1.935
			c-18.083-10.867-25.565-48.222-25.639-48.597L1350.233,751.133z"/>
		<path clip-path="url(#SVGID_4_)" fill="#050F64" d="M1400.398,803.291c-0.749-2.461-3.351-3.849-5.811-3.1
			c-2.461,0.749-3.849,3.352-3.1,5.812c0.749,2.461,3.352,3.848,5.812,3.099S1401.147,805.752,1400.398,803.291"/>
		<path clip-path="url(#SVGID_4_)" fill="#83A8FF" d="M1405.439,840.98c-1.471-10.438-1.889-21.883-1.279-34.984
			c1.321-28.424,6.803-53.237,16.297-73.749c1.253-2.707,3.611-6.146,6.344-10.126c9.107-13.277,16.686-25.634,9.477-30.958
			c-7.143-5.273-24.442-0.734-33.669,4.42c-11.017,6.153-18.799,17.778-20.311,30.337l-6.949-0.836
			c1.773-14.742,10.911-28.388,23.847-35.612c8.651-4.832,30.114-12.154,41.24-3.941c13.245,9.782,0.543,28.297-7.863,40.55
			c-2.446,3.565-4.757,6.934-5.762,9.106c-9.112,19.687-14.379,43.618-15.658,71.134c-0.588,12.662-0.19,23.681,1.219,33.684
			L1405.439,840.98z"/>
		<path clip-path="url(#SVGID_4_)" fill="#83A8FF" d="M1416.511,842.07c-0.871,4.2-4.983,6.899-9.184,6.028
			s-6.898-4.983-6.027-9.183c0.871-4.2,4.981-6.899,9.183-6.028C1414.683,833.759,1417.382,837.87,1416.511,842.07"/>
		<path clip-path="url(#SVGID_4_)" fill="#050F64" d="M1408.907,849.762c-0.622,0-1.252-0.063-1.885-0.194
			c-2.423-0.502-4.506-1.919-5.865-3.989c-1.357-2.069-1.829-4.544-1.327-6.967c0.503-2.424,1.919-4.507,3.989-5.866
			c2.07-1.358,4.545-1.831,6.968-1.327c5.003,1.038,8.23,5.953,7.192,10.957C1417.072,846.746,1413.206,849.762,1408.907,849.762
			 M1408.893,834.224c-1.209,0-2.394,0.352-3.427,1.029c-1.399,0.919-2.357,2.328-2.697,3.968c-0.34,1.639-0.022,3.313,0.896,4.712
			s2.328,2.357,3.968,2.697c3.384,0.699,6.707-1.48,7.408-4.864c0.702-3.384-1.479-6.707-4.863-7.409
			C1409.749,834.268,1409.319,834.224,1408.893,834.224"/>
		<path clip-path="url(#SVGID_4_)" fill="#F4BCC7" d="M1403.46,650.039l3.173,49.6c11.221,6.309,21.993,5.62,32.318-2.067
			l-3.173-49.599L1403.46,650.039z"/>
		<path clip-path="url(#SVGID_4_)" fill="#EA8096" d="M1403.46,650.039l1.435,22.436c2.324,0.733,4.791,1.142,7.343,1.197
			c0.817,0.013,1.634-0.007,2.446-0.059c8.896-0.569,16.986-5.226,21.945-12.329l-0.851-13.311L1403.46,650.039z"/>
		<path clip-path="url(#SVGID_4_)" fill="#F4BCC7" d="M1386.829,620.644l2.968,29.04c1.188,11.603,10.845,20.496,22.506,20.725
			c10.597,0.207,20.316-6.057,24.313-15.874c2.646-6.498,4.938-13.983,7.087-21.86c3.437-12.587-0.128-26.251-9.728-35.087
			c-8.184-7.531-17.982-9.405-29.517-5.204C1392.808,596.628,1385.568,608.307,1386.829,620.644"/>
		<path clip-path="url(#SVGID_4_)" fill="#050F64" d="M1392.191,604.87c0,0-5.336,9.837-4.144,27.694c0,0-4.242-17.855-1.294-32.045
			L1392.191,604.87z"/>
		<path clip-path="url(#SVGID_4_)" fill="#050F64" d="M1447.52,638.072c0,0,21.974-29.462,5.333-47.324
			c-17.935-19.25-29.578-17.046-42.077-13.492c-15.808,4.496-24.285,10.113-30.367,8.878c-3.251-0.66-6.147-3.375-6.653-1.52
			c-0.507,1.855-1.234,12.787,8.007,20.831c9.24,8.045,21.154,6.687,32.797,0.47c11.644-6.216,17.184-5.516,22.17,1.662
			c5.29,7.616-1.668,21.669-1.668,21.669l3.614,1.268C1438.675,630.514,1445.6,628.187,1447.52,638.072"/>
		<path clip-path="url(#SVGID_4_)" fill="#36373C" d="M1386.582,630.827c0.192,0.947,0.514,1.836,0.947,2.646
			c0.322,0.608,0.704,1.172,1.137,1.688c0.2,0.237,0.409,0.464,0.629,0.681c2.233,2.196,5.483,3.28,8.785,2.612
			c2.921-0.592,5.271-2.431,6.607-4.85c0.033-0.06,0.064-0.12,0.097-0.18c0.408-0.775,0.711-1.607,0.899-2.474
			c0.085-0.39,0.146-0.787,0.182-1.19c-0.001-0.001-0.001-0.002,0-0.003c0.035-0.401,0.046-0.807,0.031-1.217l3.899-0.526
			c0.002,0.154,0.009,0.31,0.02,0.465c0.028,0.432,0.086,0.866,0.174,1.301c0.192,0.948,0.515,1.835,0.947,2.647
			c0.47,0.885,1.068,1.68,1.766,2.367c2.234,2.197,5.483,3.281,8.785,2.613c2.921-0.591,5.271-2.43,6.606-4.85
			c0.457-0.826,0.795-1.719,0.997-2.654c0.271-1.25,0.298-2.576,0.039-3.91l24.057,3.621l0.155-1.04l-24.471-3.685
			c-0.05-0.166-0.113-0.327-0.188-0.481c-1.653-4.408-6.307-7.088-11.067-6.124c-3.94,0.797-6.84,3.863-7.616,7.562l-0.224,0.046
			l-0.001-0.001l-4.184,0.567c-0.088-0.344-0.193-0.679-0.316-1.004c-1.652-4.407-6.305-7.088-11.067-6.124
			c-3.938,0.798-6.839,3.864-7.614,7.562c-0.18,0.851-0.245,1.735-0.186,2.635c0.023,0.367,0.07,0.738,0.137,1.108
			C1386.558,630.699,1386.569,630.763,1386.582,630.827 M1411,629.576c-0.092-0.456-0.146-0.911-0.166-1.362
			c-0.021-0.5-0.001-0.994,0.063-1.479c0.049-0.38,0.122-0.754,0.22-1.12c0.823-3.108,3.34-5.64,6.705-6.321
			c3.457-0.7,6.852,0.749,8.796,3.43c0.515,0.709,0.929,1.504,1.213,2.369c0.012,0.033,0.023,0.065,0.032,0.098
			c0.096,0.3,0.177,0.607,0.241,0.923c0.26,1.289,0.223,2.567-0.066,3.766c-0.768,3.196-3.318,5.82-6.755,6.516
			c-3.808,0.771-7.539-1.065-9.34-4.281C1411.507,631.342,1411.187,630.491,1411,629.576 M1387.599,630.647l-0.005-0.025
			c-0.093-0.456-0.147-0.911-0.166-1.361c-0.013-0.262-0.012-0.523,0-0.783c0.011-0.234,0.031-0.466,0.061-0.696
			c0.049-0.381,0.123-0.754,0.22-1.121c0.824-3.108,3.34-5.64,6.705-6.321c3.458-0.7,6.853,0.75,8.797,3.43
			c0.516,0.709,0.929,1.504,1.213,2.369c0.013,0.034,0.023,0.065,0.032,0.099c0.032,0.102,0.063,0.204,0.091,0.307
			c0.059,0.201,0.107,0.407,0.149,0.615c0.029,0.142,0.054,0.284,0.074,0.425c0.023,0.147,0.043,0.295,0.056,0.442l-0.014,1.877
			c-0.039,0.346-0.101,0.687-0.183,1.023c-0.767,3.196-3.318,5.82-6.754,6.515c-3.809,0.771-7.539-1.064-9.341-4.281
			C1388.104,632.395,1387.784,631.552,1387.599,630.647"/>
		<path clip-path="url(#SVGID_4_)" fill="#F4BCC7" d="M1431.186,630.861c0.382,5.951,6.11,10.429,12.799,10.001
			c6.687-0.428,11.799-5.599,11.419-11.55c-0.382-5.951-6.111-10.429-12.798-10.001
			C1435.918,619.739,1430.805,624.91,1431.186,630.861"/>
		<polygon clip-path="url(#SVGID_4_)" fill="#84A9FF" points="1362.441,910.541 1239.973,910.541 1189.594,751.903 
			1312.063,751.903 		"/>
		<path clip-path="url(#SVGID_4_)" fill="#F4BCC7" d="M1232.17,873.549c-0.591,3.966,2.632,7.623,6.782,7.838
			c12.167,0.71,23.998-0.379,35.722-2.189c11.687-1.908,23.184-4.697,34.464-8.121c2.799-0.897,5.65-1.707,8.421-2.684l8.345-2.902
			l8.245-3.146c2.762-1.033,5.434-2.229,8.161-3.341l4.074-1.701l4.013-1.809c2.67-1.219,5.366-2.407,8.023-3.659
			c5.248-2.598,10.599-5.085,15.745-7.877c41.632-21.782,79.868-49.285,115.469-79.415c1.395-1.22,2.625-2.555,3.688-3.976
			c1.051-1.433,1.902-2.978,2.604-4.564c1.392-3.181,2.106-6.589,2.137-10.001c0.063-6.83-2.63-13.662-7.998-18.882
			c-5.368-5.219-12.289-7.809-18.983-7.856c-3.349-0.021-6.645,0.598-9.684,1.864c-1.524,0.63-2.968,1.44-4.352,2.381
			c-1.395,0.931-2.7,2.022-3.896,3.282c-29.222,32.647-61.084,62.988-96.564,88.329c-4.394,3.246-8.954,6.176-13.462,9.253
			c-2.276,1.488-4.587,2.91-6.884,4.373l-3.455,2.177l-3.506,2.069c-2.348,1.357-4.663,2.814-7.047,4.101l-7.14,3.927l-7.245,3.705
			c-2.415,1.254-4.887,2.334-7.334,3.514c-9.839,4.548-19.929,8.532-30.238,11.725c-10.29,3.1-20.897,5.544-31.329,6.375
			C1235.463,866.595,1232.754,869.615,1232.17,873.549"/>
		<path clip-path="url(#SVGID_4_)" fill="#FFFFFF" d="M1432.096,823.88l53.027-44.305c16.039-13.401,19.566-36.535,6.164-52.574
			c-13.4-16.04-38.655-18.912-54.694-5.51l-53.027,44.304L1432.096,823.88z"/>
		<path clip-path="url(#SVGID_4_)" fill="#84A9FF" d="M1417.416,734.903l-28.37,23.7l1.29,1.54l28.29-23.641L1417.416,734.903z
			 M1498.616,735.193l-1.74,1.02c5.8,13.971,1.91,30.391-9.61,41.44l1.601,1.229c6.84-6.62,11.189-15.16,12.359-24.35
			C1502.086,747.813,1501.176,741.203,1498.616,735.193 M1440.436,716.373l1.391,1.5c13.18-7.51,30.27-6.18,42.569,2.72l1.311-1.51
			c-7.12-5.17-15.96-8.1-25.021-8.1C1453.436,710.983,1446.426,712.863,1440.436,716.373 M1432.096,823.883l-15.72-18.81
			l-1.771,0.99l17.24,20.63l38.35-32.03l-1.159-1.64L1432.096,823.883z M1384.876,770.483l18.17,21.739l1.97-0.75l-18.63-22.31
			C1385.866,769.613,1385.366,770.063,1384.876,770.483"/>
		<path clip-path="url(#SVGID_4_)" fill="#84A9FF" d="M495.169,1001.977c-0.492-0.379-12.265-9.461-29.944-24.614
			c-19.363-16.593-48.277-42.64-76.053-72.49c-58.47-62.832-88.117-116.613-88.117-159.849V558.537l12.549-4.504
			c63.823-22.907,128.703-34.523,192.84-34.523c23.64,0,47.624,1.58,71.283,4.695c40.48,5.322,81.56,15.354,122.095,29.815
			l12.584,4.49v186.514c0,45.835-33.207,103.366-98.699,170.995c-47.101,48.636-93.468,84.459-95.419,85.961l-11.56,8.897
			L495.169,1001.977z"/>
		<path clip-path="url(#SVGID_4_)" fill="#155BCD" d="M671.777,593.83v153.052c0,86.839-165.046,213.849-165.046,213.849
			s-10.313-7.941-25.786-21.202c-17.762-15.222-42.314-37.462-65.861-62.768c-38.009-40.846-73.399-89.67-73.399-129.879V593.83
			c75.002-26.919,150.204-35.452,225.613-25.523C602.08,572.879,636.906,581.389,671.777,593.83"/>
		<polygon clip-path="url(#SVGID_4_)" fill="#FFFFFF" points="589.167,685.313 538.026,685.313 538.026,634.172 475.436,634.172 
			475.436,685.313 424.294,685.313 424.294,747.904 475.436,747.904 475.436,799.045 538.026,799.045 538.026,747.904 
			589.167,747.904 		"/>
		<rect x="124.342" y="948.561" clip-path="url(#SVGID_4_)" fill="#84A9FF" width="459.051" height="398.598"/>
		<rect x="170.123" y="975.781" clip-path="url(#SVGID_4_)" fill="#FFFFFF" width="58.331" height="58.332"/>
		<rect x="273.175" y="975.781" clip-path="url(#SVGID_4_)" fill="#FFFFFF" width="58.331" height="58.332"/>
		<rect x="376.228" y="975.781" clip-path="url(#SVGID_4_)" fill="#FFFFFF" width="58.331" height="58.332"/>
		<rect x="479.28" y="975.781" clip-path="url(#SVGID_4_)" fill="#FFFFFF" width="58.331" height="58.332"/>
		<rect x="170.123" y="1069.112" clip-path="url(#SVGID_4_)" fill="#FFFFFF" width="58.331" height="58.331"/>
		<rect x="273.175" y="1069.112" clip-path="url(#SVGID_4_)" fill="#FFFFFF" width="58.331" height="58.331"/>
		<rect x="376.228" y="1069.112" clip-path="url(#SVGID_4_)" fill="#FFFFFF" width="58.331" height="58.331"/>
		<rect x="479.28" y="1069.112" clip-path="url(#SVGID_4_)" fill="#FFFFFF" width="58.331" height="58.331"/>
		<rect x="170.123" y="1162.442" clip-path="url(#SVGID_4_)" fill="#FFFFFF" width="58.331" height="58.331"/>
		<rect x="273.175" y="1162.442" clip-path="url(#SVGID_4_)" fill="#FFFFFF" width="58.331" height="58.331"/>
		<rect x="376.228" y="1162.442" clip-path="url(#SVGID_4_)" fill="#FFFFFF" width="58.331" height="58.331"/>
		<rect x="170.123" y="1255.773" clip-path="url(#SVGID_4_)" fill="#FFFFFF" width="58.331" height="58.331"/>
		<rect x="273.175" y="1255.773" clip-path="url(#SVGID_4_)" fill="#FFFFFF" width="58.331" height="58.331"/>
		<rect x="376.228" y="1255.773" clip-path="url(#SVGID_4_)" fill="#FFFFFF" width="58.331" height="58.331"/>
		<polygon clip-path="url(#SVGID_4_)" fill="#155BCD" points="479.279,1162.442 479.279,1220.773 479.279,1314.104 537.61,1314.104 
			537.61,1220.773 537.61,1162.442 		"/>
		<rect x="124.342" y="830.602" clip-path="url(#SVGID_4_)" fill="#155BCD" width="459.051" height="117.959"/>
		<rect x="153.641" y="859.901" clip-path="url(#SVGID_4_)" fill="#FFFFFF" width="400.451" height="59.357"/>
	</g>
</g>
</svg>
