<?xml version="1.0" encoding="utf-8"?>
<!-- Generator: Adobe Illustrator 16.0.0, SVG Export Plug-In . SVG Version: 6.00 Build 0)  -->
<!DOCTYPE svg PUBLIC "-//W3C//DTD SVG 1.1//EN" "http://www.w3.org/Graphics/SVG/1.1/DTD/svg11.dtd">
<svg version="1.1" id="圖層_1" xmlns="http://www.w3.org/2000/svg" xmlns:xlink="http://www.w3.org/1999/xlink" x="0px" y="0px"
	 width="1408.695px" height="1101.677px" viewBox="0 0 1408.695 1101.677" enable-background="new 0 0 1408.695 1101.677"
	 xml:space="preserve">
<rect x="1051.374" y="542.829" fill="#DA5544" width="101.806" height="551.348"/>
<rect x="1088.319" y="663.33" fill="#FF654F" width="27.915" height="310.346"/>
<rect x="1153.18" y="542.829" fill="#DCAB28" width="101.808" height="551.348"/>
<rect x="1190.126" y="663.33" fill="#FFCA32" width="27.915" height="310.346"/>
<rect x="1254.986" y="542.829" fill="#155BCC" width="101.807" height="551.348"/>
<rect x="1291.932" y="663.33" fill="#83A8FF" width="27.915" height="310.346"/>
<g>
	<defs>
		<rect id="SVGID_1_" y="0.001" width="1408.695" height="1101.676"/>
	</defs>
	<clipPath id="SVGID_2_">
		<use xlink:href="#SVGID_1_"  overflow="visible"/>
	</clipPath>
	<path clip-path="url(#SVGID_2_)" fill="#050F64" d="M140.6,289.857v569.434c0,21.902,17.755,39.658,39.658,39.658h939.458
		c21.902,0,39.657-17.756,39.657-39.658V289.857c0-21.902-17.755-39.658-39.657-39.658H180.257
		C158.354,250.199,140.6,267.955,140.6,289.857"/>
	<path clip-path="url(#SVGID_2_)" fill="#84A9FF" d="M150.084,830.415h999.801v-544.57H150.084V830.415z M1118.54,800.711H181.435
		v-485.16h937.105V800.711z"/>
	<path clip-path="url(#SVGID_2_)" fill="#050F64" d="M672.371,866.58c0,12.362-10.022,22.385-22.384,22.385
		c-12.362,0-22.384-10.022-22.384-22.385c0-12.361,10.022-22.384,22.384-22.384C662.349,844.196,672.371,854.219,672.371,866.58"/>
	<rect x="536.841" y="898.949" clip-path="url(#SVGID_2_)" fill="#83A8FF" width="226.292" height="114.525"/>
	<polygon clip-path="url(#SVGID_2_)" fill="#050F64" points="1005.063,1086.605 294.911,1086.605 328.487,1010.715 
		971.486,1010.715 	"/>
	<rect x="150.089" y="315.551" clip-path="url(#SVGID_2_)" fill="#FFFFFF" width="999.795" height="485.16"/>
	<polygon clip-path="url(#SVGID_2_)" fill="#155BCD" points="567.892,762.32 243.01,762.32 243.01,588.531 399.218,519.971 
		567.892,588.531 	"/>
	<path clip-path="url(#SVGID_2_)" fill="#050F64" d="M489.165,449.604c0,52.834-37.48,95.664-83.715,95.664
		c-46.234,0-83.714-42.83-83.714-95.664s37.48-95.664,83.714-95.664C451.685,353.94,489.165,396.771,489.165,449.604"/>
	<path clip-path="url(#SVGID_2_)" fill="#F4BCC7" d="M452.115,521.504v42.055c0,25.77-20.898,46.667-46.667,46.667
		c-25.768,0-46.657-20.897-46.657-46.667v-42.055C388.208,549.518,419.221,551.121,452.115,521.504"/>
	<path clip-path="url(#SVGID_2_)" fill="#EA8096" d="M452.115,521.504v11.363c-15.697,12.56-31.585,18.922-47.316,18.922
		c-15.663,0-31.109-6.276-46.008-18.679v-11.606C388.208,549.518,419.221,551.121,452.115,521.504"/>
	<path clip-path="url(#SVGID_2_)" fill="#F4BCC7" d="M474.737,428.283v36.768c0,5.469-4.429,9.899-9.898,9.899v9.898
		c0,13.851-4.776,26.557-12.724,36.655c-32.894,29.618-63.907,28.014-93.325,0c-7.948-10.098-12.724-22.804-12.724-36.655v-9.898
		c-5.469,0-9.898-4.43-9.898-9.899v-36.768c0-5.461,4.429-9.897,9.898-9.897v-18.376h118.773v18.376
		C470.308,418.386,474.737,422.822,474.737,428.283"/>
	<path clip-path="url(#SVGID_2_)" fill="#050F64" d="M405.45,357.874c-11.979,0-23.122,3.407-32.451,8.331
		c-0.072,0.037-0.15,0.069-0.221,0.107c-0.145,0.075-0.285,0.154-0.429,0.23c-0.056,0.03-0.112,0.059-0.167,0.089
		c-14.855,7.844-27.261,17.57-28.744,39.999c-0.06,0.903-0.058,1.804-0.093,2.707c-2.472,1.556-4.62,4.012-6.237,6.472
		c-10.363,15.762-12.34,36.711-5.11,54.134c1.365,3.29,3.042,6.48,3.882,9.942c0.839,3.462,0.736,7.353-1.266,10.299
		c10.112-5.224,17.277-15.577,19.083-26.772c2.129,6.139,3.926,12.38,3.757,18.825c-0.234,8.922-4.28,17.407-9.778,24.438
		c-5.497,7.031-12.411,12.801-19.268,18.515c20.564-7.252,37.613-23.873,45.386-44.245c4.721-12.372,6.099-25.72,7.618-38.874
		c0.968-8.381,2.044-16.84,4.086-25.005c6.237,0.845,12.951,1.308,19.952,1.308c18.547,0,35.104-3.23,45.995-8.289
		c5.507,6.331,13.393,8.304,13.393,8.304l6.868-20.501C471.721,397.681,438.249,357.874,405.45,357.874"/>
	<rect x="620.8" y="388.585" clip-path="url(#SVGID_2_)" fill="#155BCC" width="135.53" height="23.426"/>
	<rect x="620.8" y="433.68" clip-path="url(#SVGID_2_)" fill="#155BCC" width="436.165" height="23.426"/>
	<rect x="620.8" y="478.775" clip-path="url(#SVGID_2_)" fill="#83A8FF" width="327.009" height="23.426"/>
	<rect x="620.8" y="523.87" clip-path="url(#SVGID_2_)" fill="#83A8FF" width="233.398" height="23.426"/>
	<rect x="620.8" y="568.965" clip-path="url(#SVGID_2_)" fill="#155BCC" width="135.53" height="23.426"/>
	<rect x="620.8" y="614.06" clip-path="url(#SVGID_2_)" fill="#FF654F" width="436.165" height="23.426"/>
	<rect x="620.8" y="659.154" clip-path="url(#SVGID_2_)" fill="#FF654F" width="401.494" height="23.427"/>
	<rect x="620.8" y="704.25" clip-path="url(#SVGID_2_)" fill="#83A8FF" width="243.464" height="23.426"/>
	<rect x="343.967" y="76.408" clip-path="url(#SVGID_2_)" fill="#83A8FF" width="198.61" height="115.409"/>
	<rect x="377.022" y="99.634" clip-path="url(#SVGID_2_)" fill="#155BCC" width="198.61" height="115.409"/>
	<rect x="486.541" y="130.396" clip-path="url(#SVGID_2_)" fill="#83A8FF" width="69.028" height="7.432"/>
	<rect x="486.541" y="145.881" clip-path="url(#SVGID_2_)" fill="#83A8FF" width="69.028" height="7.432"/>
	<rect x="486.541" y="161.365" clip-path="url(#SVGID_2_)" fill="#83A8FF" width="69.028" height="7.432"/>
	<rect x="486.541" y="176.849" clip-path="url(#SVGID_2_)" fill="#83A8FF" width="69.028" height="7.432"/>
	<path clip-path="url(#SVGID_2_)" fill="#FFFFFF" d="M439.422,184.281h-7.698l-3.58-11.547h-19.783l-3.58,11.547h-7.697
		l16.165-53.885h10.007L439.422,184.281z M410.709,165.036h15.087l-7.543-26.943L410.709,165.036z"/>
	<polygon clip-path="url(#SVGID_2_)" fill="#FFFFFF" points="454.818,153.489 454.818,141.942 462.517,141.942 462.517,153.489 
		474.063,153.489 474.063,161.188 462.517,161.188 462.517,172.734 454.818,172.734 454.818,161.188 443.271,161.188 
		443.271,153.489 	"/>
	<path clip-path="url(#SVGID_2_)" fill="#050F64" d="M911.465,379.021c-12.544,0-22.751-10.206-22.751-22.751V190.067
		c0-12.545,10.207-22.752,22.751-22.752h353.837c12.546,0,22.752,10.207,22.752,22.752V356.27c0,12.545-10.206,22.751-22.752,22.751
		H911.465z"/>
	<path clip-path="url(#SVGID_2_)" fill="#FFFFFF" d="M1265.302,180.932H911.465c-5.045,0-9.136,4.09-9.136,9.136v166.201
		c0,5.046,4.091,9.136,9.136,9.136h353.837c5.046,0,9.136-4.09,9.136-9.136V190.067
		C1274.438,185.021,1270.348,180.932,1265.302,180.932"/>
	<rect x="941.332" y="207.549" clip-path="url(#SVGID_2_)" fill="#155BCC" width="100.143" height="17.393"/>
	<rect x="941.333" y="245.498" clip-path="url(#SVGID_2_)" fill="#155BCC" width="273.547" height="17.393"/>
	<rect x="941.332" y="283.446" clip-path="url(#SVGID_2_)" fill="#83A8FF" width="246.667" height="17.393"/>
	<rect x="941.332" y="321.395" clip-path="url(#SVGID_2_)" fill="#83A8FF" width="213.989" height="17.393"/>
	<path clip-path="url(#SVGID_2_)" fill="#83A8FF" d="M943.731,186.796c0,22.865-18.536,41.401-41.401,41.401
		c-22.866,0-41.402-18.536-41.402-41.401c0-22.865,18.536-41.402,41.402-41.402C925.195,145.394,943.731,163.931,943.731,186.796"/>
	<polygon clip-path="url(#SVGID_2_)" fill="#FFFFFF" points="928.078,174.206 914.467,164.506 899.313,185.774 886.278,176.488 
		876.58,190.101 903.227,209.085 912.926,195.474 	"/>
	<path clip-path="url(#SVGID_2_)" fill="#050F64" d="M1281.865,538.397c0.697-0.904,1.829-1.376,2.95-1.57
		c1.125-0.193,2.277-0.142,3.416-0.198c2.792-0.137,5.551-0.935,7.984-2.313c1.272-0.713,2.462-1.592,3.835-2.092l8.022,0.211
		c1.097,1.183,1.803,2.733,2.143,4.325c0.311,1.441,0.345,2.922,0.254,4.396v1.672h-29.426v-1.672h-0.007
		C1281.061,540.148,1281.257,539.18,1281.865,538.397"/>
	<polygon clip-path="url(#SVGID_2_)" fill="#F5BDC8" points="1309.081,523.526 1308.072,532.436 1300.051,532.225 1299.512,523.985 
			"/>
	<path clip-path="url(#SVGID_2_)" fill="#050F64" d="M1203.507,535.21c0.794-0.82,1.974-1.162,3.108-1.229
		c1.139-0.065,2.279,0.116,3.417,0.188c2.79,0.178,5.62-0.306,8.194-1.401c1.344-0.566,2.625-1.305,4.045-1.647l7.947,1.11
		c0.957,1.299,1.485,2.919,1.645,4.539c0.145,1.467,0.013,2.942-0.242,4.397l-0.189,1.662l-29.238-3.308l0.188-1.662l-0.006-0.001
		C1202.51,536.86,1202.815,535.919,1203.507,535.21"/>
	<path clip-path="url(#SVGID_2_)" fill="#050F64" d="M1316.129,394.153c1.688-31.04,1.395-75.018-7.01-99.788
		c-0.077-0.45-65.056,5.384-65.057,5.393l-15.167,62.384c-5.341,21.95-7.944,44.477-7.755,67.066l0.785,93.617l10.967,0.711
		l20.311-123.978c7.572-14.711,15.666-31.658,21.93-48.175l23.643,172.637l10.976-0.526c0,0,6.379-129.242,6.375-129.341H1316.129z"
		/>
	<polygon clip-path="url(#SVGID_2_)" fill="#F5BDC8" points="1232.222,523.493 1230.219,532.231 1222.271,531.121 1222.663,522.874 
			"/>
	<path clip-path="url(#SVGID_2_)" fill="#EA8096" d="M1134.047,281.196c-0.629-2.054,0.372-4.229,2.283-4.964
		c11.289-4.453,22.341-9.354,32.998-14.85c10.656-5.495,20.916-11.581,30.602-18.328c9.676-6.762,18.771-14.18,27.147-22.22
		c4.174-4.035,8.167-8.223,11.974-12.549c0.939-1.094,1.906-2.159,2.82-3.271l2.746-3.324c1.777-2.261,3.564-4.5,5.246-6.822
		c0.555-0.72,1.191-1.344,1.862-1.907c0.665-0.566,1.388-1.051,2.155-1.455c1.539-0.804,3.26-1.289,5.017-1.483
		c3.534-0.364,7.407,0.557,10.634,2.979c3.226,2.422,5.116,5.906,5.48,9.639c0.194,1.874-0.032,3.769-0.65,5.591
		c-0.307,0.911-0.71,1.805-1.209,2.662c-0.504,0.854-1.128,1.652-1.833,2.407c-2.258,2.347-4.617,4.594-6.959,6.844l-3.589,3.294
		c-1.194,1.098-2.438,2.143-3.653,3.214c-4.909,4.232-9.975,8.253-15.176,12.049c-10.431,7.561-21.396,14.211-32.692,19.982
		c-11.308,5.756-22.94,10.631-34.729,14.783c-11.791,4.153-23.74,7.579-35.743,10.496
		C1136.748,284.463,1134.676,283.25,1134.047,281.196"/>
	<path clip-path="url(#SVGID_2_)" fill="#84A9FF" d="M1248.083,241.459l22.172-23.442c6.707-7.09,7.08-18.011-0.012-24.718
		c-7.09-6.706-18.959-6.659-25.665,0.431l-22.173,23.442L1248.083,241.459z"/>
	<path clip-path="url(#SVGID_2_)" fill="#84A9FF" d="M1279.323,189.485L1279.323,189.485c-24.554-0.255-43.585,21.392-40.186,45.711
		l4.924,64.563c27.25,9.878,47.536,4.477,65.057-5.393l2.95-68.702C1313.793,206.362,1298.701,189.686,1279.323,189.485"/>
	<path clip-path="url(#SVGID_2_)" fill="#FFFFFF" d="M1306.622,203.024l-0.487,0.542c2.682,3.798,4.585,8.173,5.482,12.882
		l0.694-0.064C1311.403,211.596,1309.466,207.025,1306.622,203.024 M1279.461,304.56v0.719c5.984-0.666,11.885-2.148,17.892-4.496
		l-0.226-0.677C1291.592,302.269,1285.738,303.84,1279.461,304.56 M1293.533,192.062c-4.403-2.091-9.249-3.238-14.205-3.292h-0.434
		c-11.825,0-23.058,5.12-30.824,14.044c-4.503,5.177-7.574,11.329-9.042,17.87l0.685,0.143
		c4.011-17.863,20.057-31.547,39.608-31.344c5.06,0.053,9.826,1.229,14.076,3.281L1293.533,192.062z M1243.438,291.599
		c-0.228,0.124-0.459,0.246-0.687,0.367l0.634,8.304l0.435,0.157c6.12,2.22,12.146,3.748,18.002,4.564v-0.709
		c-5.587-0.788-11.49-2.252-17.76-4.525L1243.438,291.599z M1238.44,235.423l2.483,32.548h0.716l-2.483-32.548H1238.44z"/>
	<path clip-path="url(#SVGID_2_)" fill="#050F64" d="M1285.338,144.653c0,0,16.971,3.95,12.744,22.811
		c-2.822,12.595-11.951,18.98-25.16,21.137L1285.338,144.653z"/>
	<path clip-path="url(#SVGID_2_)" fill="#F5BDC8" d="M1267.623,176.381l1.296,19.459c5.526,3.189,10.869,2.907,16.029-0.845
		l-1.297-19.459L1267.623,176.381z"/>
	<path clip-path="url(#SVGID_2_)" fill="#EA8096" d="M1267.739,178.61l0.321,6.102c2.486,1.309,5.309,2.04,8.271,2.024
		c0.167-0.003,0.334-0.007,0.5-0.016c2.777-0.146,5.396-1.352,7.233-3.327l-0.297-5.628L1267.739,178.61z"/>
	<path clip-path="url(#SVGID_2_)" fill="#F5BDC8" d="M1259.757,153.572l1.097,14.309l0.246,3.175
		c0.684,7.921,7.33,13.991,15.283,13.953c0.789-0.003,1.598-0.119,2.383-0.35c0.299-0.091,0.6-0.192,0.896-0.315
		c0.061-0.022,0.122-0.05,0.184-0.077c1.113-0.487,2.137-1.218,2.968-2.181c1.799-2.092,2.932-4.35,3.96-6.686
		c0.899-2.038,1.703-4.051,2.262-6.094c0.663-2.429,0.974-4.907,0.676-7.54l-1.082-12.549l-24.456-1.848L1259.757,153.572z"/>
	<path clip-path="url(#SVGID_2_)" fill="#050F64" d="M1284.94,149.903c0,0-27.982,1.737-22.469,26.296
		c0,0-8.804-17.794,0.156-29.711c9.87-13.126,23.035-8.813,27.713-2.544c4.677,6.269,8.185,16.678-4.849,24.12
		C1285.492,168.064,1289.877,158.754,1284.94,149.903"/>
	<path clip-path="url(#SVGID_2_)" fill="#F5BDC8" d="M1284.353,164.894c0.17,3.221,2.918,5.694,6.139,5.525
		c3.221-0.17,5.694-2.919,5.524-6.14c-0.17-3.22-2.918-5.694-6.139-5.524S1284.182,161.672,1284.353,164.894"/>
	<path clip-path="url(#SVGID_2_)" fill="#F5BDC8" d="M1259.042,363.707c-1.971-0.855-2.975-3.029-2.293-4.959
		c3.941-11.477,7.39-23.066,10.127-34.74c2.739-11.671,4.771-23.426,5.929-35.174c1.138-11.749,1.4-23.484,0.724-35.073
		c-0.36-5.795-0.953-11.552-1.772-17.256c-0.222-1.424-0.403-2.85-0.656-4.268l-0.745-4.246c-0.566-2.819-1.11-5.633-1.783-8.42
		c-0.188-0.889-0.249-1.779-0.241-2.653c0-0.875,0.102-1.739,0.293-2.585c0.387-1.693,1.135-3.316,2.128-4.778
		c2.018-2.924,5.233-5.273,9.17-6.154c3.937-0.881,7.813-0.058,10.89,2.09c1.552,1.067,2.846,2.471,3.83,4.123
		c0.493,0.825,0.911,1.712,1.24,2.648c0.321,0.938,0.524,1.931,0.641,2.958c0.318,3.24,0.497,6.493,0.688,9.735l0.175,4.869
		c0.061,1.62,0.048,3.245,0.072,4.864c0.032,6.482-0.198,12.945-0.688,19.366c-1.021,12.843-3.081,25.5-6.025,37.838
		c-2.964,12.338-6.809,24.351-11.304,36.013c-4.496,11.665-9.648,22.978-15.223,34.001
		C1263.28,363.772,1261.014,364.562,1259.042,363.707"/>
	<path clip-path="url(#SVGID_2_)" fill="#84A9FF" d="M1303.387,250.828l-3.436-32.083c-1.039-9.705-9.103-17.078-18.807-16.039
		c-9.705,1.039-17.375,10.097-16.336,19.801l3.435,32.083L1303.387,250.828z"/>
	<path clip-path="url(#SVGID_2_)" fill="#FFFFFF" d="M1286.933,202.361c-1.902-0.454-3.873-0.576-5.865-0.362
		c-4.829,0.514-9.447,3.032-12.666,6.901c-0.529,0.636-1.013,1.293-1.448,1.969l0.65,0.317c2.957-4.569,7.906-7.876,13.541-8.481
		c7.295-0.78,13.665,3.193,16.817,9.34l0.559-0.453C1296.113,206.989,1291.95,203.557,1286.933,202.361 M1300.66,218.669
		c-0.011-0.109-0.026-0.215-0.04-0.324l-0.646,0.604l1.033,9.644l0.698-0.148L1300.66,218.669z M1302.09,232.023l-0.677,0.366
		l0.967,9.035l0.696-0.203L1302.09,232.023z M1303.565,245.805l-0.697,0.204l0.519,4.819l-26.957,2.886l0.017,0.718l27.726-2.97
		L1303.565,245.805z M1264.567,226.943l2.501,23.363l0.717-0.012l-2.521-23.551L1264.567,226.943z"/>
	<path clip-path="url(#SVGID_2_)" fill="#050F64" d="M1235.823,1094.177h-39.4c0.03-1.349,0.293-2.646,1.108-3.693
		c0.933-1.21,2.449-1.842,3.949-2.101c1.506-0.26,3.049-0.19,4.572-0.265c3.738-0.185,7.43-1.253,10.689-3.098
		c1.702-0.955,3.295-2.13,5.134-2.8l10.738,0.282c1.469,1.583,2.414,3.658,2.868,5.79
		C1235.898,1090.222,1235.944,1092.204,1235.823,1094.177"/>
	<path clip-path="url(#SVGID_2_)" fill="#050F64" d="M1312.542,1094.177h-39.4c0.03-1.349,0.293-2.646,1.108-3.693
		c0.933-1.21,2.449-1.842,3.949-2.101c1.506-0.26,3.049-0.19,4.572-0.265c3.738-0.185,7.431-1.253,10.689-3.098
		c1.702-0.955,3.296-2.13,5.134-2.8l10.738,0.282c1.469,1.583,2.414,3.658,2.869,5.79
		C1312.617,1090.222,1312.663,1092.204,1312.542,1094.177"/>
	<path clip-path="url(#SVGID_2_)" fill="#050F64" d="M1219.782,1082.313l4.28-121.418c0,0,0.146-2.18,0.201-2.51l10.495-84.271
		c0.719-10.573,84.74,6.196,84.74,6.196l-9.412,202.353l-13.895-0.444l-19.6-165.234l-23.541,46.608l-19.05,119.07
		L1219.782,1082.313z"/>
	<polygon clip-path="url(#SVGID_2_)" fill="#3B7AA5" points="1199.463,769.661 1208.799,802.555 1212.129,802.555 1202.799,769.661 
			"/>
	<polygon clip-path="url(#SVGID_2_)" fill="#050F64" points="1180.792,769.661 1190.128,802.555 1208.799,802.555 1199.463,769.661 
			"/>
	<path clip-path="url(#SVGID_2_)" fill="#EA8096" d="M1195.123,787.723c2.291,0.008,4.188,1.3,4.355,2.934
		c0.573,4.846,1.395,9.635,2.743,14.009c0.335,1.092,0.705,2.151,1.105,3.167c0.102,0.283,0.189,0.455,0.278,0.647l0.268,0.57
		c0.181,0.352,0.354,0.66,0.537,0.979c0.75,1.244,1.604,2.347,2.676,3.13c1.056,0.788,2.371,1.204,3.66,1.033
		c1.286-0.17,2.447-0.79,3.375-1.534c0.473-0.365,0.89-0.771,1.271-1.178c0.187-0.211,0.367-0.404,0.547-0.629l0.264-0.322
		l0.486-0.541c1.349-1.489,2.662-3.178,3.916-4.973c1.254-1.797,2.451-3.702,3.599-5.667c1.141-1.979,2.228-4.019,3.276-6.095
		c2.077-4.176,3.986-8.499,5.73-12.934c3.501-8.86,6.435-18.065,8.977-27.407c0.888-2.935,3.355-5.029,6.629-6.093
		c3.264-1.06,7.356-1.075,11.429,0.3c4.073,1.374,7.294,3.891,9.166,6.875c1.865,2.978,2.354,6.419,1.005,9.488
		c-4.534,9.549-9.489,18.949-15.135,28.076c-2.815,4.563-5.837,9.052-9.101,13.434c-3.29,4.375-6.818,8.651-10.9,12.697
		c-2.043,2.021-4.224,3.985-6.655,5.835l-0.937,0.706l-1.207,0.866c-0.796,0.577-1.662,1.081-2.491,1.608
		c-0.411,0.275-0.856,0.482-1.283,0.723c-0.433,0.224-0.851,0.479-1.293,0.677c-0.884,0.39-1.748,0.815-2.647,1.121
		c-0.887,0.346-1.796,0.591-2.696,0.837c-0.911,0.198-1.814,0.397-2.731,0.485c-1.825,0.206-3.66,0.186-5.448-0.138
		c-3.598-0.608-6.861-2.536-9.318-5.125c-2.486-2.593-4.208-5.861-5.418-9.232c-0.285-0.848-0.555-1.719-0.799-2.552l-0.313-1.229
		c-0.1-0.409-0.205-0.837-0.261-1.165c-0.28-1.412-0.497-2.807-0.663-4.188c-0.657-5.52-0.586-10.833-0.278-16.063
		C1190.946,789.081,1192.837,787.714,1195.123,787.723"/>
	<path clip-path="url(#SVGID_2_)" fill="#FF654F" d="M1259.093,806.683l12.664-34.229c3.83-10.353-0.629-21.88-10.981-25.711
		c-10.354-3.83-22.681,1.486-26.512,11.839l-12.663,34.229L1259.093,806.683z"/>
	<path clip-path="url(#SVGID_2_)" fill="#FF654F" d="M1284.584,736.964L1284.584,736.964c-21.354-3.251-40.922,12.462-42.358,34.015
		l-7.466,103.136c33.257,18.771,53.905,14.248,84.739,6.197l3.487-96.999C1323.812,760.354,1307.297,740.421,1284.584,736.964"/>
	<path clip-path="url(#SVGID_2_)" fill="#DA5544" d="M1320.939,840.172h1.154l1.688-47.114h-1.148L1320.939,840.172z
		 M1233.561,874.759l0.637,0.356c16.313,9.209,30.218,13.313,45.089,13.313c11.281,0,22.099-2.296,35.4-5.689l0.041-1.194
		c-28.266,7.229-48.458,10.353-79.967-7.429l2.388-32.968l-1.147-0.086L1233.561,874.759z M1284.585,736.964
		c0.224,0.035,0.448,0.069,0.666,0.109l-0.086-1.184c-0.139-0.022-0.271-0.04-0.408-0.063c-1.917-0.293-3.864-0.437-5.781-0.437
		c-19.923,0-36.567,15.6-37.894,35.512l-2.291,31.651h1.147l2.286-31.578c1.314-19.646,17.684-34.437,36.751-34.437
		C1280.824,736.539,1282.695,736.677,1284.585,736.964"/>
	<path clip-path="url(#SVGID_2_)" fill="#F5BDC8" d="M1220.098,884.786c5.191-3.33,10.346-6.692,15.38-10.145
		c5.035-3.448,9.971-6.975,14.607-10.683c4.635-3.707,8.952-7.608,12.641-11.779c3.696-4.172,6.735-8.598,9.105-13.341
		c2.332-4.772,4.041-9.887,5.337-15.296c1.297-5.406,2.187-11.087,2.874-16.896c0.156-1.465,0.351-2.897,0.479-4.382l0.412-4.423
		c0.225-2.984,0.471-5.946,0.642-8.966c0.387-6.001,0.65-12.088,0.895-18.188c0.479-7.727,7.957-13.513,16.518-12.628
		c8.544,0.882,14.707,8.134,13.436,15.996c-1.153,6.168-2.328,12.348-3.651,18.576c-0.634,3.104-1.359,6.238-2.06,9.357
		l-1.141,4.707c-0.369,1.563-0.819,3.15-1.226,4.722c-1.7,6.301-3.654,12.661-6.193,18.995c-2.534,6.321-5.706,12.632-9.726,18.457
		c-4.054,5.81-8.928,10.992-14.14,15.364c-5.217,4.39-10.731,8.034-16.288,11.291c-5.563,3.254-11.188,6.143-16.824,8.906
		c-5.635,2.765-11.288,5.378-16.946,7.942c-1.907,0.879-4.241-0.007-5.328-2.021S1218.338,885.899,1220.098,884.786"/>
	<path clip-path="url(#SVGID_2_)" fill="#FF654F" d="M1311.023,816.406l4.788-36.181c1.448-10.943-5.448-21.2-16.393-22.648
		c-10.943-1.448-21.791,6.461-23.238,17.404l-4.788,36.181L1311.023,816.406z"/>
	<path clip-path="url(#SVGID_2_)" fill="#DA5544" d="M1274.899,775.929h1.153l0.126-0.946c1.447-10.944,12.298-18.855,23.242-17.403
		c4.604,0.609,8.497,2.779,11.345,5.902h1.516c-3.198-3.893-7.664-6.378-12.711-7.044c-0.907-0.121-1.837-0.179-2.756-0.179
		c-10.828,0-20.395,8.158-21.772,18.573L1274.899,775.929z M1270.105,812.152l17.275,2.285v-1.16l-15.99-2.113l2.693-20.348h-1.154
		L1270.105,812.152z M1311.024,816.406l-5.862-0.775v1.154l6.85,0.907l4.353-32.898h-1.155L1311.024,816.406z"/>
	<path clip-path="url(#SVGID_2_)" fill="#F5BDC8" d="M1270.335,726.198l3.309,26.041c6.122,2.955,11.777,2.236,16.967-2.155
		l-3.308-26.041L1270.335,726.198z"/>
	<path clip-path="url(#SVGID_2_)" fill="#EA8096" d="M1270.335,726.198l1.496,11.778c1.249,0.311,2.563,0.444,3.91,0.39
		c0.431-0.021,0.861-0.059,1.288-0.112c4.67-0.593,8.781-3.314,11.161-7.223l-0.888-6.988L1270.335,726.198z"/>
	<path clip-path="url(#SVGID_2_)" fill="#F5BDC8" d="M1260.602,711.25l1.797,10.828l0.727,4.382
		c1.002,6.08,6.388,10.446,12.541,10.186c2.036-0.088,3.984-0.621,5.719-1.525c0.402-0.209,0.794-0.438,1.17-0.684
		c0.234-0.152,0.465-0.309,0.689-0.476c2.152-1.604,3.828-3.834,4.717-6.487c0.753-2.235,1.416-4.681,2.021-7.25
		c0.35-1.467,0.679-2.978,0.992-4.507c1.4-6.749-0.93-13.831-6.283-18.173c-4.56-3.702-9.789-4.366-15.728-1.771
		C1262.957,698.396,1259.53,704.789,1260.602,711.25"/>
	<path clip-path="url(#SVGID_2_)" fill="#050F64" d="M1257.191,714.554c-1.256-0.991-1.539-3.023-1.507-4.748
		c0.033-1.725,0.22-3.569-0.543-5.118c-0.972-1.977-3.244-2.911-3.821-5.065c-0.565-2.105,0.824-3.979,2.104-5.371
		c3.405-3.702,6.809-7.405,10.214-11.108c1.395-1.518,2.824-3.061,4.597-3.906c1.772-0.845,3.982-0.878,5.67,0.511
		c0.885,0.729,1.566,1.79,2.478,2.466c2.058,1.53,4.558,0.692,6.779,0.057c2.739-0.786,5.743-1.157,8.482,0.196
		c2.741,1.353,5.032,4.902,4.514,8.23c-0.245,1.576-1.054,2.875-1.662,4.268c-0.609,1.395-1.023,3.104-0.451,4.642
		c0.77,2.064,2.858,2.824,4.485,4.002c2.295,1.659,3.95,4.626,4.307,7.716c0.355,3.09-0.597,6.22-2.479,8.139
		c-1.63,1.664-4.437,2.227-6.038,0.192c-1.827-2.321-1.188-6.77-3.557-8.165c-2.849-1.676-5.661,3.734-8.484,1.988
		c-1.51-0.935-1.913-3.383-3.248-4.668c-1.762-1.695-4.08-0.728-5.841-0.055c-1.902,0.729-3.736,1.131-5.722,1.498
		c-1.819,0.338-3.205,1.175-4.663,2.417C1261.299,713.953,1259.271,716.079,1257.191,714.554"/>
	<path clip-path="url(#SVGID_2_)" fill="#F5BDC8" d="M1282.58,716.504c0.397,3.124,3.565,5.296,7.076,4.85
		c3.512-0.446,6.035-3.34,5.639-6.465c-0.397-3.125-3.564-5.296-7.076-4.851C1284.709,710.484,1282.184,713.379,1282.58,716.504"/>
	<path clip-path="url(#SVGID_2_)" fill="#050F64" d="M153.261,1087.396l39.152,0.002c-0.029-1.34-0.291-2.629-1.1-3.669
		c-0.928-1.203-2.434-1.831-3.924-2.089c-1.497-0.258-3.03-0.189-4.545-0.265c-3.714-0.182-7.383-1.243-10.622-3.076
		c-1.691-0.949-3.274-2.118-5.101-2.783l-10.671,0.279c-1.46,1.573-2.399,3.636-2.851,5.754
		C153.187,1083.467,153.141,1085.437,153.261,1087.396"/>
	<polygon clip-path="url(#SVGID_2_)" fill="#F5BDC8" points="153.453,1064.259 156.45,1075.796 167.121,1075.516 166.494,1063.117 	
		"/>
	<path clip-path="url(#SVGID_2_)" fill="#050F64" d="M170.083,965.577c0.19-7.443-0.473-14.881-1.979-22.172
		c-5.194-25.136-14.534-73.549-14.535-73.556c-1.447-10.432-10.119-13.484-20.549-12.037c-6.063,0.842-63.003,12.628-62.954,13.165
		l12.412,192.952l15.837-0.544l16.974-152l26.037,47.739l0.018,0.059l11.024,105.157l15.214-1.041L170.083,965.577z"/>
	<path clip-path="url(#SVGID_2_)" fill="#050F64" d="M81.859,1087.396h39.152c-0.029-1.34-0.291-2.629-1.1-3.669
		c-0.928-1.203-2.434-1.831-3.925-2.089c-1.496-0.258-3.03-0.189-4.544-0.264c-3.715-0.182-7.384-1.244-10.622-3.076
		c-1.692-0.949-3.275-2.118-5.101-2.783l-10.672,0.28c-1.459,1.573-2.398,3.636-2.851,5.753
		C81.784,1083.467,81.739,1085.437,81.859,1087.396"/>
	<polygon clip-path="url(#SVGID_2_)" fill="#F5BDC8" points="83.772,1063.886 85.047,1075.796 95.719,1075.516 97.374,1063.419 	"/>
	<path clip-path="url(#SVGID_2_)" fill="#155BCC" d="M78.865,733.577c-4.645-1.006-9.696,0.037-13.563,2.801
		c-6.558,4.686-8.941,13.182-10.756,21.035c-4.629,20.037-8.42,40.336-9.62,60.866c-0.222,3.789-0.352,7.623,0.37,11.35
		s2.37,7.379,5.214,9.892c4.544,4.017,11.951,4.296,16.785,0.635c5.916-4.479,7.009-12.784,7.625-20.179
		c1.028-12.335,2.056-24.67,3.084-37.005c0.849-10.18,1.732-20.659,5.84-30.14c1.468-3.391,6.152-8.417,5.035-12.308
		C87.81,736.798,82.268,734.313,78.865,733.577"/>
	<path clip-path="url(#SVGID_2_)" fill="#EA8096" d="M241.109,721.889c-2.07-0.349-4.023,0.824-4.513,2.651
		c-1.49,5.422-3.346,10.688-5.673,15.578c-2.328,4.883-5.181,9.372-8.592,12.999c-3.397,3.65-7.36,6.326-11.658,7.934
		c-2.157,0.797-4.4,1.345-6.711,1.665c-2.313,0.317-4.7,0.389-7.122,0.279c-4.847-0.224-9.836-1.218-14.802-2.682
		c-4.969-1.466-9.922-3.425-14.81-5.656c-4.889-2.245-9.72-4.766-14.483-7.499c-4.765-2.722-9.466-5.641-14.108-8.698
		c-2.99-1.857-6.52-2.217-9.86-1.271c-3.328,0.929-6.464,3.166-8.503,6.525c-2.04,3.358-2.544,7.178-1.659,10.627
		c0.892,3.43,3.178,6.488,6.62,8.193c5.465,2.579,11.026,5.025,16.71,7.278c5.677,2.261,11.489,4.319,17.455,6.089
		c5.972,1.755,12.104,3.234,18.462,4.158c6.35,0.916,12.94,1.312,19.667,0.649c3.359-0.338,6.744-0.935,10.076-1.902
		c3.329-0.969,6.596-2.296,9.664-3.985c6.155-3.387,11.335-8.285,15.087-13.727c3.798-5.444,6.368-11.332,8.219-17.228
		c1.841-5.908,3.009-11.86,3.767-17.786C244.612,724.071,243.167,722.234,241.109,721.889"/>
	<path clip-path="url(#SVGID_2_)" fill="#83A8FF" d="M161.044,786.637l-32.233-16.621c-9.75-5.028-14.206-16.473-9.178-26.223
		c5.027-9.75,17.634-14.112,27.384-9.085l32.233,16.62L161.044,786.637z"/>
	<path clip-path="url(#SVGID_2_)" fill="#155BCC" d="M140.808,747.84L145,745.4c-0.192-0.332-4.845-8.194-16.033-12.962
		c-10.103-4.308-27.752-6.813-54.442,5.691l2.058,4.393C123.895,720.357,140.139,746.708,140.808,747.84"/>
	<path clip-path="url(#SVGID_2_)" fill="#83A8FF" d="M113.179,732.594L113.179,732.594c21.381-1.901,39.813,14.895,39.902,36.361
		l0.489,100.894c-34.148,16.555-53.422,11.024-83.503,1.129l2.153-94.796C72.824,753.359,90.439,734.614,113.179,732.594"/>
	<path clip-path="url(#SVGID_2_)" fill="#155BCC" d="M153.775,768.953c-0.084-20.513-16.818-37.199-37.296-37.199
		c-1.114,0-2.245,0.049-3.363,0.15c-0.548,0.048-1.089,0.106-1.631,0.177c-0.045,0.236-0.093,0.476-0.146,0.718
		c0.608-0.083,1.222-0.148,1.84-0.205c1.11-0.097,2.21-0.146,3.3-0.146c19.944,0,36.515,16.155,36.602,36.505l0.177,36.834h0.694
		L153.775,768.953z M107.395,880.149l0.048,0.697c1.989,0.163,3.981,0.246,5.987,0.246c4.456,0,8.936-0.42,13.527-1.279
		l-0.236-0.656C119.963,880.416,113.647,880.659,107.395,880.149 M71.524,776.168l-0.52,22.991h0.694l0.52-22.977
		c0.309-11.702,5.091-22.332,12.747-30.186c-0.17-0.167-0.337-0.327-0.496-0.49C76.695,753.482,71.84,764.278,71.524,776.168
		 M70.549,849.742l-0.69-0.097l-0.497,21.832l0.486,0.158c3.713,1.223,7.239,2.367,10.63,3.401c0-0.239,0.003-0.475,0.01-0.715
		c-3.345-1.03-6.805-2.155-10.421-3.345L70.549,849.742z M154.087,833.907h-0.691l0.174,35.942c-2.311,1.12-4.557,2.141-6.74,3.061
		l0.17,0.684c2.246-0.947,4.533-1.984,6.872-3.119l0.392-0.191L154.087,833.907z"/>
	<path clip-path="url(#SVGID_2_)" fill="#F5BDC8" d="M123.743,721.085l-0.775,26.073c-5.773,3.51-11.435,3.342-16.989-0.506
		l0.775-26.072L123.743,721.085z"/>
	<path clip-path="url(#SVGID_2_)" fill="#EA8096" d="M123.743,721.085l-0.351,11.793c-1.205,0.427-2.491,0.686-3.829,0.76
		c-0.429,0.021-0.857,0.026-1.285,0.013c-4.676-0.139-9.003-2.436-11.732-6.073l0.208-6.997L123.743,721.085z"/>
	<path clip-path="url(#SVGID_2_)" fill="#F5BDC8" d="M131.939,705.367l-1.036,15.286c-0.415,6.107-5.321,10.945-11.433,11.274
		c-5.555,0.299-10.766-2.813-13.039-7.891c-1.504-3.361-2.84-7.246-4.109-11.34c-2.027-6.541-0.403-13.771,4.474-18.579
		c4.157-4.097,9.264-5.255,15.389-3.259C128.373,692.878,132.379,698.874,131.939,705.367"/>
	<path clip-path="url(#SVGID_2_)" fill="#155BCC" d="M113.353,769.383l4.693-1.225c-2.216-8.497-5.874-15.102-10.874-19.634
		c-10.736-9.73-27.192-8.613-39.009-4.323l1.654,4.561c10.493-3.809,24.959-4.925,34.098,3.357
		C108.203,756.006,111.379,761.813,113.353,769.383"/>
	<path clip-path="url(#SVGID_2_)" fill="#F5BDC8" d="M112.338,906.214c1.529-1.421,2.033-3.489,1.109-5.073
		c-2.737-4.763-4.827-10.078-6.541-15.452c-1.678-5.41-2.95-10.96-3.902-16.568c-0.216-1.41-0.482-2.8-0.657-4.217l-0.547-4.236
		l-0.42-4.256c-0.151-1.413-0.208-2.848-0.317-4.267l-0.146-2.132l-0.083-2.143c-0.048-1.428-0.118-2.85-0.151-4.276
		c-0.006-2.865-0.092-5.708,0.009-8.574c0.434-22.879,4.108-45.677,9.563-68.017c0.19-0.891,0.275-1.78,0.264-2.66
		c-0.003-0.878-0.082-1.743-0.261-2.59c-0.354-1.691-1.065-3.302-2.068-4.745c-2.008-2.884-5.183-5.109-9.036-5.884
		c-3.853-0.773-7.61,0.089-10.547,2.144c-1.468,1.026-2.731,2.348-3.694,3.895c-0.479,0.774-0.895,1.602-1.203,2.481
		c-0.299,0.882-0.512,1.811-0.625,2.776c-2.473,24.354-3.025,49.067-0.094,73.553c0.32,3.056,0.832,6.109,1.266,9.152
		c0.246,1.522,0.533,3.041,0.798,4.56l0.408,2.273l0.473,2.269c0.329,1.51,0.604,3.021,0.977,4.523l1.086,4.502l1.222,4.474
		c0.399,1.489,0.895,2.964,1.338,4.441c1.867,5.899,4.073,11.702,6.716,17.327c2.697,5.612,5.737,11.056,9.657,16.111
		C108.257,907.338,110.797,907.647,112.338,906.214"/>
	<path clip-path="url(#SVGID_2_)" fill="#83A8FF" d="M74.484,804.938l3.434-36.104c1.038-10.92,10.004-19.313,20.924-18.275
		c10.921,1.039,19.661,11.117,18.622,22.038l-3.433,36.103L74.484,804.938z"/>
	<path clip-path="url(#SVGID_2_)" fill="#155BCC" d="M98.909,749.866c-0.628-0.059-1.263-0.09-1.888-0.09
		c-6.545,0-12.379,3.324-16.009,8.547l0.587,0.365c3.8-5.456,10.105-8.809,17.244-8.128c5.296,0.503,10.078,3.134,13.482,6.955
		l0.58-0.394C109.271,753.007,104.191,750.373,98.909,749.866 M116.753,780.068l-1.738,18.278h0.697l1.728-18.168L116.753,780.068z
		 M114.029,808.699l-21.443-2.041l-0.045,0.694l22.116,2.103l0.33-3.463l-0.691-0.118L114.029,808.699z M76.199,779.586
		l-1.985,20.878l0.687,0.09l1.992-20.968H76.199z"/>
	<path clip-path="url(#SVGID_2_)" fill="#050F64" d="M128.844,697.189c0,0,2.975,5.064,2.67,14.452c0,0,1.904-9.441,0.104-16.832
		L128.844,697.189z"/>
	<path clip-path="url(#SVGID_2_)" fill="#050F64" d="M96.847,712.688c0,0-8.483-12.149-0.075-21.817
		c9.063-10.42,15.209-9.472,21.829-7.831c8.373,2.074,12.92,4.868,16.088,4.111c1.693-0.403,3.164-1.88,3.463-0.916
		c0.298,0.964,0.876,6.686-3.827,11.07s-10.976,3.886-17.195,0.834c-6.219-3.052-9.112-2.585-11.599,1.27
		c-2.638,4.09,1.264,11.337,1.264,11.337l-1.874,0.729C104.921,711.474,97.677,707.469,96.847,712.688"/>
	<path clip-path="url(#SVGID_2_)" fill="#F5BDC8" d="M108.855,711.521c-0.093,3.13-3.018,5.58-6.533,5.476
		c-3.516-0.104-6.29-2.726-6.197-5.854c0.093-3.129,3.018-5.58,6.533-5.476C106.175,705.772,108.949,708.394,108.855,711.521"/>
	
		<rect x="998.718" y="284.755" transform="matrix(-0.1485 -0.9889 0.9889 -0.1485 1037.5829 1497.0632)" clip-path="url(#SVGID_2_)" fill="#FFCA32" width="329.226" height="34.119"/>
	
		<rect x="1119.296" y="105.095" transform="matrix(-0.1485 -0.9889 0.9889 -0.1485 1184.2535 1264.0544)" clip-path="url(#SVGID_2_)" fill="#FF654F" width="34.121" height="34.121"/>
	
		<rect x="1128.237" y="124.1" transform="matrix(-0.1485 -0.9889 0.9889 -0.1485 1168.7543 1288.7084)" clip-path="url(#SVGID_2_)" fill="#E4E5EA" width="21.956" height="34.121"/>
	<polygon clip-path="url(#SVGID_2_)" fill="#050F64" points="1191.808,522.422 1200.9,521.058 1199.521,542.829 	"/>
	<polygon clip-path="url(#SVGID_2_)" fill="#E4E5EA" points="1170.896,467.139 1204.645,462.072 1200.9,521.057 1191.808,522.423 	
		"/>
	<rect y="1089.449" clip-path="url(#SVGID_2_)" fill="#E4E5EA" width="1408.695" height="12.228"/>
	<polygon clip-path="url(#SVGID_2_)" fill="#DA5544" points="130.761,641.028 130.761,662.646 161.417,641.028 	"/>
	<rect x="130.761" y="579.23" clip-path="url(#SVGID_2_)" fill="#FF654F" width="236.222" height="63.875"/>
	<rect x="236.048" y="593.621" clip-path="url(#SVGID_2_)" fill="#FFFFFF" width="113.877" height="6.113"/>
	<polygon clip-path="url(#SVGID_2_)" fill="#FFFFFF" points="166.007,599.735 229.935,599.735 229.935,593.621 166.007,593.621 
		165.438,593.621 147.819,593.621 147.819,599.735 165.438,599.735 	"/>
	<rect x="271.47" y="609.424" clip-path="url(#SVGID_2_)" fill="#FFFFFF" width="78.455" height="6.114"/>
	<rect x="191.597" y="609.424" clip-path="url(#SVGID_2_)" fill="#FFFFFF" width="73.759" height="6.114"/>
	<rect x="147.819" y="609.424" clip-path="url(#SVGID_2_)" fill="#FFFFFF" width="37.669" height="6.114"/>
	<polygon clip-path="url(#SVGID_2_)" fill="#FFFFFF" points="280.646,625.226 251.927,625.226 251.927,631.34 280.646,631.34 
		285.868,631.34 349.925,631.34 349.925,625.226 285.868,625.226 	"/>
	<rect x="175.992" y="625.226" clip-path="url(#SVGID_2_)" fill="#FFFFFF" width="69.825" height="6.114"/>
	<polygon clip-path="url(#SVGID_2_)" fill="#DA5544" points="1249.941,78.389 1249.941,99.634 1219.812,78.389 	"/>
	<rect x="1017.778" clip-path="url(#SVGID_2_)" fill="#FF654F" width="232.163" height="79.97"/>
	<rect x="1034.543" y="13.685" clip-path="url(#SVGID_2_)" fill="#FFFFFF" width="111.921" height="6.009"/>
	<rect x="1152.472" y="13.685" clip-path="url(#SVGID_2_)" fill="#FFFFFF" width="63.389" height="6.009"/>
	<rect x="1215.302" y="13.685" clip-path="url(#SVGID_2_)" fill="#FFFFFF" width="17.875" height="6.009"/>
	<rect x="1034.543" y="29.216" clip-path="url(#SVGID_2_)" fill="#FFFFFF" width="77.107" height="6.009"/>
	<rect x="1117.659" y="29.216" clip-path="url(#SVGID_2_)" fill="#FFFFFF" width="72.492" height="6.009"/>
	<rect x="1196.155" y="29.215" clip-path="url(#SVGID_2_)" fill="#FFFFFF" width="37.021" height="6.009"/>
	<rect x="1034.543" y="44.746" clip-path="url(#SVGID_2_)" fill="#FFFFFF" width="68.089" height="6.009"/>
	<rect x="1097.499" y="44.746" clip-path="url(#SVGID_2_)" fill="#FFFFFF" width="33.358" height="6.009"/>
	<rect x="1136.862" y="44.746" clip-path="url(#SVGID_2_)" fill="#FFFFFF" width="68.626" height="6.009"/>
	<rect x="1211.492" y="44.746" clip-path="url(#SVGID_2_)" fill="#FFFFFF" width="21.685" height="6.009"/>
	<rect x="1034.543" y="60.277" clip-path="url(#SVGID_2_)" fill="#FFFFFF" width="76.631" height="6.009"/>
	<rect x="1117.182" y="60.277" clip-path="url(#SVGID_2_)" fill="#FFFFFF" width="78.973" height="6.009"/>
</g>
</svg>
